<svg width="27" height="27" viewBox="0 0 27 27" fill="none" xmlns="http://www.w3.org/2000/svg">
<path d="M10.2022 12.1971C9.90443 12.4161 9.52467 12.5256 9.06298 12.5256L6.44052 12.528V9.772H8.86443C9.08976 9.772 9.31273 9.79131 9.53334 9.82991C9.74764 9.86773 9.93752 9.93628 10.103 10.0355C10.2684 10.134 10.4004 10.2719 10.4989 10.4492C10.5974 10.6249 10.647 10.8498 10.6478 11.124C10.6478 11.6188 10.4993 11.9761 10.2022 12.1959M9.93752 17.4515C9.69885 17.5012 9.45568 17.5261 9.21189 17.5259H6.44052V14.2925H9.26152C9.82328 14.2925 10.2743 14.4217 10.6147 14.6801C10.9551 14.9385 11.1256 15.3703 11.1264 15.9754C11.1264 16.2826 11.074 16.5355 10.9692 16.7341C10.8652 16.9311 10.725 17.0879 10.5485 17.2045C10.3622 17.3247 10.1549 17.4077 9.93752 17.4515ZM18.3462 12.3283C18.9182 12.3283 19.3448 12.4819 19.6261 12.7892C19.9058 13.098 20.1012 13.5491 20.2123 14.1424H16.4009C16.4119 13.9769 16.4474 13.7902 16.5072 13.5822C16.5753 13.3511 16.6913 13.1369 16.8476 12.9536C17.004 12.7703 17.1973 12.6221 17.4149 12.5185C17.6615 12.3925 17.9719 12.3283 18.3462 12.3283Z" fill="white"/>
<path d="M26.2088 13.6484C26.2088 20.8279 20.3883 26.6484 13.2088 26.6484C6.02924 26.6484 0.208786 20.8279 0.208786 13.6484C0.208786 6.46883 6.02924 0.648376 13.2088 0.648376C20.3883 0.648376 26.2088 6.46883 26.2088 13.6484ZM10.9279 7.90592C10.4228 7.80281 9.90819 7.75329 9.39269 7.75819H3.84997V19.5409H9.55933C10.0793 19.5409 10.5993 19.4747 11.1016 19.3424C11.6019 19.2108 12.0475 19.0071 12.4382 18.7314C12.829 18.4572 13.1402 18.1026 13.3719 17.6677C13.6019 17.2328 13.717 16.7183 13.717 16.1243C13.717 15.3868 13.5381 14.7569 13.1804 14.2346C12.8235 13.713 12.2818 13.3474 11.5554 13.1378C12.0833 12.8849 12.482 12.5603 12.7514 12.164C13.0209 11.7677 13.1556 11.2729 13.1556 10.6796C13.1556 10.1289 13.065 9.66683 12.8838 9.29338C12.7129 8.92989 12.4476 8.6189 12.1156 8.39283C11.7553 8.15456 11.3518 7.98914 10.9279 7.90592ZM18.4951 17.7895C17.8348 17.7895 17.3286 17.6189 16.9764 17.2777C16.6242 16.9366 16.4324 16.3878 16.4009 15.6315H22.5558C22.6016 14.994 22.5458 14.3534 22.3903 13.7335C22.2474 13.1508 21.9921 12.6016 21.6387 12.1167C21.2904 11.6415 20.836 11.2542 20.3115 10.9857C19.7718 10.7053 19.1391 10.565 18.4135 10.565C17.7635 10.565 17.1718 10.6804 16.6384 10.9113C16.105 11.1421 15.6457 11.4581 15.2604 11.8591C14.8751 12.2601 14.5781 12.736 14.3693 13.2867C14.1568 13.8562 14.0506 14.4599 14.0561 15.0677C14.0561 15.7272 14.1578 16.3323 14.3611 16.883C14.5643 17.4322 14.8531 17.9049 15.2273 18.3012C15.6016 18.6975 16.0585 19.0028 16.5982 19.2171C17.1379 19.4314 17.7426 19.5386 18.4123 19.5386C19.3806 19.5386 20.2055 19.3183 20.8871 18.8779C21.5694 18.4391 22.0756 17.7079 22.4057 16.6845H20.3434C20.2662 16.9484 20.0574 17.1986 19.7171 17.4349C19.3751 17.6713 18.9678 17.7895 18.4951 17.7895ZM20.7618 8.35619H15.9991V9.67629H20.7618V8.35619Z" fill="white"/>
</svg>
