<svg width="39" height="28" viewBox="0 0 39 28" fill="none" xmlns="http://www.w3.org/2000/svg">
<path d="M12.0001 27.5C11.703 27.5067 11.4077 27.4527 11.1322 27.3413C10.8567 27.2299 10.6069 27.0634 10.3981 26.852C10.1867 26.6432 10.0202 26.3933 9.90876 26.1179C9.79734 25.8424 9.74334 25.5471 9.75007 25.25C9.75007 24.614 9.96607 24.08 10.3981 23.648C10.6069 23.4366 10.8567 23.2701 11.1322 23.1587C11.4077 23.0473 11.703 22.9933 12.0001 23H36.7501C37.3876 23 37.9223 23.216 38.3543 23.648C38.5653 23.8571 38.7314 24.107 38.8424 24.3824C38.9535 24.6579 39.0071 24.9531 39.0001 25.25C39.0001 25.886 38.7848 26.42 38.3543 26.852C38.1452 27.0637 37.895 27.2303 37.6192 27.3418C37.3433 27.4532 37.0475 27.5071 36.7501 27.5H12.0001Z" fill="white"/>
<path d="M7.14491 14L0.619916 7.475C0.415011 7.26841 0.254441 7.02216 0.148045 6.75134C0.0416504 6.48052 -0.00833258 6.19082 0.00116318 5.9C-0.00833253 5.60918 0.0416505 5.31949 0.148045 5.04866C0.254441 4.77784 0.415011 4.53159 0.619917 4.325C0.826506 4.1201 1.07275 3.95953 1.34358 3.85313C1.6144 3.74674 1.9041 3.69675 2.19491 3.70625C2.48573 3.69675 2.77543 3.74674 3.04625 3.85313C3.31708 3.95953 3.56333 4.1201 3.76992 4.325L11.8699 12.425C12.0839 12.6276 12.2542 12.8718 12.3703 13.1427C12.4864 13.4136 12.5458 13.7053 12.5449 14C12.5449 14.6 12.3199 15.125 11.8699 15.575L3.76991 23.675C3.56332 23.8799 3.31707 24.0405 3.04625 24.1469C2.77543 24.2533 2.48573 24.3032 2.19491 24.2938C1.55741 24.2938 1.03242 24.0875 0.619915 23.675C0.41501 23.4684 0.254439 23.2222 0.148044 22.9513C0.041649 22.6805 -0.00833399 22.3908 0.00116177 22.1C-0.00833394 21.8092 0.0416491 21.5195 0.148044 21.2487C0.25444 20.9778 0.41501 20.7316 0.619915 20.525L7.14491 14Z" fill="#1F9CEF"/>
<path d="M11.9999 4.99999C11.703 5.00702 11.4077 4.95338 11.1323 4.84234C10.8568 4.7313 10.6069 4.56522 10.3979 4.35424C10.1862 4.14513 10.0196 3.89495 9.90812 3.61907C9.79668 3.34319 9.74283 3.04744 9.74988 2.74999C9.74988 2.11249 9.96588 1.57774 10.3979 1.14574C10.6069 0.93477 10.8568 0.768681 11.1323 0.657646C11.4077 0.54661 11.703 0.492964 11.9999 0.499993H36.7499C37.0472 0.492656 37.3428 0.546151 37.6187 0.657195C37.8946 0.768239 38.1448 0.934491 38.3541 1.14574C38.5654 1.35505 38.7316 1.60531 38.8427 1.88118C38.9537 2.15705 39.0072 2.4527 38.9999 2.74999C39.0072 3.04728 38.9537 3.34294 38.8427 3.61881C38.7316 3.89468 38.5654 4.14494 38.3541 4.35424C38.1448 4.5655 37.8946 4.73175 37.6187 4.84279C37.3428 4.95384 37.0472 5.00733 36.7499 4.99999H11.9999Z" fill="white"/>
<path d="M18.2506 16.25C17.9535 16.2567 17.6582 16.2027 17.3827 16.0913C17.1072 15.9799 16.8574 15.8134 16.6486 15.602C16.4372 15.3931 16.2707 15.1433 16.1593 14.8679C16.0478 14.5924 15.9938 14.2971 16.0006 14C16.0006 13.3625 16.2166 12.8277 16.6486 12.3957C16.8576 12.1848 17.1075 12.0187 17.383 11.9076C17.6584 11.7966 17.9536 11.743 18.2506 11.75H36.2506C36.5478 11.7427 36.8435 11.7962 37.1194 11.9072C37.3952 12.0182 37.6455 12.1845 37.8548 12.3957C38.0661 12.605 38.2323 12.8553 38.3434 13.1312C38.4544 13.4071 38.5079 13.7027 38.5006 14C38.5006 14.636 38.2853 15.17 37.8548 15.602C37.6457 15.8137 37.3955 15.9803 37.1196 16.0918C36.8438 16.2032 36.548 16.257 36.2506 16.25H18.2506Z" fill="white"/>
</svg>
