<svg width="27" height="26" viewBox="0 0 27 26" fill="none" xmlns="http://www.w3.org/2000/svg">
<path d="M13.2165 0C11.5093 0 9.81887 0.344603 8.24164 1.01413C6.6644 1.68366 5.2313 2.66501 4.02413 3.90214C1.58616 6.40064 0.216522 9.78934 0.216522 13.3228C0.216522 19.2114 3.94752 24.2074 9.10852 25.9794C9.75852 26.0859 9.96652 25.6729 9.96652 25.3132V23.0617C6.36552 23.861 5.59852 21.2764 5.59852 21.2764C5.00052 19.731 4.15552 19.318 4.15552 19.318C2.97252 18.492 4.24652 18.5186 4.24652 18.5186C5.54652 18.6119 6.23552 19.8909 6.23552 19.8909C7.36652 21.9159 9.27752 21.3164 10.0185 20.9967C10.1355 20.1307 10.4735 19.5445 10.8375 19.2114C7.95152 18.8783 4.92252 17.7326 4.92252 12.6566C4.92252 11.1778 5.41652 9.99206 6.26152 9.04615C6.13152 8.71308 5.67652 7.32751 6.39152 5.52894C6.39152 5.52894 7.48352 5.16923 9.96652 6.88786C10.9935 6.59476 12.1115 6.44821 13.2165 6.44821C14.3215 6.44821 15.4395 6.59476 16.4665 6.88786C18.9495 5.16923 20.0415 5.52894 20.0415 5.52894C20.7565 7.32751 20.3015 8.71308 20.1715 9.04615C21.0165 9.99206 21.5105 11.1778 21.5105 12.6566C21.5105 17.7459 18.4685 18.865 15.5695 19.1981C16.0375 19.6111 16.4665 20.4238 16.4665 21.6628V25.3132C16.4665 25.6729 16.6745 26.0993 17.3375 25.9794C22.4985 24.1941 26.2165 19.2114 26.2165 13.3228C26.2165 11.5732 25.8803 9.84074 25.227 8.22435C24.5736 6.60796 23.6161 5.13927 22.4089 3.90214C21.2017 2.66501 19.7686 1.68366 18.1914 1.01413C16.6142 0.344603 14.9237 0 13.2165 0Z" fill="white"/>
</svg>
