<svg width="26" height="26" viewBox="0 0 26 26" fill="none" xmlns="http://www.w3.org/2000/svg">
<path d="M13 0C5.82021 0 0 5.82021 0 13C0 20.1798 5.82021 26 13 26C20.1798 26 26 20.1798 26 13C26 5.82021 20.1798 0 13 0ZM9.81771 18.3882H7.18521V9.91656H9.81771V18.3882ZM8.48521 8.87656C7.65375 8.87656 7.11615 8.2875 7.11615 7.55896C7.11615 6.81552 7.67 6.24406 8.51906 6.24406C9.36812 6.24406 9.88812 6.81552 9.90437 7.55896C9.90437 8.2875 9.36812 8.87656 8.48521 8.87656ZM19.4323 18.3882H16.7998V13.6933C16.7998 12.6005 16.4179 11.8584 15.4659 11.8584C14.7388 11.8584 14.3068 12.3608 14.1158 12.8443C14.0454 13.0163 14.0278 13.26 14.0278 13.5024V18.3869H11.394V12.6181C11.394 11.5605 11.3601 10.6762 11.3249 9.91521H13.6121L13.7326 11.092H13.7854C14.1321 10.5395 14.9811 9.72427 16.4017 9.72427C18.1336 9.72427 19.4323 10.8848 19.4323 13.3792V18.3882Z" fill="white"/>
</svg>
