<?xml version="1.0" encoding="UTF-8"?>
<svg id="Layer_1" xmlns="http://www.w3.org/2000/svg" viewBox="0 0 352 235.42">
  <defs>
    <style>
      .cls-1, .cls-2 {
        fill: #fff;
      }

      .cls-3 {
        fill: #171616;
      }

      .cls-4 {
        fill: #1f9cef;
      }

      .cls-4, .cls-2 {
        isolation: isolate;
        opacity: .5;
      }

      .cls-5 {
        fill: #231f20;
        stroke: #1f9cef;
      }

      .cls-6 {
        fill: none;
        stroke: rgba(255, 255, 255, .5);
      }
    </style>
  </defs>
  <rect class="cls-5" x=".5" y=".63" width="350.51" height="234.29" rx="11.5" ry="11.5"/>
  <rect class="cls-3" x="18.17" y="39.24" width="315.16" height="175.67" rx="12" ry="12"/>
  <path class="cls-1" d="M20.17,24.78v2.64h-1.32v-7h2.74c.36,0,.67.06.94.18.27.11.49.27.66.46.18.19.31.4.4.65.09.24.14.49.14.74v.24c0,.26-.05.52-.14.77-.09.25-.22.47-.4.67-.17.19-.39.35-.66.47-.27.12-.58.18-.94.18h-1.42ZM20.17,23.52h1.29c.29,0,.52-.08.69-.24.17-.16.26-.37.26-.62v-.12c0-.25-.09-.46-.26-.62-.17-.16-.4-.24-.69-.24h-1.29v1.84ZM24.79,22.46h2.1v.72h.18c.09-.27.25-.48.47-.63.23-.15.5-.23.81-.23.49,0,.89.16,1.19.47.3.31.45.78.45,1.41v.22l-1.3.12v-.14c0-.27-.07-.49-.21-.65-.14-.17-.35-.25-.63-.25s-.5.1-.66.29c-.16.19-.24.47-.24.83v1.6h1.14v1.2h-3.42v-1.2h1.02v-2.56h-.9v-1.2ZM36.02,25c0,.41-.07.78-.21,1.1-.14.31-.33.58-.57.8-.24.21-.52.38-.83.49-.31.11-.63.17-.97.17s-.67-.06-.98-.17c-.31-.11-.58-.28-.82-.49-.24-.22-.43-.49-.57-.8-.14-.32-.21-.69-.21-1.1v-.12c0-.41.07-.77.21-1.08.14-.32.33-.59.57-.81s.51-.39.82-.5c.31-.11.64-.17.98-.17s.66.06.97.17c.31.11.59.28.83.5.24.22.43.49.57.81.14.31.21.67.21,1.08v.12ZM33.44,26.36c.18,0,.35-.03.51-.09.16-.06.3-.15.42-.26s.21-.25.28-.41c.07-.17.11-.35.11-.56v-.2c0-.21-.04-.39-.11-.55-.07-.17-.16-.31-.28-.42s-.26-.2-.42-.26c-.16-.06-.33-.09-.51-.09s-.35.03-.51.09c-.16.06-.3.15-.42.26s-.22.25-.29.42c-.07.16-.1.34-.1.55v.2c0,.21.03.39.1.56.07.16.17.3.29.41s.26.2.42.26c.16.06.33.09.51.09ZM37.76,22.46h3.18v5.94c0,.35-.09.6-.28.77-.19.17-.43.25-.73.25h-2.35v-1.2h1.8c.2,0,.3-.11.3-.33v-4.23h-1.92v-1.2ZM41.24,20.99c0,.13-.03.26-.08.38-.05.11-.11.21-.2.3-.09.08-.19.15-.31.2-.11.05-.23.07-.36.07-.13,0-.26-.02-.37-.07-.11-.05-.21-.12-.3-.2-.09-.09-.16-.19-.21-.3-.05-.12-.07-.25-.07-.38s.02-.26.07-.37c.05-.12.12-.22.21-.3.09-.09.19-.15.3-.2.11-.05.24-.08.37-.08s.25.03.36.08c.12.05.22.11.31.2.09.08.15.18.2.3.05.11.08.24.08.37ZM44.51,25.35c0,.15.04.28.1.41.07.12.15.23.26.32.11.09.24.16.38.21.15.05.3.07.46.07.31,0,.55-.05.72-.16.17-.11.29-.25.36-.4l1.08.6c-.06.13-.14.26-.25.4-.11.13-.25.26-.42.37-.17.11-.37.21-.62.28-.24.07-.52.11-.85.11-.37,0-.71-.06-1.02-.18-.31-.12-.57-.29-.8-.52-.22-.23-.39-.5-.52-.83-.12-.33-.18-.7-.18-1.11v-.06c0-.38.06-.73.19-1.04.13-.31.31-.58.54-.8.23-.22.49-.39.79-.51.31-.13.63-.19.98-.19.43,0,.79.08,1.1.23.31.15.56.34.76.57.2.23.35.48.44.76.09.27.14.54.14.8v.67h-3.64ZM45.7,23.46c-.32,0-.58.08-.78.25-.2.16-.33.35-.39.56h2.34c-.04-.23-.17-.43-.38-.58-.21-.15-.47-.23-.79-.23ZM54.36,25.6c-.11.59-.38,1.06-.81,1.42-.42.36-.98.54-1.69.54-.37,0-.71-.06-1.03-.17-.31-.11-.59-.28-.82-.49s-.42-.48-.55-.79c-.13-.31-.2-.67-.2-1.07v-.12c0-.4.07-.76.2-1.08.13-.32.32-.59.55-.82.24-.23.52-.4.83-.52.32-.12.66-.18,1.02-.18.69,0,1.25.18,1.68.54.43.36.71.83.82,1.42l-1.24.32c-.04-.29-.17-.55-.38-.76-.21-.21-.51-.32-.9-.32-.18,0-.35.03-.51.1s-.3.16-.42.29c-.12.12-.22.27-.29.45-.07.17-.1.37-.1.59v.06c0,.22.03.42.1.59.07.17.17.31.29.42.12.11.26.2.42.26.16.05.33.08.51.08.39,0,.68-.1.88-.29.21-.19.34-.45.4-.78l1.24.31ZM55.51,22.46h1.47v-2.04h1.26v2.04h1.79v1.2h-1.79v2.26c0,.2.09.3.27.3h1.34v1.2h-2.1c-.23,0-.41-.07-.56-.22-.14-.15-.21-.33-.21-.56v-2.98h-1.47v-1.2ZM69.75,26.16v-5.08h-.18l-.66,2.4h-1.26v-.12l.84-2.94h2.58v5.74h1.74v1.26h-5.04v-1.26h1.98Z"/>
  <path class="cls-2" d="M38.63,61.58l1.14.36-2.99,9.14-1.15-.36,3-9.14ZM45.24,68.42l-.73-.73-.33-.74-.16.07.28.73v1.06h-.96v-1.06l.28-.73-.16-.07-.33.74-.73.73-.67-.67.73-.73.74-.33-.07-.16-.73.28h-1.06v-.96h1.06l.73.28.07-.16-.74-.33-.73-.73.67-.67.73.73.33.74.16-.07-.28-.73v-1.06h.96v1.06l-.28.73.16.07.33-.74.73-.73.67.67-.73.73-.74.33.07.16.73-.28h1.06v.96h-1.06l-.73-.28-.07.16.74.33.73.73-.67.67ZM51.37,68.42l-.73-.73-.33-.74-.16.07.28.73v1.06h-.96v-1.06l.28-.73-.16-.07-.33.74-.73.73-.67-.67.73-.73.74-.33-.07-.16-.73.28h-1.06v-.96h1.06l.73.28.07-.16-.74-.33-.73-.73.67-.67.73.73.33.74.16-.07-.28-.73v-1.06h.96v1.06l-.28.73.16.07.33-.74.73-.73.67.67-.73.73-.74.33.07.16.73-.28h1.06v.96h-1.06l-.73-.28-.07.16.74.33.73.73-.67.67ZM51.37,84.42l-.73-.73-.33-.74-.16.07.28.73v1.06h-.96v-1.06l.28-.73-.16-.07-.33.74-.73.73-.67-.67.73-.73.74-.33-.07-.16-.73.28h-1.06v-.96h1.06l.73.28.07-.16-.74-.33-.73-.73.67-.67.73.73.33.74.16-.07-.28-.73v-1.06h.96v1.06l-.28.73.16.07.33-.74.73-.73.67.67-.73.73-.74.33.07.16.73-.28h1.06v.96h-1.06l-.73-.28-.07.16.74.33.73.73-.67.67ZM59.85,78.83h4.68v1.26h-1.68v4.48h1.68v1.26h-4.68v-1.26h1.68v-4.48h-1.68v-1.26ZM67.29,85.83h-1.26v-4.96h1.26v.74h.18c.11-.28.3-.5.55-.65.25-.15.55-.23.89-.23.24,0,.46.04.67.12.21.07.4.19.56.35.16.16.28.36.37.61.09.25.14.54.14.88v3.14h-1.26v-2.82c0-.35-.09-.63-.26-.83-.17-.21-.41-.31-.73-.31-.37,0-.65.13-.84.38-.18.25-.27.58-.27,1v2.58ZM72.02,80.87h1.47v-2.04h1.26v2.04h1.79v1.2h-1.79v2.26c0,.2.09.3.27.3h1.34v1.2h-2.1c-.23,0-.41-.07-.56-.22-.14-.15-.21-.33-.21-.56v-2.98h-1.47v-1.2ZM79.39,83.76c0,.15.04.28.1.41.07.12.15.23.26.32.11.09.24.16.38.21.15.05.3.07.46.07.31,0,.55-.05.72-.16.17-.11.29-.25.36-.4l1.08.6c-.06.13-.14.26-.25.4-.11.13-.25.26-.42.37-.17.11-.37.21-.62.28-.24.07-.52.11-.85.11-.37,0-.71-.06-1.02-.18-.31-.12-.57-.29-.8-.52-.22-.23-.39-.5-.52-.83-.12-.33-.18-.7-.18-1.11v-.06c0-.38.06-.73.19-1.04.13-.31.31-.58.54-.8.23-.22.49-.39.79-.51.31-.13.63-.19.98-.19.43,0,.79.08,1.1.23.31.15.56.34.76.57.2.23.35.48.44.76.09.27.14.54.14.8v.67h-3.64ZM80.58,81.87c-.32,0-.58.08-.78.25-.2.16-.33.35-.39.56h2.34c-.04-.23-.17-.43-.38-.58-.21-.15-.47-.23-.79-.23ZM87.94,85.11h-.18c-.05.11-.12.22-.2.33-.07.1-.17.19-.3.27-.12.08-.27.14-.44.19-.17.05-.37.07-.61.07-.31,0-.59-.05-.86-.16-.26-.11-.49-.28-.69-.49-.19-.22-.35-.49-.46-.8-.11-.31-.16-.67-.16-1.08v-.18c0-.4.06-.76.17-1.07.12-.31.28-.58.48-.79.21-.22.44-.39.71-.5.27-.11.56-.17.86-.17.4,0,.72.08.95.23.23.15.42.36.55.63h.18v-.72h1.26v6.18c0,.23-.07.41-.22.56-.14.15-.32.22-.55.22h-3.34v-1.2h2.58c.18,0,.27-.1.27-.3v-1.22ZM86.62,84.77c.39,0,.71-.12.95-.37.25-.25.37-.58.37-.99v-.12c0-.41-.12-.73-.37-.98-.24-.25-.56-.38-.95-.38s-.71.12-.96.37c-.24.24-.36.57-.36.99v.12c0,.42.12.75.36,1,.25.24.57.36.96.36ZM90.29,80.87h2.1v.72h.18c.09-.27.25-.48.47-.63.23-.15.5-.23.81-.23.49,0,.89.16,1.19.47.3.31.45.78.45,1.41v.22l-1.3.12v-.14c0-.27-.07-.49-.21-.65-.14-.17-.35-.25-.63-.25s-.5.1-.66.29c-.16.19-.24.47-.24.83v1.6h1.14v1.2h-3.42v-1.2h1.02v-2.56h-.9v-1.2ZM99.86,85.11c-.13.31-.32.54-.56.67-.24.13-.52.19-.84.19-.3,0-.58-.06-.85-.17-.26-.11-.49-.28-.69-.5-.2-.22-.36-.49-.48-.8-.11-.31-.17-.67-.17-1.07v-.16c0-.39.06-.75.17-1.06.11-.31.27-.58.46-.8.19-.22.42-.39.67-.5.26-.12.54-.18.83-.18.35,0,.64.06.85.18.22.12.39.31.52.56h.18v-.6h1.26v3.46c0,.2.09.3.27.3h.19v1.2h-.86c-.23,0-.41-.07-.56-.2-.14-.13-.21-.31-.21-.52h-.18ZM98.74,84.77c.37,0,.66-.12.88-.36.22-.25.33-.58.33-1v-.12c0-.42-.11-.75-.33-.99-.22-.25-.51-.37-.88-.37s-.66.12-.88.37c-.22.24-.33.57-.33.99v.12c0,.42.11.75.33,1,.22.24.51.36.88.36ZM102.63,80.87h1.47v-2.04h1.26v2.04h1.79v1.2h-1.79v2.26c0,.2.09.3.27.3h1.34v1.2h-2.1c-.23,0-.41-.07-.56-.22-.14-.15-.21-.33-.21-.56v-2.98h-1.47v-1.2ZM110.01,83.76c0,.15.04.28.1.41.07.12.15.23.26.32.11.09.24.16.38.21.15.05.3.07.46.07.31,0,.55-.05.72-.16.17-.11.29-.25.36-.4l1.08.6c-.06.13-.14.26-.25.4-.11.13-.25.26-.42.37-.17.11-.37.21-.62.28-.24.07-.52.11-.85.11-.37,0-.71-.06-1.02-.18-.31-.12-.57-.29-.8-.52-.22-.23-.39-.5-.52-.83-.12-.33-.18-.7-.18-1.11v-.06c0-.38.06-.73.19-1.04.13-.31.31-.58.54-.8.23-.22.49-.39.79-.51.31-.13.63-.19.98-.19.43,0,.79.08,1.1.23.31.15.56.34.76.57.2.23.35.48.44.76.09.27.14.54.14.8v.67h-3.64ZM111.2,81.87c-.32,0-.58.08-.78.25-.2.16-.33.35-.39.56h2.34c-.04-.23-.17-.43-.38-.58-.21-.15-.47-.23-.79-.23ZM118.58,85.11h-.18c-.05.11-.12.22-.2.33-.07.1-.17.19-.3.27-.12.08-.27.14-.44.19-.17.05-.37.07-.61.07-.31,0-.59-.05-.86-.16-.26-.11-.49-.28-.69-.49-.19-.22-.35-.49-.46-.8-.11-.31-.16-.67-.16-1.08v-.18c0-.4.06-.76.17-1.07.12-.31.28-.58.48-.79.21-.22.44-.39.71-.5.27-.11.56-.17.86-.17.4,0,.72.08.95.23.23.15.42.36.55.63h.18v-2.76h1.26v7h-1.26v-.72ZM117.26,84.77c.39,0,.71-.12.95-.37.25-.25.37-.58.37-.99v-.12c0-.41-.12-.73-.37-.98-.24-.25-.56-.38-.95-.38s-.71.12-.96.37c-.24.24-.36.57-.36.99v.12c0,.42.12.75.36,1,.25.24.57.36.96.36ZM128.8,78.83h2.5v4.42h1.02v1.26h-1.02v1.32h-1.32v-1.32h-3.12v-1.82l1.94-3.86ZM128.01,83.07v.18h1.98v-3.76h-.18l-1.8,3.58ZM143.07,85.11h-.18c-.05.11-.12.22-.2.33-.07.1-.17.19-.3.27-.12.08-.27.14-.44.19-.17.05-.37.07-.61.07-.31,0-.59-.05-.86-.16-.26-.11-.49-.28-.69-.49-.19-.22-.35-.49-.46-.8-.11-.31-.16-.67-.16-1.08v-.18c0-.4.06-.76.17-1.07.12-.31.28-.58.48-.79.21-.22.44-.39.71-.5.27-.11.56-.17.86-.17.4,0,.72.08.95.23.23.15.42.36.55.63h.18v-2.76h1.26v7h-1.26v-.72ZM141.75,84.77c.39,0,.71-.12.95-.37.25-.25.37-.58.37-.99v-.12c0-.41-.12-.73-.37-.98-.24-.25-.56-.38-.95-.38s-.71.12-.96.37c-.24.24-.36.57-.36.99v.12c0,.42.12.75.36,1,.25.24.57.36.96.36ZM145.72,84.63h1.68v-2.56h-1.56v-1.2h2.82v3.76h1.44v1.2h-4.38v-1.2ZM148.97,79.4c0,.13-.03.26-.08.38-.05.11-.11.21-.2.3-.09.08-.19.15-.31.2-.11.05-.23.07-.36.07s-.26-.02-.37-.07c-.11-.05-.21-.12-.3-.2-.09-.09-.16-.19-.21-.3-.05-.12-.07-.25-.07-.38s.02-.26.07-.37c.05-.12.12-.22.21-.3.09-.09.19-.15.3-.2.11-.05.24-.08.37-.08s.25.03.36.08c.12.05.22.11.31.2.09.08.15.18.2.3.05.11.08.24.08.37ZM151.72,80.87h1.41v-1.02c0-.29.1-.53.29-.72.19-.2.43-.3.72-.3h2.02v1.2h-1.5c-.18,0-.27.1-.27.3v.54h1.95v1.2h-1.95v3.76h-1.26v-3.76h-1.41v-1.2ZM157.84,80.87h1.41v-1.02c0-.29.1-.53.29-.72.19-.2.43-.3.72-.3h2.02v1.2h-1.5c-.18,0-.27.1-.27.3v.54h1.95v1.2h-1.95v3.76h-1.26v-3.76h-1.41v-1.2ZM165.11,83.76c0,.15.04.28.1.41.07.12.15.23.26.32.11.09.24.16.38.21.15.05.3.07.46.07.31,0,.55-.05.72-.16.17-.11.29-.25.36-.4l1.08.6c-.06.13-.14.26-.25.4-.11.13-.25.26-.42.37-.17.11-.37.21-.62.28-.24.07-.52.11-.85.11-.37,0-.71-.06-1.02-.18-.31-.12-.57-.29-.8-.52-.22-.23-.39-.5-.52-.83-.12-.33-.18-.7-.18-1.11v-.06c0-.38.06-.73.19-1.04.13-.31.31-.58.54-.8.23-.22.49-.39.79-.51.31-.13.63-.19.98-.19.43,0,.79.08,1.1.23.31.15.56.34.76.57.2.23.35.48.44.76.09.27.14.54.14.8v.67h-3.64ZM166.3,81.87c-.32,0-.58.08-.78.25-.2.16-.33.35-.39.56h2.34c-.04-.23-.17-.43-.38-.58-.21-.15-.47-.23-.79-.23ZM169.89,80.87h2.1v.72h.18c.09-.27.25-.48.47-.63.23-.15.5-.23.81-.23.49,0,.89.16,1.19.47.3.31.45.78.45,1.41v.22l-1.3.12v-.14c0-.27-.07-.49-.21-.65-.14-.17-.35-.25-.63-.25s-.5.1-.66.29c-.16.19-.24.47-.24.83v1.6h1.14v1.2h-3.42v-1.2h1.02v-2.56h-.9v-1.2ZM177.36,83.76c0,.15.04.28.1.41.07.12.15.23.26.32.11.09.24.16.38.21.15.05.3.07.46.07.31,0,.55-.05.72-.16.17-.11.29-.25.36-.4l1.08.6c-.06.13-.14.26-.25.4-.11.13-.25.26-.42.37-.17.11-.37.21-.62.28-.24.07-.52.11-.85.11-.37,0-.71-.06-1.02-.18-.31-.12-.57-.29-.8-.52-.22-.23-.39-.5-.52-.83-.12-.33-.18-.7-.18-1.11v-.06c0-.38.06-.73.19-1.04.13-.31.31-.58.54-.8.23-.22.49-.39.79-.51.31-.13.63-.19.98-.19.43,0,.79.08,1.1.23.31.15.56.34.76.57.2.23.35.48.44.76.09.27.14.54.14.8v.67h-3.64ZM178.55,81.87c-.32,0-.58.08-.78.25-.2.16-.33.35-.39.56h2.34c-.04-.23-.17-.43-.38-.58-.21-.15-.47-.23-.79-.23ZM183.63,85.83h-1.26v-4.96h1.26v.74h.18c.11-.28.3-.5.55-.65.25-.15.55-.23.89-.23.24,0,.46.04.67.12.21.07.4.19.56.35.16.16.28.36.37.61.09.25.14.54.14.88v3.14h-1.26v-2.82c0-.35-.09-.63-.26-.83-.17-.21-.41-.31-.73-.31-.37,0-.65.13-.84.38-.18.25-.27.58-.27,1v2.58ZM188.36,80.87h1.47v-2.04h1.26v2.04h1.79v1.2h-1.79v2.26c0,.2.09.3.27.3h1.34v1.2h-2.1c-.23,0-.41-.07-.56-.22-.14-.15-.21-.33-.21-.56v-2.98h-1.47v-1.2ZM204.21,84.33h-2.38l-.34,1.5h-1.38l1.67-7h2.48l1.67,7h-1.38l-.34-1.5ZM202.11,83.07h1.81l-.81-3.58h-.18l-.82,3.58ZM207.87,87.83h-1.26v-6.96h1.26v.72h.18c.13-.27.33-.48.58-.63.25-.15.58-.23.97-.23.29,0,.57.06.83.17.27.11.5.28.69.5.2.21.36.48.47.79.12.31.18.67.18,1.07v.18c0,.41-.06.77-.17,1.08-.11.31-.27.58-.46.8-.19.21-.42.38-.69.49-.26.11-.54.16-.85.16-.23,0-.42-.02-.59-.07-.17-.05-.31-.11-.44-.19-.12-.08-.22-.17-.31-.27-.08-.11-.15-.22-.21-.33h-.18v2.72ZM209.18,84.77c.39,0,.71-.12.95-.36.25-.25.37-.58.37-1v-.12c0-.42-.12-.75-.37-.99-.24-.25-.56-.37-.95-.37s-.71.13-.96.38c-.24.25-.36.57-.36.98v.12c0,.41.12.74.36.99.25.25.57.37.96.37ZM213.08,84.63h1.68v-2.56h-1.56v-1.2h2.82v3.76h1.44v1.2h-4.38v-1.2ZM216.33,79.4c0,.13-.03.26-.08.38-.05.11-.11.21-.2.3-.09.08-.19.15-.31.2-.11.05-.23.07-.36.07-.13,0-.26-.02-.37-.07-.11-.05-.21-.12-.3-.2-.09-.09-.16-.19-.21-.3-.05-.12-.07-.25-.07-.38s.02-.26.07-.37c.05-.12.12-.22.21-.3.09-.09.19-.15.3-.2.11-.05.24-.08.37-.08.13,0,.25.03.36.08.12.05.22.11.31.2.09.08.15.18.2.3.05.11.08.24.08.37ZM220.69,82.27c0,.16.08.28.25.35.17.07.47.12.91.17.51.05.92.21,1.24.46.32.25.48.59.48,1.04v.06c0,.49-.18.89-.54,1.18s-.87.44-1.52.44c-.39,0-.72-.05-.99-.15-.27-.1-.5-.22-.68-.37-.18-.15-.32-.32-.42-.5-.09-.19-.16-.37-.19-.54l1.16-.38c.05.21.16.4.33.56.17.16.44.24.79.24.31,0,.53-.05.64-.14.12-.1.18-.21.18-.32,0-.07-.02-.13-.05-.18-.03-.06-.08-.11-.16-.16-.08-.05-.19-.1-.33-.13-.13-.03-.3-.06-.51-.08-.56-.05-1.01-.19-1.34-.43-.33-.25-.49-.61-.49-1.08v-.06c0-.25.05-.46.16-.65.11-.19.25-.34.42-.47.17-.13.37-.23.6-.3.23-.07.46-.1.7-.1.31,0,.58.04.81.12.23.07.43.17.59.3.16.12.29.26.39.41.1.15.18.29.23.43l-1.14.46c-.06-.18-.16-.32-.31-.42-.15-.11-.34-.16-.57-.16-.21,0-.37.04-.48.12-.11.07-.16.17-.16.28ZM51.37,100.42l-.73-.73-.33-.74-.16.07.28.73v1.06h-.96v-1.06l.28-.73-.16-.07-.33.74-.73.73-.67-.67.73-.73.74-.33-.07-.16-.73.28h-1.06v-.96h1.06l.73.28.07-.16-.74-.33-.73-.73.67-.67.73.73.33.74.16-.07-.28-.73v-1.06h.96v1.06l-.28.73.16.07.33-.74.73-.73.67.67-.73.73-.74.33.07.16.73-.28h1.06v.96h-1.06l-.73-.28-.07.16.74.33.73.73-.67.67ZM59.61,97.55c0-.91.23-1.61.68-2.11.46-.5,1.09-.75,1.9-.75s1.44.25,1.89.75c.46.5.69,1.2.69,2.11v1.56c0,.93-.23,1.64-.69,2.13-.45.49-1.08.73-1.89.73s-1.44-.24-1.9-.73c-.45-.49-.68-1.2-.68-2.13v-1.56ZM62.19,100.77c.24,0,.44-.04.6-.11.16-.08.29-.19.39-.33.1-.14.17-.31.21-.5.04-.19.06-.41.06-.64v-1.72c0-.22-.02-.43-.07-.62-.05-.19-.12-.36-.22-.5-.1-.14-.23-.25-.39-.33-.16-.09-.35-.13-.58-.13s-.42.04-.58.13c-.16.08-.29.19-.39.33-.1.14-.17.31-.22.5-.05.19-.07.4-.07.62v1.72c0,.23.02.45.06.64.04.19.11.36.21.5.1.14.23.25.39.33.16.07.36.11.6.11ZM65.68,96.87h1.36l1.17,4.36h.18l1.17-4.36h1.36l-1.42,4.96h-2.4l-1.42-4.96ZM73.27,99.76c0,.15.04.28.1.41.07.12.15.23.26.32.11.09.24.16.38.21.15.05.3.07.46.07.31,0,.55-.05.72-.16.17-.11.29-.25.36-.4l1.08.6c-.06.13-.14.26-.25.4-.11.13-.25.26-.42.37-.17.11-.37.21-.62.28-.24.07-.52.11-.85.11-.37,0-.71-.06-1.02-.18-.31-.12-.57-.29-.8-.52-.22-.23-.39-.5-.52-.83-.12-.33-.18-.7-.18-1.11v-.06c0-.38.06-.73.19-1.04.13-.31.31-.58.54-.8.23-.22.49-.39.79-.51.31-.13.63-.19.98-.19.43,0,.79.08,1.1.23.31.15.56.34.76.57.2.23.35.48.44.76.09.27.14.54.14.8v.67h-3.64ZM74.46,97.87c-.32,0-.58.08-.78.25-.2.16-.33.35-.39.56h2.34c-.04-.23-.17-.43-.38-.58-.21-.15-.47-.23-.79-.23ZM78.04,96.87h2.1v.72h.18c.09-.27.25-.48.47-.63.23-.15.5-.23.81-.23.49,0,.89.16,1.19.47.3.31.45.78.45,1.41v.22l-1.3.12v-.14c0-.27-.07-.49-.21-.65-.14-.17-.35-.25-.63-.25s-.5.1-.66.29c-.16.19-.24.47-.24.83v1.6h1.14v1.2h-3.42v-1.2h1.02v-2.56h-.9v-1.2ZM95.32,100.57v1.26h-4.92v-1.38c0-.37.05-.68.16-.94.11-.26.27-.48.47-.66.21-.18.45-.33.74-.44.29-.12.61-.22.97-.3.27-.06.48-.13.65-.2.17-.08.31-.17.41-.26.1-.1.17-.21.2-.32.04-.12.06-.25.06-.4,0-.28-.1-.51-.31-.7-.2-.19-.48-.28-.84-.28-.38,0-.68.12-.91.35-.23.23-.34.54-.34.95v.44h-1.32v-.56c0-.33.06-.64.17-.93.12-.3.29-.56.5-.78.22-.23.49-.4.8-.53.31-.13.67-.2,1.06-.2.42,0,.79.06,1.1.19.31.12.57.28.78.48.21.2.37.43.47.7.11.26.16.53.16.81v.12c0,.59-.17,1.07-.5,1.46-.33.39-.86.67-1.61.84-.31.07-.57.15-.78.23-.2.07-.36.16-.47.25-.11.09-.19.2-.24.31-.04.11-.06.23-.06.37v.12h3.6ZM98.09,98.33c0-.23.08-.42.25-.59.17-.17.36-.25.59-.25s.42.08.59.25c.17.17.25.36.25.59s-.08.42-.25.59c-.17.17-.36.25-.59.25s-.42-.08-.59-.25c-.17-.17-.25-.36-.25-.59ZM96.35,97.55c0-.91.23-1.61.68-2.11.46-.5,1.09-.75,1.9-.75s1.44.25,1.89.75c.46.5.69,1.2.69,2.11v1.56c0,.93-.23,1.64-.69,2.13-.45.49-1.08.73-1.89.73s-1.44-.24-1.9-.73c-.45-.49-.68-1.2-.68-2.13v-1.56ZM98.93,100.77c.24,0,.44-.04.6-.11.16-.08.29-.19.39-.33.1-.14.17-.31.21-.5.04-.19.06-.41.06-.64v-1.72c0-.22-.02-.43-.07-.62-.05-.19-.12-.36-.22-.5-.1-.14-.23-.25-.39-.33-.16-.09-.35-.13-.58-.13s-.42.04-.58.13c-.16.08-.29.19-.39.33s-.17.31-.22.5c-.05.19-.07.4-.07.62v1.72c0,.23.02.45.06.64.04.19.11.36.21.5.1.14.23.25.39.33.16.07.36.11.6.11ZM104.21,98.33c0-.23.08-.42.25-.59.17-.17.36-.25.59-.25s.42.08.59.25c.17.17.25.36.25.59s-.08.42-.25.59c-.17.17-.36.25-.59.25s-.42-.08-.59-.25c-.17-.17-.25-.36-.25-.59ZM102.47,97.55c0-.91.23-1.61.68-2.11.46-.5,1.09-.75,1.9-.75s1.44.25,1.89.75c.46.5.69,1.2.69,2.11v1.56c0,.93-.23,1.64-.69,2.13-.45.49-1.08.73-1.89.73s-1.44-.24-1.9-.73c-.45-.49-.68-1.2-.68-2.13v-1.56ZM105.05,100.77c.24,0,.44-.04.6-.11.16-.08.29-.19.39-.33s.17-.31.21-.5c.04-.19.06-.41.06-.64v-1.72c0-.22-.02-.43-.07-.62-.05-.19-.12-.36-.22-.5-.1-.14-.23-.25-.39-.33-.16-.09-.35-.13-.58-.13s-.42.04-.58.13c-.16.08-.29.19-.39.33s-.17.31-.22.5c-.05.19-.07.4-.07.62v1.72c0,.23.02.45.06.64.04.19.11.36.21.5.1.14.23.25.39.33.16.07.36.11.6.11ZM118.58,101.11h-.18c-.05.11-.12.22-.2.33-.07.1-.17.19-.3.27-.12.08-.27.14-.44.19-.17.05-.37.07-.61.07-.31,0-.59-.05-.86-.16-.26-.11-.49-.28-.69-.49-.19-.22-.35-.49-.46-.8-.11-.31-.16-.67-.16-1.08v-.18c0-.4.06-.76.17-1.07.12-.31.28-.58.48-.79.21-.22.44-.39.71-.5.27-.11.56-.17.86-.17.4,0,.72.08.95.23.23.15.42.36.55.63h.18v-2.76h1.26v7h-1.26v-.72ZM117.26,100.77c.39,0,.71-.12.95-.37.25-.25.37-.58.37-.99v-.12c0-.41-.12-.73-.37-.98-.24-.25-.56-.38-.95-.38s-.71.12-.96.37c-.24.24-.36.57-.36.99v.12c0,.42.12.75.36,1,.25.24.57.36.96.36ZM121.23,100.63h1.68v-2.56h-1.56v-1.2h2.82v3.76h1.44v1.2h-4.38v-1.2ZM124.48,95.4c0,.13-.03.26-.08.38-.05.11-.11.21-.2.3-.09.08-.19.15-.31.2-.11.05-.23.07-.36.07s-.26-.02-.37-.07c-.11-.05-.21-.12-.3-.2-.09-.09-.16-.19-.21-.3-.05-.12-.07-.25-.07-.38s.02-.26.07-.37c.05-.12.12-.22.21-.3.09-.09.19-.15.3-.2.11-.05.24-.08.37-.08s.25.03.36.08c.12.05.22.11.31.2.09.08.15.18.2.3.05.11.08.24.08.37ZM127.22,96.87h1.41v-1.02c0-.29.1-.53.29-.72.19-.2.43-.3.72-.3h2.02v1.2h-1.5c-.18,0-.27.1-.27.3v.54h1.95v1.2h-1.95v3.76h-1.26v-3.76h-1.41v-1.2ZM133.35,96.87h1.41v-1.02c0-.29.1-.53.29-.72.19-.2.43-.3.72-.3h2.02v1.2h-1.5c-.18,0-.27.1-.27.3v.54h1.95v1.2h-1.95v3.76h-1.26v-3.76h-1.41v-1.2ZM140.62,99.76c0,.15.04.28.1.41.07.12.15.23.26.32.11.09.24.16.38.21.15.05.3.07.46.07.31,0,.55-.05.72-.16.17-.11.29-.25.36-.4l1.08.6c-.06.13-.14.26-.25.4-.11.13-.25.26-.42.37-.17.11-.37.21-.62.28-.24.07-.52.11-.85.11-.37,0-.71-.06-1.02-.18-.31-.12-.57-.29-.8-.52-.22-.23-.39-.5-.52-.83-.12-.33-.18-.7-.18-1.11v-.06c0-.38.06-.73.19-1.04.13-.31.31-.58.54-.8.23-.22.49-.39.79-.51.31-.13.63-.19.98-.19.43,0,.79.08,1.1.23.31.15.56.34.76.57.2.23.35.48.44.76.09.27.14.54.14.8v.67h-3.64ZM141.81,97.87c-.32,0-.58.08-.78.25-.2.16-.33.35-.39.56h2.34c-.04-.23-.17-.43-.38-.58-.21-.15-.47-.23-.79-.23ZM145.39,96.87h2.1v.72h.18c.09-.27.25-.48.47-.63.23-.15.5-.23.81-.23.49,0,.89.16,1.19.47.3.31.45.78.45,1.41v.22l-1.3.12v-.14c0-.27-.07-.49-.21-.65-.14-.17-.35-.25-.63-.25s-.5.1-.66.29c-.16.19-.24.47-.24.83v1.6h1.14v1.2h-3.42v-1.2h1.02v-2.56h-.9v-1.2ZM152.87,99.76c0,.15.04.28.1.41.07.12.15.23.26.32.11.09.24.16.38.21.15.05.3.07.46.07.31,0,.55-.05.72-.16.17-.11.29-.25.36-.4l1.08.6c-.06.13-.14.26-.25.4-.11.13-.25.26-.42.37-.17.11-.37.21-.62.28-.24.07-.52.11-.85.11-.37,0-.71-.06-1.02-.18-.31-.12-.57-.29-.8-.52-.22-.23-.39-.5-.52-.83-.12-.33-.18-.7-.18-1.11v-.06c0-.38.06-.73.19-1.04.13-.31.31-.58.54-.8.23-.22.49-.39.79-.51.31-.13.63-.19.98-.19.43,0,.79.08,1.1.23.31.15.56.34.76.57.2.23.35.48.44.76.09.27.14.54.14.8v.67h-3.64ZM154.06,97.87c-.32,0-.58.08-.78.25-.2.16-.33.35-.39.56h2.34c-.04-.23-.17-.43-.38-.58-.21-.15-.47-.23-.79-.23ZM159.14,101.83h-1.26v-4.96h1.26v.74h.18c.11-.28.3-.5.55-.65.25-.15.55-.23.89-.23.24,0,.46.04.67.12.21.07.4.19.56.35.16.16.28.36.37.61.09.25.14.54.14.88v3.14h-1.26v-2.82c0-.35-.09-.63-.26-.83-.17-.21-.41-.31-.73-.31-.37,0-.65.13-.84.38-.18.25-.27.58-.27,1v2.58ZM163.86,96.87h1.47v-2.04h1.26v2.04h1.79v1.2h-1.79v2.26c0,.2.09.3.27.3h1.34v1.2h-2.1c-.23,0-.41-.07-.56-.22-.14-.15-.21-.33-.21-.56v-2.98h-1.47v-1.2ZM181.09,100.01c-.11.59-.38,1.06-.81,1.42-.42.36-.98.54-1.69.54-.37,0-.71-.06-1.03-.17-.31-.11-.59-.28-.82-.49-.23-.21-.42-.48-.55-.79-.13-.31-.2-.67-.2-1.07v-.12c0-.4.07-.76.2-1.08.13-.32.32-.59.55-.82.24-.23.52-.4.83-.52.32-.12.66-.18,1.02-.18.69,0,1.25.18,1.68.54.43.36.71.83.82,1.42l-1.24.32c-.04-.29-.17-.55-.38-.76-.21-.21-.51-.32-.9-.32-.18,0-.35.03-.51.1-.16.07-.3.16-.42.29-.12.12-.22.27-.29.45-.07.17-.1.37-.1.59v.06c0,.22.03.42.1.59.07.17.17.31.29.42.12.11.26.2.42.26.16.05.33.08.51.08.39,0,.68-.1.88-.29.21-.19.34-.45.4-.78l1.24.31ZM187.23,99.41c0,.41-.07.78-.21,1.1-.14.31-.33.58-.57.8-.24.21-.52.38-.83.49-.31.11-.63.17-.97.17s-.67-.06-.98-.17c-.31-.11-.58-.28-.82-.49-.24-.22-.43-.49-.57-.8-.14-.32-.21-.69-.21-1.1v-.12c0-.41.07-.77.21-1.08.14-.32.33-.59.57-.81.24-.22.51-.39.82-.5.31-.11.64-.17.98-.17s.66.06.97.17c.31.11.59.28.83.5.24.22.43.49.57.81.14.31.21.67.21,1.08v.12ZM184.65,100.77c.18,0,.35-.03.51-.09.16-.06.3-.15.42-.26.12-.11.21-.25.28-.41.07-.17.11-.35.11-.56v-.2c0-.21-.04-.39-.11-.55-.07-.17-.16-.31-.28-.42-.12-.11-.26-.2-.42-.26-.16-.06-.33-.09-.51-.09s-.35.03-.51.09c-.16.06-.3.15-.42.26-.12.11-.22.25-.29.42-.07.16-.1.34-.1.55v.2c0,.21.03.39.1.56.07.16.17.3.29.41.12.11.26.2.42.26.16.06.33.09.51.09ZM193.48,101.83h-1.26v-3.48c0-.14-.04-.24-.11-.31-.07-.07-.16-.11-.27-.11-.13,0-.24.04-.32.12-.07.08-.11.2-.11.36v3.42h-1.26v-3.48c0-.14-.04-.24-.12-.31-.07-.07-.16-.11-.27-.11-.12,0-.22.04-.3.12-.08.08-.12.2-.12.36v3.42h-1.26v-4.96h1.26v.48h.18c.04-.18.13-.33.27-.44.15-.12.34-.18.57-.18.22,0,.41.06.56.18.15.11.26.26.31.44h.18c.05-.18.16-.33.33-.44.17-.12.39-.18.64-.18.33,0,.6.11.8.34.2.22.3.53.3.92v3.84ZM195.62,103.83h-1.26v-6.96h1.26v.72h.18c.13-.27.33-.48.58-.63.25-.15.58-.23.97-.23.29,0,.57.06.83.17.27.11.5.28.69.5.2.21.36.48.47.79.12.31.18.67.18,1.07v.18c0,.41-.06.77-.17,1.08-.11.31-.27.58-.46.8-.19.21-.42.38-.69.49-.26.11-.54.16-.85.16-.23,0-.42-.02-.59-.07-.17-.05-.31-.11-.44-.19-.12-.08-.22-.17-.31-.27-.08-.11-.15-.22-.21-.33h-.18v2.72ZM196.94,100.77c.39,0,.71-.12.95-.36.25-.25.37-.58.37-1v-.12c0-.42-.12-.75-.37-.99-.24-.25-.56-.37-.95-.37s-.71.13-.96.38c-.24.25-.36.57-.36.98v.12c0,.41.12.74.36.99.25.25.57.37.96.37ZM205.6,99.41c0,.41-.07.78-.21,1.1-.14.31-.33.58-.57.8-.24.21-.52.38-.83.49-.31.11-.63.17-.97.17s-.67-.06-.98-.17c-.31-.11-.58-.28-.82-.49-.24-.22-.43-.49-.57-.8-.14-.32-.21-.69-.21-1.1v-.12c0-.41.07-.77.21-1.08.14-.32.33-.59.57-.81.24-.22.51-.39.82-.5.31-.11.64-.17.98-.17s.66.06.97.17c.31.11.59.28.83.5.24.22.43.49.57.81.14.31.21.67.21,1.08v.12ZM203.02,100.77c.18,0,.35-.03.51-.09.16-.06.3-.15.42-.26.12-.11.21-.25.28-.41.07-.17.11-.35.11-.56v-.2c0-.21-.04-.39-.11-.55-.07-.17-.16-.31-.28-.42-.12-.11-.26-.2-.42-.26s-.33-.09-.51-.09-.35.03-.51.09c-.16.06-.3.15-.42.26-.12.11-.22.25-.29.42-.07.16-.1.34-.1.55v.2c0,.21.03.39.1.56.07.16.17.3.29.41.12.11.26.2.42.26.16.06.33.09.51.09ZM208.12,101.83h-1.26v-4.96h1.26v.74h.18c.11-.28.3-.5.55-.65.25-.15.55-.23.89-.23.24,0,.46.04.67.12.21.07.4.19.56.35.16.16.28.36.37.61.09.25.14.54.14.88v3.14h-1.26v-2.82c0-.35-.09-.63-.26-.83-.17-.21-.41-.31-.73-.31-.37,0-.65.13-.84.38-.18.25-.27.58-.27,1v2.58ZM214.1,99.76c0,.15.04.28.1.41.07.12.15.23.26.32.11.09.24.16.38.21.15.05.3.07.46.07.31,0,.55-.05.72-.16.17-.11.29-.25.36-.4l1.08.6c-.06.13-.14.26-.25.4-.11.13-.25.26-.42.37-.17.11-.37.21-.62.28-.24.07-.52.11-.85.11-.37,0-.71-.06-1.02-.18-.31-.12-.57-.29-.8-.52-.22-.23-.39-.5-.52-.83-.12-.33-.18-.7-.18-1.11v-.06c0-.38.06-.73.19-1.04.13-.31.31-.58.54-.8.23-.22.49-.39.79-.51.31-.13.63-.19.98-.19.43,0,.79.08,1.1.23.31.15.56.34.76.57.2.23.35.48.44.76.09.27.14.54.14.8v.67h-3.64ZM215.29,97.87c-.32,0-.58.08-.78.25-.2.16-.33.35-.39.56h2.34c-.04-.23-.17-.43-.38-.58-.21-.15-.47-.23-.79-.23ZM220.37,101.83h-1.26v-4.96h1.26v.74h.18c.11-.28.3-.5.55-.65.25-.15.55-.23.89-.23.24,0,.46.04.67.12.21.07.4.19.56.35.16.16.28.36.37.61.09.25.14.54.14.88v3.14h-1.26v-2.82c0-.35-.09-.63-.26-.83-.17-.21-.41-.31-.73-.31-.37,0-.65.13-.84.38-.18.25-.27.58-.27,1v2.58ZM225.09,96.87h1.47v-2.04h1.26v2.04h1.79v1.2h-1.79v2.26c0,.2.09.3.27.3h1.34v1.2h-2.1c-.23,0-.41-.07-.56-.22-.14-.15-.21-.33-.21-.56v-2.98h-1.47v-1.2ZM232.94,98.27c0,.16.08.28.25.35.17.07.47.12.91.17.51.05.92.21,1.24.46.32.25.48.59.48,1.04v.06c0,.49-.18.89-.54,1.18-.36.29-.87.44-1.52.44-.39,0-.72-.05-.99-.15-.27-.1-.5-.22-.68-.37-.18-.15-.32-.32-.42-.5-.09-.19-.16-.37-.19-.54l1.16-.38c.05.21.16.4.33.56.17.16.44.24.79.24.31,0,.53-.05.64-.14.12-.1.18-.21.18-.32,0-.07-.02-.13-.05-.18-.03-.06-.08-.11-.16-.16-.08-.05-.19-.1-.33-.13-.13-.03-.3-.06-.51-.08-.56-.05-1.01-.19-1.34-.43-.33-.25-.49-.61-.49-1.08v-.06c0-.25.05-.46.16-.65.11-.19.25-.34.42-.47.17-.13.37-.23.6-.3.23-.07.46-.1.7-.1.31,0,.58.04.81.12.23.07.43.17.59.3.16.12.29.26.39.41.1.15.18.29.23.43l-1.14.46c-.06-.18-.16-.32-.31-.42-.15-.11-.34-.16-.57-.16-.21,0-.37.04-.48.12-.11.07-.16.17-.16.28ZM51.37,116.42l-.73-.73-.33-.74-.16.07.28.73v1.06h-.96v-1.06l.28-.73-.16-.07-.33.74-.73.73-.67-.67.73-.73.74-.33-.07-.16-.73.28h-1.06v-.96h1.06l.73.28.07-.16-.74-.33-.73-.73.67-.67.73.73.33.74.16-.07-.28-.73v-1.06h.96v1.06l-.28.73.16.07.33-.74.73-.73.67.67-.73.73-.74.33.07.16.73-.28h1.06v.96h-1.06l-.73-.28-.07.16.74.33.73.73-.67.67ZM64.56,117.83h-1.32v-2.1c0-.16-.04-.29-.13-.39-.08-.1-.22-.15-.41-.15h-1.52v2.64h-1.32v-7h2.68c.36,0,.68.05.95.15s.5.24.68.42c.19.17.33.38.42.61.1.23.15.48.15.75v.24c0,.29-.08.56-.23.81-.15.25-.39.44-.71.57v.18c.23.03.42.12.55.27.14.15.21.35.21.58v2.42ZM61.18,113.93h1.26c.32,0,.56-.07.73-.22.17-.15.25-.37.25-.64v-.12c0-.23-.08-.43-.25-.6-.17-.17-.41-.26-.73-.26h-1.26v1.84ZM67.14,115.76c0,.15.04.28.1.41.07.12.15.23.26.32.11.09.24.16.38.21.15.05.3.07.46.07.31,0,.55-.05.72-.16.17-.11.29-.25.36-.4l1.08.6c-.06.13-.14.26-.25.4-.11.13-.25.26-.42.37-.17.11-.37.21-.62.28-.24.07-.52.11-.85.11-.37,0-.71-.06-1.02-.18-.31-.12-.57-.29-.8-.52-.22-.23-.39-.5-.52-.83-.12-.33-.18-.7-.18-1.11v-.06c0-.38.06-.73.19-1.04.13-.31.31-.58.54-.8.23-.22.49-.39.79-.51.31-.13.63-.19.98-.19.43,0,.79.08,1.1.23.31.15.56.34.76.57.2.23.35.48.44.76.09.27.14.54.14.8v.67h-3.64ZM68.33,113.87c-.32,0-.58.08-.78.25-.2.16-.33.35-.39.56h2.34c-.04-.23-.17-.43-.38-.58-.21-.15-.47-.23-.79-.23ZM75.37,117.11c-.13.31-.32.54-.56.67-.24.13-.52.19-.84.19-.3,0-.58-.06-.85-.17-.26-.11-.49-.28-.69-.5-.2-.22-.36-.49-.48-.8-.11-.31-.17-.67-.17-1.07v-.16c0-.39.06-.75.17-1.06.11-.31.27-.58.46-.8s.42-.39.67-.5c.26-.12.54-.18.83-.18.35,0,.64.06.85.18.22.12.39.31.52.56h.18v-.6h1.26v3.46c0,.2.09.3.27.3h.19v1.2h-.86c-.23,0-.41-.07-.56-.2-.14-.13-.21-.31-.21-.52h-.18ZM74.25,116.77c.37,0,.66-.12.88-.36.22-.25.33-.58.33-1v-.12c0-.42-.11-.75-.33-.99-.22-.25-.51-.37-.88-.37s-.66.12-.88.37c-.22.24-.33.57-.33.99v.12c0,.42.11.75.33,1,.22.24.51.36.88.36ZM83.12,116.01c-.11.59-.38,1.06-.81,1.42-.42.36-.98.54-1.69.54-.37,0-.71-.06-1.03-.17-.31-.11-.59-.28-.82-.49-.23-.21-.42-.48-.55-.79-.13-.31-.2-.67-.2-1.07v-.12c0-.4.07-.76.2-1.08.13-.32.32-.59.55-.82.24-.23.52-.4.83-.52.32-.12.66-.18,1.02-.18.69,0,1.25.18,1.68.54.43.36.71.83.82,1.42l-1.24.32c-.04-.29-.17-.55-.38-.76-.21-.21-.51-.32-.9-.32-.18,0-.35.03-.51.1-.16.07-.3.16-.42.29-.12.12-.22.27-.29.45-.07.17-.1.37-.1.59v.06c0,.22.03.42.1.59.07.17.17.31.29.42.12.11.26.2.42.26.16.05.33.08.51.08.39,0,.68-.1.88-.29.21-.19.34-.45.4-.78l1.24.31ZM84.26,112.87h1.47v-2.04h1.26v2.04h1.79v1.2h-1.79v2.26c0,.2.09.3.27.3h1.34v1.2h-2.1c-.23,0-.41-.07-.56-.22-.14-.15-.21-.33-.21-.56v-2.98h-1.47v-1.2ZM91.86,117.02c0-.13.02-.25.07-.36.05-.12.12-.22.21-.3.09-.09.19-.15.3-.2.11-.05.24-.08.37-.08s.25.03.36.08c.12.05.22.11.31.2.09.08.15.18.2.3.05.11.08.23.08.36v1.22c0,.25-.09.47-.26.64-.17.17-.38.26-.63.26h-.64v-.78h.48c.18,0,.27-.1.27-.3v-.12c-.05.02-.11.03-.17.03-.13,0-.26-.03-.37-.08-.11-.05-.21-.11-.3-.2-.09-.09-.16-.19-.21-.3-.05-.11-.07-.24-.07-.37ZM105.98,117.11c-.13.31-.32.54-.56.67-.24.13-.52.19-.84.19-.3,0-.58-.06-.85-.17-.26-.11-.49-.28-.69-.5s-.36-.49-.48-.8c-.11-.31-.17-.67-.17-1.07v-.16c0-.39.06-.75.17-1.06.11-.31.27-.58.46-.8s.42-.39.67-.5c.26-.12.54-.18.83-.18.35,0,.64.06.85.18.22.12.39.31.52.56h.18v-.6h1.26v3.46c0,.2.09.3.27.3h.19v1.2h-.86c-.23,0-.41-.07-.56-.2-.14-.13-.21-.31-.21-.52h-.18ZM104.86,116.77c.37,0,.66-.12.88-.36.22-.25.33-.58.33-1v-.12c0-.42-.11-.75-.33-.99-.22-.25-.51-.37-.88-.37s-.66.12-.88.37c-.22.24-.33.57-.33.99v.12c0,.42.11.75.33,1,.22.24.51.36.88.36ZM110.23,117.02c0-.13.02-.25.07-.36.05-.12.12-.22.21-.3.09-.09.19-.15.3-.2.11-.05.24-.08.37-.08s.25.03.36.08c.12.05.22.11.31.2.09.08.15.18.2.3.05.11.08.23.08.36v1.22c0,.25-.09.47-.26.64-.17.17-.38.26-.63.26h-.64v-.78h.48c.18,0,.27-.1.27-.3v-.12c-.05.02-.11.03-.17.03-.13,0-.26-.03-.37-.08-.11-.05-.21-.11-.3-.2-.09-.09-.16-.19-.21-.3-.05-.11-.07-.24-.07-.37ZM121.24,110.83h4.48v1.26h-3.16v1.6h3.1v1.26h-3.1v2.88h-1.32v-7ZM127.36,116.63h1.68v-2.56h-1.56v-1.2h2.82v3.76h1.44v1.2h-4.38v-1.2ZM130.6,111.4c0,.13-.03.26-.08.38-.05.11-.11.21-.2.3-.09.08-.19.15-.31.2-.11.05-.23.07-.36.07s-.26-.02-.37-.07c-.11-.05-.21-.12-.3-.2-.09-.09-.16-.19-.21-.3-.05-.12-.07-.25-.07-.38s.02-.26.07-.37c.05-.12.12-.22.21-.3.09-.09.19-.15.3-.2.11-.05.24-.08.37-.08s.25.03.36.08c.12.05.22.11.31.2.09.08.15.18.2.3.05.11.08.24.08.37ZM133.15,112.87h2.1v.72h.18c.09-.27.25-.48.47-.63.23-.15.5-.23.81-.23.49,0,.89.16,1.19.47.3.31.45.78.45,1.41v.22l-1.3.12v-.14c0-.27-.07-.49-.21-.65-.14-.17-.35-.25-.63-.25s-.5.1-.66.29c-.16.19-.24.47-.24.83v1.6h1.14v1.2h-3.42v-1.2h1.02v-2.56h-.9v-1.2ZM140.62,115.76c0,.15.04.28.1.41.07.12.15.23.26.32.11.09.24.16.38.21.15.05.3.07.46.07.31,0,.55-.05.72-.16.17-.11.29-.25.36-.4l1.08.6c-.06.13-.14.26-.25.4-.11.13-.25.26-.42.37-.17.11-.37.21-.62.28-.24.07-.52.11-.85.11-.37,0-.71-.06-1.02-.18-.31-.12-.57-.29-.8-.52-.22-.23-.39-.5-.52-.83-.12-.33-.18-.7-.18-1.11v-.06c0-.38.06-.73.19-1.04.13-.31.31-.58.54-.8.23-.22.49-.39.79-.51.31-.13.63-.19.98-.19.43,0,.79.08,1.1.23.31.15.56.34.76.57.2.23.35.48.44.76.09.27.14.54.14.8v.67h-3.64ZM141.81,113.87c-.32,0-.58.08-.78.25-.2.16-.33.35-.39.56h2.34c-.04-.23-.17-.43-.38-.58-.21-.15-.47-.23-.79-.23ZM146.68,117.83h-1.26v-7h1.26v2.76h.18c.13-.27.33-.48.58-.63.25-.15.58-.23.97-.23.29,0,.57.06.83.17.27.11.5.28.69.5.2.21.36.48.47.79.12.31.18.67.18,1.07v.18c0,.41-.06.77-.17,1.08-.11.31-.27.58-.46.8-.19.21-.42.38-.69.49-.26.11-.54.16-.85.16-.23,0-.42-.02-.59-.07-.17-.05-.31-.11-.44-.19-.12-.08-.22-.17-.31-.27-.08-.11-.15-.22-.21-.33h-.18v.72ZM148,116.77c.39,0,.71-.12.95-.36.25-.25.37-.58.37-1v-.12c0-.42-.12-.75-.37-.99-.24-.25-.56-.37-.95-.37s-.71.13-.96.38c-.24.25-.36.57-.36.98v.12c0,.41.12.74.36.99.25.25.57.37.96.37ZM154.97,117.11c-.13.31-.32.54-.56.67-.24.13-.52.19-.84.19-.3,0-.58-.06-.85-.17-.26-.11-.49-.28-.69-.5-.2-.22-.36-.49-.48-.8-.11-.31-.17-.67-.17-1.07v-.16c0-.39.06-.75.17-1.06.11-.31.27-.58.46-.8.19-.22.42-.39.67-.5.26-.12.54-.18.83-.18.35,0,.64.06.85.18.22.12.39.31.52.56h.18v-.6h1.26v3.46c0,.2.09.3.27.3h.19v1.2h-.86c-.23,0-.41-.07-.56-.2-.14-.13-.21-.31-.21-.52h-.18ZM153.85,116.77c.37,0,.66-.12.88-.36.22-.25.33-.58.33-1v-.12c0-.42-.11-.75-.33-.99-.22-.25-.51-.37-.88-.37s-.66.12-.88.37c-.22.24-.33.57-.33.99v.12c0,.42.11.75.33,1,.22.24.51.36.88.36ZM159.46,114.27c0,.16.08.28.25.35.17.07.47.12.91.17.51.05.92.21,1.24.46.32.25.48.59.48,1.04v.06c0,.49-.18.89-.54,1.18-.36.29-.87.44-1.52.44-.39,0-.72-.05-.99-.15-.27-.1-.5-.22-.68-.37-.18-.15-.32-.32-.42-.5-.09-.19-.16-.37-.19-.54l1.16-.38c.05.21.16.4.33.56.17.16.44.24.79.24.31,0,.53-.05.64-.14.12-.1.18-.21.18-.32,0-.07-.02-.13-.05-.18-.03-.06-.08-.11-.16-.16-.08-.05-.19-.1-.33-.13-.13-.03-.3-.06-.51-.08-.56-.05-1.01-.19-1.34-.43-.33-.25-.49-.61-.49-1.08v-.06c0-.25.05-.46.16-.65.11-.19.25-.34.42-.47.17-.13.37-.23.6-.3.23-.07.46-.1.7-.1.31,0,.58.04.81.12.23.07.43.17.59.3.16.12.29.26.39.41.1.15.18.29.23.43l-1.14.46c-.06-.18-.16-.32-.31-.42-.15-.11-.34-.16-.57-.16-.21,0-.37.04-.48.12-.11.07-.16.17-.16.28ZM165.11,115.76c0,.15.04.28.1.41.07.12.15.23.26.32.11.09.24.16.38.21.15.05.3.07.46.07.31,0,.55-.05.72-.16.17-.11.29-.25.36-.4l1.08.6c-.06.13-.14.26-.25.4-.11.13-.25.26-.42.37-.17.11-.37.21-.62.28-.24.07-.52.11-.85.11-.37,0-.71-.06-1.02-.18-.31-.12-.57-.29-.8-.52-.22-.23-.39-.5-.52-.83-.12-.33-.18-.7-.18-1.11v-.06c0-.38.06-.73.19-1.04.13-.31.31-.58.54-.8.23-.22.49-.39.79-.51.31-.13.63-.19.98-.19.43,0,.79.08,1.1.23.31.15.56.34.76.57.2.23.35.48.44.76.09.27.14.54.14.8v.67h-3.64ZM166.3,113.87c-.32,0-.58.08-.78.25-.2.16-.33.35-.39.56h2.34c-.04-.23-.17-.43-.38-.58-.21-.15-.47-.23-.79-.23ZM51.37,132.42l-.73-.73-.33-.74-.16.07.28.73v1.06h-.96v-1.06l.28-.73-.16-.07-.33.74-.73.73-.67-.67.73-.73.74-.33-.07-.16-.73.28h-1.06v-.96h1.06l.73.28.07-.16-.74-.33-.73-.73.67-.67.73.73.33.74.16-.07-.28-.73v-1.06h.96v1.06l-.28.73.16.07.33-.74.73-.73.67.67-.73.73-.74.33.07.16.73-.28h1.06v.96h-1.06l-.73-.28-.07.16.74.33.73.73-.67.67ZM60.01,126.83h4.48v1.26h-3.16v1.6h3.1v1.26h-3.1v2.88h-1.32v-7ZM69.39,128.87h1.26v4.96h-1.26v-.72h-.18c-.22.57-.69.86-1.42.86-.25,0-.48-.04-.69-.12-.21-.08-.4-.2-.56-.37-.16-.17-.29-.37-.38-.62-.09-.25-.13-.55-.13-.89v-3.1h1.26v2.84c0,.35.08.63.25.83.17.19.42.29.75.29.38,0,.66-.12.83-.36.18-.25.27-.58.27-1v-2.6ZM72.13,132.63h1.74v-4.6h-1.68v-1.2h2.94v5.8h1.62v1.2h-4.62v-1.2ZM78.25,132.63h1.74v-4.6h-1.68v-1.2h2.94v5.8h1.62v1.2h-4.62v-1.2ZM92.11,130.27c0,.16.08.28.25.35.17.07.47.12.91.17.51.05.92.21,1.24.46.32.25.48.59.48,1.04v.06c0,.49-.18.89-.54,1.18-.36.29-.87.44-1.52.44-.39,0-.72-.05-.99-.15-.27-.1-.5-.22-.68-.37-.18-.15-.32-.32-.42-.5-.09-.19-.16-.37-.19-.54l1.16-.38c.05.21.16.4.33.56.17.16.44.24.79.24.31,0,.53-.05.64-.14.12-.1.18-.21.18-.32,0-.07-.02-.13-.05-.18-.03-.06-.08-.11-.16-.16-.08-.05-.19-.1-.33-.13-.13-.03-.3-.06-.51-.08-.56-.05-1.01-.19-1.34-.43-.33-.25-.49-.61-.49-1.08v-.06c0-.25.05-.46.16-.65.11-.19.25-.34.42-.47.17-.13.37-.23.6-.3.23-.07.46-.1.7-.1.31,0,.58.04.81.12.23.07.43.17.59.3.16.12.29.26.39.41.1.15.18.29.23.43l-1.14.46c-.06-.18-.16-.32-.31-.42-.15-.11-.34-.16-.57-.16-.21,0-.37.04-.48.12-.11.07-.16.17-.16.28ZM96.51,128.87h1.47v-2.04h1.26v2.04h1.79v1.2h-1.79v2.26c0,.2.09.3.27.3h1.34v1.2h-2.1c-.23,0-.41-.07-.56-.22-.14-.15-.21-.33-.21-.56v-2.98h-1.47v-1.2ZM107.63,131.41c0,.41-.07.78-.21,1.1-.14.31-.33.58-.57.8-.24.21-.52.38-.83.49-.31.11-.63.17-.97.17s-.67-.06-.98-.17c-.31-.11-.58-.28-.82-.49-.24-.22-.43-.49-.57-.8-.14-.32-.21-.69-.21-1.1v-.12c0-.41.07-.77.21-1.08.14-.32.33-.59.57-.81s.51-.39.82-.5c.31-.11.64-.17.98-.17s.66.06.97.17c.31.11.59.28.83.5.24.22.43.49.57.81.14.31.21.67.21,1.08v.12ZM105.05,132.77c.18,0,.35-.03.51-.09.16-.06.3-.15.42-.26.12-.11.21-.25.28-.41.07-.17.11-.35.11-.56v-.2c0-.21-.04-.39-.11-.55-.07-.17-.16-.31-.28-.42-.12-.11-.26-.2-.42-.26-.16-.06-.33-.09-.51-.09s-.35.03-.51.09c-.16.06-.3.15-.42.26-.12.11-.22.25-.29.42-.07.16-.1.34-.1.55v.2c0,.21.03.39.1.56.07.16.17.3.29.41.12.11.26.2.42.26.16.06.33.09.51.09ZM108.66,128.87h2.1v.72h.18c.09-.27.25-.48.47-.63.23-.15.5-.23.81-.23.49,0,.89.16,1.19.47.3.31.45.78.45,1.41v.22l-1.3.12v-.14c0-.27-.07-.49-.21-.65-.14-.17-.35-.25-.63-.25s-.5.1-.66.29c-.16.19-.24.47-.24.83v1.6h1.14v1.2h-3.42v-1.2h1.02v-2.56h-.9v-1.2ZM118.38,128.87h1.26v6.18c0,.23-.07.41-.22.56-.14.15-.32.22-.55.22h-2.95v-1.2h2.19c.18,0,.27-.1.27-.3v-1.22h-.18c-.22.57-.69.86-1.42.86-.25,0-.48-.04-.69-.12-.21-.08-.4-.2-.56-.37-.16-.17-.29-.37-.38-.62-.09-.25-.13-.55-.13-.89v-3.1h1.26v2.84c0,.35.08.63.25.83.17.19.42.29.75.29.38,0,.66-.12.83-.36.18-.25.27-.58.27-1v-2.6ZM122.19,133.83h-1.26v-7h1.26v2.76h.18c.13-.27.33-.48.58-.63.25-.15.58-.23.97-.23.29,0,.57.06.83.17.27.11.5.28.69.5.2.21.36.48.47.79.12.31.18.67.18,1.07v.18c0,.41-.06.77-.17,1.08-.11.31-.27.58-.46.8-.19.21-.42.38-.69.49-.26.11-.54.16-.85.16-.23,0-.42-.02-.59-.07-.17-.05-.31-.11-.44-.19-.12-.08-.22-.17-.31-.27-.08-.11-.15-.22-.21-.33h-.18v.72ZM123.51,132.77c.39,0,.71-.12.95-.36.25-.25.37-.58.37-1v-.12c0-.42-.12-.75-.37-.99-.24-.25-.56-.37-.95-.37s-.71.13-.96.38c-.24.25-.36.57-.36.98v.12c0,.41.12.74.36.99.25.25.57.37.96.37ZM132.12,131.41c0,.41-.07.78-.21,1.1-.14.31-.33.58-.57.8-.24.21-.52.38-.83.49-.31.11-.63.17-.97.17s-.67-.06-.98-.17c-.31-.11-.58-.28-.82-.49-.24-.22-.43-.49-.57-.8-.14-.32-.21-.69-.21-1.1v-.12c0-.41.07-.77.21-1.08.14-.32.33-.59.57-.81.24-.22.51-.39.82-.5.31-.11.64-.17.98-.17s.66.06.97.17c.31.11.59.28.83.5s.43.49.57.81c.14.31.21.67.21,1.08v.12ZM129.54,132.77c.18,0,.35-.03.51-.09.16-.06.3-.15.42-.26.12-.11.21-.25.28-.41.07-.17.11-.35.11-.56v-.2c0-.21-.04-.39-.11-.55-.07-.17-.16-.31-.28-.42-.12-.11-.26-.2-.42-.26-.16-.06-.33-.09-.51-.09s-.35.03-.51.09-.3.15-.42.26c-.12.11-.22.25-.29.42-.07.16-.1.34-.1.55v.2c0,.21.03.39.1.56.07.16.17.3.29.41.12.11.26.2.42.26s.33.09.51.09ZM138.25,131.41c0,.41-.07.78-.21,1.1-.14.31-.33.58-.57.8-.24.21-.52.38-.83.49-.31.11-.63.17-.97.17s-.67-.06-.98-.17c-.31-.11-.58-.28-.82-.49-.24-.22-.43-.49-.57-.8-.14-.32-.21-.69-.21-1.1v-.12c0-.41.07-.77.21-1.08.14-.32.33-.59.57-.81.24-.22.51-.39.82-.5.31-.11.64-.17.98-.17s.66.06.97.17c.31.11.59.28.83.5.24.22.43.49.57.81.14.31.21.67.21,1.08v.12ZM135.67,132.77c.18,0,.35-.03.51-.09.16-.06.3-.15.42-.26.12-.11.21-.25.28-.41.07-.17.11-.35.11-.56v-.2c0-.21-.04-.39-.11-.55-.07-.17-.16-.31-.28-.42-.12-.11-.26-.2-.42-.26-.16-.06-.33-.09-.51-.09s-.35.03-.51.09c-.16.06-.3.15-.42.26-.12.11-.22.25-.29.42-.07.16-.1.34-.1.55v.2c0,.21.03.39.1.56.07.16.17.3.29.41.12.11.26.2.42.26.16.06.33.09.51.09ZM141.17,130.69h.24l1.32-1.82h1.38v.06l-1.6,2.27v.18l1.76,2.39v.06h-1.44l-1.42-1.94h-.24v1.94h-1.26v-7h1.26v3.86ZM153.34,130.27c0,.16.08.28.25.35.17.07.47.12.91.17.51.05.92.21,1.24.46.32.25.48.59.48,1.04v.06c0,.49-.18.89-.54,1.18-.36.29-.87.44-1.52.44-.39,0-.72-.05-.99-.15-.27-.1-.5-.22-.68-.37-.18-.15-.32-.32-.42-.5-.09-.19-.16-.37-.19-.54l1.16-.38c.05.21.16.4.33.56.17.16.44.24.79.24.31,0,.53-.05.64-.14.12-.1.18-.21.18-.32,0-.07-.02-.13-.05-.18-.03-.06-.08-.11-.16-.16-.08-.05-.19-.1-.33-.13-.13-.03-.3-.06-.51-.08-.56-.05-1.01-.19-1.34-.43-.33-.25-.49-.61-.49-1.08v-.06c0-.25.05-.46.16-.65.11-.19.25-.34.42-.47.17-.13.37-.23.6-.3.23-.07.46-.1.7-.1.31,0,.58.04.81.12.23.07.43.17.59.3.16.12.29.26.39.41.1.15.18.29.23.43l-1.14.46c-.06-.18-.16-.32-.31-.42-.15-.11-.34-.16-.57-.16-.21,0-.37.04-.48.12-.11.07-.16.17-.16.28ZM158.99,131.76c0,.15.04.28.1.41.07.12.15.23.26.32.11.09.24.16.38.21.15.05.3.07.46.07.31,0,.55-.05.72-.16.17-.11.29-.25.36-.4l1.08.6c-.06.13-.14.26-.25.4-.11.13-.25.26-.42.37-.17.11-.37.21-.62.28-.24.07-.52.11-.85.11-.37,0-.71-.06-1.02-.18-.31-.12-.57-.29-.8-.52-.22-.23-.39-.5-.52-.83-.12-.33-.18-.7-.18-1.11v-.06c0-.38.06-.73.19-1.04.13-.31.31-.58.54-.8.23-.22.49-.39.79-.51.31-.13.63-.19.98-.19.43,0,.79.08,1.1.23.31.15.56.34.76.57.2.23.35.48.44.76.09.27.14.54.14.8v.67h-3.64ZM160.18,129.87c-.32,0-.58.08-.78.25-.2.16-.33.35-.39.56h2.34c-.04-.23-.17-.43-.38-.58-.21-.15-.47-.23-.79-.23ZM163.86,128.87h1.47v-2.04h1.26v2.04h1.79v1.2h-1.79v2.26c0,.2.09.3.27.3h1.34v1.2h-2.1c-.23,0-.41-.07-.56-.22-.14-.15-.21-.33-.21-.56v-2.98h-1.47v-1.2ZM173.49,128.87h1.26v4.96h-1.26v-.72h-.18c-.22.57-.69.86-1.42.86-.25,0-.48-.04-.69-.12-.21-.08-.4-.2-.56-.37-.16-.17-.29-.37-.38-.62-.09-.25-.13-.55-.13-.89v-3.1h1.26v2.84c0,.35.08.63.25.83.17.19.42.29.75.29.38,0,.66-.12.83-.36.18-.25.27-.58.27-1v-2.6ZM177.25,135.83h-1.26v-6.96h1.26v.72h.18c.13-.27.33-.48.58-.63.25-.15.58-.23.97-.23.29,0,.57.06.83.17.27.11.5.28.69.5.2.21.36.48.47.79.12.31.18.67.18,1.07v.18c0,.41-.06.77-.17,1.08-.11.31-.27.58-.46.8-.19.21-.42.38-.69.49-.26.11-.54.16-.85.16-.23,0-.42-.02-.59-.07-.17-.05-.31-.11-.44-.19-.12-.08-.22-.17-.31-.27-.08-.11-.15-.22-.21-.33h-.18v2.72ZM178.57,132.77c.39,0,.71-.12.95-.36.25-.25.37-.58.37-1v-.12c0-.42-.12-.75-.37-.99-.24-.25-.56-.37-.95-.37s-.71.13-.96.38c-.24.25-.36.57-.36.98v.12c0,.41.12.74.36.99.25.25.57.37.96.37ZM51.37,148.42l-.73-.73-.33-.74-.16.07.28.73v1.06h-.96v-1.06l.28-.73-.16-.07-.33.74-.73.73-.67-.67.73-.73.74-.33-.07-.16-.73.28h-1.06v-.96h1.06l.73.28.07-.16-.74-.33-.73-.73.67-.67.73.73.33.74.16-.07-.28-.73v-1.06h.96v1.06l-.28.73.16.07.33-.74.73-.73.67.67-.73.73-.74.33.07.16.73-.28h1.06v.96h-1.06l-.73-.28-.07.16.74.33.73.73-.67.67ZM57,141.58l1.14.36-2.99,9.14-1.15-.36,3-9.14Z"/>
  <line class="cls-6" x1="36.76" y1="77.42" x2="36.76" y2="149.42"/>
  <path class="cls-2" d="M256.99,19.17l1.14.36-2.99,9.14-1.15-.36,3-9.14ZM263.11,19.17l1.14.36-2.99,9.14-1.15-.36,3-9.14ZM271.05,27.42h-2.3l-.32-5.32v-.96h-.24v.96l-.32,5.32h-2.3l-.24-7h1.2l.16,5.32v.9h.24v-.9l.32-5.32h2.12l.32,5.32v.9h.24v-.9l.16-5.32h1.2l-.24,7ZM273.26,25.35c0,.15.04.28.1.41.07.12.15.23.26.32.11.09.24.16.38.21.15.05.3.07.46.07.31,0,.55-.05.72-.16.17-.11.29-.25.36-.4l1.08.6c-.06.13-.14.26-.25.4-.11.13-.25.26-.42.37-.17.11-.37.21-.62.28-.24.07-.52.11-.85.11-.37,0-.71-.06-1.02-.18-.31-.12-.57-.29-.8-.52-.22-.23-.39-.5-.52-.83-.12-.33-.18-.7-.18-1.11v-.06c0-.38.06-.73.19-1.04.13-.31.31-.58.54-.8.23-.22.49-.39.79-.51.31-.13.63-.19.98-.19.43,0,.79.08,1.1.23.31.15.56.34.76.57.2.23.35.48.44.76.09.27.14.54.14.8v.67h-3.64ZM274.45,23.46c-.32,0-.58.08-.78.25-.2.16-.33.35-.39.56h2.34c-.04-.23-.17-.43-.38-.58-.21-.15-.47-.23-.79-.23ZM281.48,26.7c-.13.31-.32.54-.56.67-.24.13-.52.19-.84.19-.3,0-.58-.06-.85-.17-.26-.11-.49-.28-.69-.5-.2-.22-.36-.49-.48-.8-.11-.31-.17-.67-.17-1.07v-.16c0-.39.06-.75.17-1.06.11-.31.27-.58.46-.8.19-.22.42-.39.67-.5.26-.12.54-.18.83-.18.35,0,.64.06.85.18.22.12.39.31.52.56h.18v-.6h1.26v3.46c0,.2.09.3.27.3h.19v1.2h-.86c-.23,0-.41-.07-.56-.2-.14-.13-.21-.31-.21-.52h-.18ZM280.36,26.36c.37,0,.66-.12.88-.36.22-.25.33-.58.33-1v-.12c0-.42-.11-.75-.33-.99-.22-.25-.51-.37-.88-.37s-.66.12-.88.37c-.22.24-.33.57-.33.99v.12c0,.42.11.75.33,1,.22.24.51.36.88.36ZM284.26,22.46h1.47v-2.04h1.26v2.04h1.79v1.2h-1.79v2.26c0,.2.09.3.27.3h1.34v1.2h-2.1c-.23,0-.41-.07-.56-.22-.14-.15-.21-.33-.21-.56v-2.98h-1.47v-1.2ZM291.8,27.42h-1.26v-7h1.26v2.84h.18c.13-.3.31-.53.56-.69.25-.17.55-.25.91-.25.25,0,.47.04.68.12.21.08.39.2.54.36.15.16.27.37.36.62.09.25.13.54.13.88v3.12h-1.26v-2.82c0-.35-.09-.63-.26-.83-.17-.21-.41-.31-.73-.31-.37,0-.65.13-.84.38-.18.25-.27.58-.27,1v2.58ZM297.75,25.35c0,.15.04.28.1.41.07.12.15.23.26.32.11.09.24.16.38.21.15.05.3.07.46.07.31,0,.55-.05.72-.16.17-.11.29-.25.36-.4l1.08.6c-.06.13-.14.26-.25.4-.11.13-.25.26-.42.37-.17.11-.37.21-.62.28-.24.07-.52.11-.85.11-.37,0-.71-.06-1.02-.18-.31-.12-.57-.29-.8-.52-.22-.23-.39-.5-.52-.83-.12-.33-.18-.7-.18-1.11v-.06c0-.38.06-.73.19-1.04.13-.31.31-.58.54-.8.23-.22.49-.39.79-.51.31-.13.63-.19.98-.19.43,0,.79.08,1.1.23.31.15.56.34.76.57.2.23.35.48.44.76.09.27.14.54.14.8v.67h-3.64ZM298.94,23.46c-.32,0-.58.08-.78.25-.2.16-.33.35-.39.56h2.34c-.04-.23-.17-.43-.38-.58-.21-.15-.47-.23-.79-.23ZM302.52,22.46h2.1v.72h.18c.09-.27.25-.48.47-.63.23-.15.5-.23.81-.23.49,0,.89.16,1.19.47.3.31.45.78.45,1.41v.22l-1.3.12v-.14c0-.27-.07-.49-.21-.65-.14-.17-.35-.25-.63-.25s-.5.1-.66.29c-.16.19-.24.47-.24.83v1.6h1.14v1.2h-3.42v-1.2h1.02v-2.56h-.9v-1.2ZM318.48,25.92h-2.38l-.34,1.5h-1.38l1.67-7h2.48l1.67,7h-1.38l-.34-1.5ZM316.38,24.66h1.81l-.81-3.58h-.18l-.82,3.58ZM322.13,29.42h-1.26v-6.96h1.26v.72h.18c.13-.27.33-.48.58-.63.25-.15.58-.23.97-.23.29,0,.57.06.83.17.27.11.5.28.69.5.2.21.36.48.47.79.12.31.18.67.18,1.07v.18c0,.41-.06.77-.17,1.08-.11.31-.27.58-.46.8-.19.21-.42.38-.69.49-.26.11-.54.16-.85.16-.23,0-.42-.02-.59-.07-.17-.05-.31-.11-.44-.19-.12-.08-.22-.17-.31-.27-.08-.11-.15-.22-.21-.33h-.18v2.72ZM323.45,26.36c.39,0,.71-.12.95-.36.25-.25.37-.58.37-1v-.12c0-.42-.12-.75-.37-.99-.24-.25-.56-.37-.95-.37s-.71.13-.96.38c-.24.25-.36.57-.36.98v.12c0,.41.12.74.36.99.25.25.57.37.96.37ZM328.26,29.42h-1.26v-6.96h1.26v.72h.18c.13-.27.33-.48.58-.63.25-.15.58-.23.97-.23.29,0,.57.06.83.17.27.11.5.28.69.5.2.21.36.48.47.79.12.31.18.67.18,1.07v.18c0,.41-.06.77-.17,1.08-.11.31-.27.58-.46.8-.19.21-.42.38-.69.49-.26.11-.54.16-.85.16-.23,0-.42-.02-.59-.07-.17-.05-.31-.11-.44-.19-.12-.08-.22-.17-.31-.27-.08-.11-.15-.22-.21-.33h-.18v2.72ZM329.58,26.36c.39,0,.71-.12.95-.36.25-.25.37-.58.37-1v-.12c0-.42-.12-.75-.37-.99-.24-.25-.56-.37-.95-.37s-.71.13-.96.38c-.24.25-.36.57-.36.98v.12c0,.41.12.74.36.99.25.25.57.37.96.37Z"/>
  <rect class="cls-4" x="18.13" y="176.42" width="315.25" height="20"/>
  <path class="cls-1" d="M42.53,185.06c0-.28-.11-.52-.33-.73-.21-.21-.52-.31-.91-.31-.33,0-.6.07-.79.21-.19.13-.29.32-.29.55,0,.12.02.23.07.33.05.09.13.18.24.26.12.07.27.14.46.2.19.06.44.12.73.17.73.13,1.29.36,1.68.67.39.31.58.78.58,1.39v.12c0,.33-.06.62-.18.89-.11.26-.28.48-.5.67-.22.19-.49.33-.8.43-.31.1-.67.15-1.06.15-.46,0-.87-.06-1.22-.19-.35-.13-.64-.31-.87-.54-.23-.23-.41-.5-.53-.81-.12-.31-.18-.65-.18-1.02v-.3h1.32v.24c0,.42.12.76.36,1.01.25.25.63.37,1.14.37.4,0,.7-.09.89-.26.19-.17.29-.38.29-.62,0-.11-.02-.22-.06-.32-.04-.11-.11-.2-.21-.28-.1-.09-.24-.16-.41-.23-.17-.07-.39-.12-.66-.17-.35-.06-.68-.14-.97-.23-.29-.1-.55-.23-.77-.39-.21-.16-.38-.36-.5-.6-.12-.24-.18-.53-.18-.88v-.06c0-.29.06-.55.17-.79.12-.25.28-.46.49-.64.21-.18.47-.32.76-.42.3-.1.63-.15,1-.15.41,0,.78.06,1.1.18.32.11.59.27.8.47.22.2.38.43.49.69.11.26.17.53.17.82v.36h-1.32v-.24ZM46.29,187.85c0,.15.04.28.1.41.07.12.15.23.26.32.11.09.24.16.38.21.15.05.3.07.46.07.31,0,.55-.05.72-.16.17-.11.29-.25.36-.4l1.08.6c-.06.13-.14.26-.25.4-.11.13-.25.26-.42.37-.17.11-.37.21-.62.28-.24.07-.52.11-.85.11-.37,0-.71-.06-1.02-.18-.31-.12-.57-.29-.8-.52-.22-.23-.39-.5-.52-.83-.12-.33-.18-.7-.18-1.11v-.06c0-.38.06-.73.19-1.04.13-.31.31-.58.54-.8.23-.22.49-.39.79-.51.31-.13.63-.19.98-.19.43,0,.79.08,1.1.23.31.15.56.34.76.57.2.23.35.48.44.76.09.27.14.54.14.8v.67h-3.64ZM47.48,185.96c-.32,0-.58.08-.78.25-.2.16-.33.35-.39.56h2.34c-.04-.23-.17-.43-.38-.58-.21-.15-.47-.23-.79-.23ZM52.41,187.85c0,.15.04.28.1.41.07.12.15.23.26.32.11.09.24.16.38.21.15.05.3.07.46.07.31,0,.55-.05.72-.16.17-.11.29-.25.36-.4l1.08.6c-.06.13-.14.26-.25.4-.11.13-.25.26-.42.37-.17.11-.37.21-.62.28-.24.07-.52.11-.85.11-.37,0-.71-.06-1.02-.18-.31-.12-.57-.29-.8-.52-.22-.23-.39-.5-.52-.83-.12-.33-.18-.7-.18-1.11v-.06c0-.38.06-.73.19-1.04.13-.31.31-.58.54-.8s.49-.39.79-.51c.31-.13.63-.19.98-.19.43,0,.79.08,1.1.23.31.15.56.34.76.57.2.23.35.48.44.76.09.27.14.54.14.8v.67h-3.64ZM53.6,185.96c-.32,0-.58.08-.78.25-.2.16-.33.35-.39.56h2.34c-.04-.23-.17-.43-.38-.58-.21-.15-.47-.23-.79-.23ZM63.3,182.92h5.04v1.26h-1.86v5.74h-1.32v-5.74h-1.86v-1.26ZM70.95,189.92h-1.26v-7h1.26v2.84h.18c.13-.3.31-.53.56-.69.25-.17.55-.25.91-.25.25,0,.47.04.68.12.21.08.39.2.54.36.15.16.27.37.36.62.09.25.13.54.13.88v3.12h-1.26v-2.82c0-.35-.09-.63-.26-.83-.17-.21-.41-.31-.73-.31-.37,0-.65.13-.84.38-.18.25-.27.58-.27,1v2.58ZM76.9,187.85c0,.15.04.28.1.41.07.12.15.23.26.32.11.09.24.16.38.21.15.05.3.07.46.07.31,0,.55-.05.72-.16.17-.11.29-.25.36-.4l1.08.6c-.06.13-.14.26-.25.4-.11.13-.25.26-.42.37-.17.11-.37.21-.62.28-.24.07-.52.11-.85.11-.37,0-.71-.06-1.02-.18-.31-.12-.57-.29-.8-.52-.22-.23-.39-.5-.52-.83-.12-.33-.18-.7-.18-1.11v-.06c0-.38.06-.73.19-1.04.13-.31.31-.58.54-.8s.49-.39.79-.51c.31-.13.63-.19.98-.19.43,0,.79.08,1.1.23.31.15.56.34.76.57.2.23.35.48.44.76.09.27.14.54.14.8v.67h-3.64ZM78.09,185.96c-.32,0-.58.08-.78.25-.2.16-.33.35-.39.56h2.34c-.04-.23-.17-.43-.38-.58-.21-.15-.47-.23-.79-.23ZM89.3,187.28v2.64h-1.32v-7h2.74c.36,0,.67.06.94.18.27.11.49.27.66.46.18.19.31.4.4.65.09.24.14.49.14.74v.24c0,.26-.05.52-.14.77-.09.25-.22.47-.4.67-.17.19-.39.35-.66.47-.27.12-.58.18-.94.18h-1.42ZM89.3,186.02h1.29c.29,0,.52-.08.69-.24.17-.16.26-.37.26-.62v-.12c0-.25-.09-.46-.26-.62-.17-.16-.4-.24-.69-.24h-1.29v1.84ZM93.92,184.96h2.1v.72h.18c.09-.27.25-.48.47-.63.23-.15.5-.23.81-.23.49,0,.89.16,1.19.47.3.31.45.78.45,1.41v.22l-1.3.12v-.14c0-.27-.07-.49-.21-.65-.14-.17-.35-.25-.63-.25s-.5.1-.66.29c-.16.19-.24.47-.24.83v1.6h1.14v1.2h-3.42v-1.2h1.02v-2.56h-.9v-1.2ZM105.14,187.5c0,.41-.07.78-.21,1.1-.14.31-.33.58-.57.8-.24.21-.52.38-.83.49-.31.11-.63.17-.97.17s-.67-.06-.98-.17c-.31-.11-.58-.28-.82-.49-.24-.22-.43-.49-.57-.8-.14-.32-.21-.69-.21-1.1v-.12c0-.41.07-.77.21-1.08.14-.32.33-.59.57-.81.24-.22.51-.39.82-.5.31-.11.64-.17.98-.17s.66.06.97.17c.31.11.59.28.83.5.24.22.43.49.57.81.14.31.21.67.21,1.08v.12ZM102.56,188.86c.18,0,.35-.03.51-.09.16-.06.3-.15.42-.26.12-.11.21-.25.28-.41.07-.17.11-.35.11-.56v-.2c0-.21-.04-.39-.11-.55-.07-.17-.16-.31-.28-.42-.12-.11-.26-.2-.42-.26-.16-.06-.33-.09-.51-.09s-.35.03-.51.09c-.16.06-.3.15-.42.26-.12.11-.22.25-.29.42-.07.16-.1.34-.1.55v.2c0,.21.03.39.1.56.07.16.17.3.29.41.12.11.26.2.42.26.16.06.33.09.51.09ZM106.89,184.96h3.18v5.94c0,.35-.09.6-.28.77-.19.17-.43.25-.73.25h-2.35v-1.2h1.8c.2,0,.3-.11.3-.33v-4.23h-1.92v-1.2ZM110.37,183.49c0,.13-.03.26-.08.38-.05.11-.11.21-.2.3-.09.08-.19.15-.31.2-.11.05-.23.07-.36.07s-.26-.02-.37-.07c-.11-.05-.21-.12-.3-.2-.09-.09-.16-.19-.21-.3-.05-.12-.07-.25-.07-.38s.02-.26.07-.37c.05-.12.12-.22.21-.3.09-.09.19-.15.3-.2.11-.05.24-.08.37-.08s.25.03.36.08c.12.05.22.11.31.2.09.08.15.18.2.3.05.11.08.24.08.37ZM113.64,187.85c0,.15.04.28.1.41.07.12.15.23.26.32.11.09.24.16.38.21.15.05.3.07.46.07.31,0,.55-.05.72-.16.17-.11.29-.25.36-.4l1.08.6c-.06.13-.14.26-.25.4-.11.13-.25.26-.42.37-.17.11-.37.21-.62.28-.24.07-.52.11-.85.11-.37,0-.71-.06-1.02-.18-.31-.12-.57-.29-.8-.52-.22-.23-.39-.5-.52-.83-.12-.33-.18-.7-.18-1.11v-.06c0-.38.06-.73.19-1.04.13-.31.31-.58.54-.8.23-.22.49-.39.79-.51.31-.13.63-.19.98-.19.43,0,.79.08,1.1.23.31.15.56.34.76.57.2.23.35.48.44.76.09.27.14.54.14.8v.67h-3.64ZM114.83,185.96c-.32,0-.58.08-.78.25-.2.16-.33.35-.39.56h2.34c-.04-.23-.17-.43-.38-.58-.21-.15-.47-.23-.79-.23ZM123.49,188.1c-.11.59-.38,1.06-.81,1.42-.42.36-.98.54-1.69.54-.37,0-.71-.06-1.03-.17-.31-.11-.59-.28-.82-.49-.23-.21-.42-.48-.55-.79-.13-.31-.2-.67-.2-1.07v-.12c0-.4.07-.76.2-1.08.13-.32.32-.59.55-.82.24-.23.52-.4.83-.52.32-.12.66-.18,1.02-.18.69,0,1.25.18,1.68.54.43.36.71.83.82,1.42l-1.24.32c-.04-.29-.17-.55-.38-.76-.21-.21-.51-.32-.9-.32-.18,0-.35.03-.51.1-.16.07-.3.16-.42.29-.12.12-.22.27-.29.45-.07.17-.1.37-.1.59v.06c0,.22.03.42.1.59.07.17.17.31.29.42.12.11.26.2.42.26.16.05.33.08.51.08.39,0,.68-.1.88-.29.21-.19.34-.45.4-.78l1.24.31ZM124.64,184.96h1.47v-2.04h1.26v2.04h1.79v1.2h-1.79v2.26c0,.2.09.3.27.3h1.34v1.2h-2.1c-.23,0-.41-.07-.56-.22-.14-.15-.21-.33-.21-.56v-2.98h-1.47v-1.2Z"/>
</svg>