<?xml version="1.0" encoding="UTF-8"?>
<svg id="Layer_1" xmlns="http://www.w3.org/2000/svg" viewBox="0 0 352 235.4">
  <defs>
    <style>
      .cls-1, .cls-2 {
        fill: #fff;
      }

      .cls-3 {
        fill: #171616;
      }

      .cls-4 {
        fill: #1f9cef;
      }

      .cls-4, .cls-2 {
        isolation: isolate;
        opacity: .5;
      }

      .cls-5 {
        fill: #231f20;
        stroke: #1f9cef;
      }

      .cls-6 {
        fill: none;
        stroke: rgba(255, 255, 255, .5);
      }
    </style>
  </defs>
  <rect class="cls-5" x=".5" y=".61" width="350.51" height="234.29" rx="11.5" ry="11.5"/>
  <rect class="cls-3" x="18.17" y="39.22" width="315.16" height="175.67" rx="12" ry="12"/>
  <path class="cls-1" d="M20.17,24.76v2.64h-1.32v-7h2.74c.36,0,.67.06.94.18.27.11.49.27.66.46.18.19.31.4.4.65.09.24.14.49.14.74v.24c0,.26-.05.52-.14.77-.09.25-.22.47-.4.67-.17.19-.39.35-.66.47-.27.12-.58.18-.94.18h-1.42ZM20.17,23.5h1.29c.29,0,.52-.08.69-.24.17-.16.26-.37.26-.62v-.12c0-.25-.09-.46-.26-.62-.17-.16-.4-.24-.69-.24h-1.29v1.84ZM24.79,22.44h2.1v.72h.18c.09-.27.25-.48.47-.63.23-.15.5-.23.81-.23.49,0,.89.16,1.19.47.3.31.45.78.45,1.41v.22l-1.3.12v-.14c0-.27-.07-.49-.21-.65-.14-.17-.35-.25-.63-.25s-.5.1-.66.29c-.16.19-.24.47-.24.83v1.6h1.14v1.2h-3.42v-1.2h1.02v-2.56h-.9v-1.2ZM36.02,24.98c0,.41-.07.78-.21,1.1-.14.31-.33.58-.57.8-.24.21-.52.38-.83.49-.31.11-.63.17-.97.17s-.67-.06-.98-.17c-.31-.11-.58-.28-.82-.49-.24-.22-.43-.49-.57-.8-.14-.32-.21-.69-.21-1.1v-.12c0-.41.07-.77.21-1.08.14-.32.33-.59.57-.81s.51-.39.82-.5c.31-.11.64-.17.98-.17s.66.06.97.17c.31.11.59.28.83.5.24.22.43.49.57.81.14.31.21.67.21,1.08v.12ZM33.44,26.34c.18,0,.35-.03.51-.09.16-.06.3-.15.42-.26s.21-.25.28-.41c.07-.17.11-.35.11-.56v-.2c0-.21-.04-.39-.11-.55-.07-.17-.16-.31-.28-.42s-.26-.2-.42-.26c-.16-.06-.33-.09-.51-.09s-.35.03-.51.09c-.16.06-.3.15-.42.26s-.22.25-.29.42c-.07.16-.1.34-.1.55v.2c0,.21.03.39.1.56.07.16.17.3.29.41s.26.2.42.26c.16.06.33.09.51.09ZM37.76,22.44h3.18v5.94c0,.35-.09.6-.28.77-.19.17-.43.25-.73.25h-2.35v-1.2h1.8c.2,0,.3-.11.3-.33v-4.23h-1.92v-1.2ZM41.24,20.97c0,.13-.03.26-.08.38-.05.11-.11.21-.2.3-.09.08-.19.15-.31.2-.11.05-.23.07-.36.07-.13,0-.26-.02-.37-.07-.11-.05-.21-.12-.3-.2-.09-.09-.16-.19-.21-.3-.05-.12-.07-.25-.07-.38s.02-.26.07-.37c.05-.12.12-.22.21-.3.09-.09.19-.15.3-.2.11-.05.24-.08.37-.08s.25.03.36.08c.12.05.22.11.31.2.09.08.15.18.2.3.05.11.08.24.08.37ZM44.51,25.33c0,.15.04.28.1.41.07.12.15.23.26.32.11.09.24.16.38.21.15.05.3.07.46.07.31,0,.55-.05.72-.16.17-.11.29-.25.36-.4l1.08.6c-.06.13-.14.26-.25.4-.11.13-.25.26-.42.37-.17.11-.37.21-.62.28-.24.07-.52.11-.85.11-.37,0-.71-.06-1.02-.18-.31-.12-.57-.29-.8-.52-.22-.23-.39-.5-.52-.83-.12-.33-.18-.7-.18-1.11v-.06c0-.38.06-.73.19-1.04.13-.31.31-.58.54-.8.23-.22.49-.39.79-.51.31-.13.63-.19.98-.19.43,0,.79.08,1.1.23.31.15.56.34.76.57.2.23.35.48.44.76.09.27.14.54.14.8v.67h-3.64ZM45.7,23.44c-.32,0-.58.08-.78.25-.2.16-.33.35-.39.56h2.34c-.04-.23-.17-.43-.38-.58-.21-.15-.47-.23-.79-.23ZM54.36,25.58c-.11.59-.38,1.06-.81,1.42-.42.36-.98.54-1.69.54-.37,0-.71-.06-1.03-.17-.31-.11-.59-.28-.82-.49s-.42-.48-.55-.79c-.13-.31-.2-.67-.2-1.07v-.12c0-.4.07-.76.2-1.08.13-.32.32-.59.55-.82.24-.23.52-.4.83-.52.32-.12.66-.18,1.02-.18.69,0,1.25.18,1.68.54.43.36.71.83.82,1.42l-1.24.32c-.04-.29-.17-.55-.38-.76-.21-.21-.51-.32-.9-.32-.18,0-.35.03-.51.1s-.3.16-.42.29c-.12.12-.22.27-.29.45-.07.17-.1.37-.1.59v.06c0,.22.03.42.1.59.07.17.17.31.29.42.12.11.26.2.42.26.16.05.33.08.51.08.39,0,.68-.1.88-.29.21-.19.34-.45.4-.78l1.24.31ZM55.51,22.44h1.47v-2.04h1.26v2.04h1.79v1.2h-1.79v2.26c0,.2.09.3.27.3h1.34v1.2h-2.1c-.23,0-.41-.07-.56-.22-.14-.15-.21-.33-.21-.56v-2.98h-1.47v-1.2ZM69.43,20.4h2.5v4.42h1.02v1.26h-1.02v1.32h-1.32v-1.32h-3.12v-1.82l1.94-3.86ZM68.63,24.64v.18h1.98v-3.76h-.18l-1.8,3.58Z"/>
  <path class="cls-2" d="M38.63,61.56l1.14.36-2.99,9.14-1.15-.36,3-9.14ZM45.24,68.4l-.73-.73-.33-.74-.16.07.28.73v1.06h-.96v-1.06l.28-.73-.16-.07-.33.74-.73.73-.67-.67.73-.73.74-.33-.07-.16-.73.28h-1.06v-.96h1.06l.73.28.07-.16-.74-.33-.73-.73.67-.67.73.73.33.74.16-.07-.28-.73v-1.06h.96v1.06l-.28.73.16.07.33-.74.73-.73.67.67-.73.73-.74.33.07.16.73-.28h1.06v.96h-1.06l-.73-.28-.07.16.74.33.73.73-.67.67ZM51.37,68.4l-.73-.73-.33-.74-.16.07.28.73v1.06h-.96v-1.06l.28-.73-.16-.07-.33.74-.73.73-.67-.67.73-.73.74-.33-.07-.16-.73.28h-1.06v-.96h1.06l.73.28.07-.16-.74-.33-.73-.73.67-.67.73.73.33.74.16-.07-.28-.73v-1.06h.96v1.06l-.28.73.16.07.33-.74.73-.73.67.67-.73.73-.74.33.07.16.73-.28h1.06v.96h-1.06l-.73-.28-.07.16.74.33.73.73-.67.67ZM51.37,84.4l-.73-.73-.33-.74-.16.07.28.73v1.06h-.96v-1.06l.28-.73-.16-.07-.33.74-.73.73-.67-.67.73-.73.74-.33-.07-.16-.73.28h-1.06v-.96h1.06l.73.28.07-.16-.74-.33-.73-.73.67-.67.73.73.33.74.16-.07-.28-.73v-1.06h.96v1.06l-.28.73.16.07.33-.74.73-.73.67.67-.73.73-.74.33.07.16.73-.28h1.06v.96h-1.06l-.73-.28-.07.16.74.33.73.73-.67.67ZM63.38,84.31h-2.38l-.34,1.5h-1.38l1.67-7h2.48l1.67,7h-1.38l-.34-1.5ZM61.28,83.05h1.81l-.81-3.58h-.18l-.82,3.58ZM73.16,87.81h-1.26v-6.96h1.26v.72h.18c.13-.27.33-.48.58-.63.25-.15.58-.23.97-.23.29,0,.57.06.83.17.27.11.5.28.69.5.2.21.36.48.47.79.12.31.18.67.18,1.07v.18c0,.41-.06.77-.17,1.08-.11.31-.27.58-.46.8-.19.21-.42.38-.69.49-.26.11-.54.16-.85.16-.23,0-.42-.02-.59-.07s-.31-.11-.44-.19c-.12-.08-.22-.17-.31-.27-.08-.11-.15-.22-.21-.33h-.18v2.72ZM74.48,84.75c.39,0,.71-.12.95-.36.25-.25.37-.58.37-1v-.12c0-.42-.12-.75-.37-.99-.24-.25-.56-.37-.95-.37s-.71.13-.96.38c-.24.25-.36.57-.36.98v.12c0,.41.12.74.36.99.25.25.57.37.96.37ZM81.49,85.09c-.13.31-.32.54-.56.67-.24.13-.52.19-.84.19-.3,0-.58-.06-.85-.17-.26-.11-.49-.28-.69-.5-.2-.22-.36-.49-.48-.8-.11-.31-.17-.67-.17-1.07v-.16c0-.39.06-.75.17-1.06.11-.31.27-.58.46-.8.19-.22.42-.39.67-.5.26-.12.54-.18.83-.18.35,0,.64.06.85.18.22.12.39.31.52.56h.18v-.6h1.26v3.46c0,.2.09.3.27.3h.19v1.2h-.86c-.23,0-.41-.07-.56-.2-.14-.13-.21-.31-.21-.52h-.18ZM80.37,84.75c.37,0,.66-.12.88-.36.22-.25.33-.58.33-1v-.12c0-.42-.11-.75-.33-.99-.22-.25-.51-.37-.88-.37s-.66.12-.88.37c-.22.24-.33.57-.33.99v.12c0,.42.11.75.33,1,.22.24.51.36.88.36ZM84.37,84.61h1.74v-4.6h-1.68v-1.2h2.94v5.8h1.62v1.2h-4.62v-1.2ZM90.62,84.61h1.68v-2.56h-1.56v-1.2h2.82v3.76h1.44v1.2h-4.38v-1.2ZM93.87,79.38c0,.13-.03.26-.08.38-.05.11-.11.21-.2.3-.09.08-.19.15-.31.2-.11.05-.23.07-.36.07-.13,0-.26-.02-.37-.07-.11-.05-.21-.12-.3-.2-.09-.09-.16-.19-.21-.3-.05-.12-.07-.25-.07-.38s.02-.26.07-.37c.05-.12.12-.22.21-.3.09-.09.19-.15.3-.2.11-.05.24-.08.37-.08s.25.03.36.08c.12.05.22.11.31.2.09.08.15.18.2.3.05.11.08.24.08.37ZM97.91,85.81h-1.26v-4.96h1.26v.74h.18c.11-.28.3-.5.55-.65.25-.15.55-.23.89-.23.24,0,.46.04.67.12.21.07.4.19.56.35.16.16.28.36.37.61.09.25.14.54.14.88v3.14h-1.26v-2.82c0-.35-.09-.63-.26-.83-.17-.21-.41-.31-.73-.31-.37,0-.65.13-.84.38-.18.25-.27.58-.27,1v2.58ZM106.33,85.09h-.18c-.05.11-.12.22-.2.33-.07.1-.17.19-.3.27-.12.08-.27.14-.44.19-.17.05-.37.07-.61.07-.31,0-.59-.05-.86-.16-.26-.11-.49-.28-.69-.49-.19-.22-.35-.49-.46-.8-.11-.31-.16-.67-.16-1.08v-.18c0-.4.06-.76.17-1.07.12-.31.28-.58.48-.79.21-.22.44-.39.71-.5.27-.11.56-.17.86-.17.4,0,.72.08.95.23.23.15.42.36.55.63h.18v-2.76h1.26v7h-1.26v-.72ZM105.01,84.75c.39,0,.71-.12.95-.37.25-.25.37-.58.37-.99v-.12c0-.41-.12-.73-.37-.98-.24-.25-.56-.38-.95-.38s-.71.12-.96.37c-.24.24-.36.57-.36.99v.12c0,.42.12.75.36,1,.25.24.57.36.96.36ZM108.66,80.85h2.1v.72h.18c.09-.27.25-.48.47-.63.23-.15.5-.23.81-.23.49,0,.89.16,1.19.47.3.31.45.78.45,1.41v.22l-1.3.12v-.14c0-.27-.07-.49-.21-.65-.14-.17-.35-.25-.63-.25s-.5.1-.66.29c-.16.19-.24.47-.24.83v1.6h1.14v1.2h-3.42v-1.2h1.02v-2.56h-.9v-1.2ZM119.88,83.39c0,.41-.07.78-.21,1.1-.14.31-.33.58-.57.8-.24.21-.52.38-.83.49-.31.11-.63.17-.97.17s-.67-.06-.98-.17c-.31-.11-.58-.28-.82-.49-.24-.22-.43-.49-.57-.8-.14-.32-.21-.69-.21-1.1v-.12c0-.41.07-.77.21-1.08.14-.32.33-.59.57-.81s.51-.39.82-.5c.31-.11.64-.17.98-.17s.66.06.97.17c.31.11.59.28.83.5s.43.49.57.81c.14.31.21.67.21,1.08v.12ZM117.3,84.75c.18,0,.35-.03.51-.09.16-.06.3-.15.42-.26.12-.11.21-.25.28-.41.07-.17.11-.35.11-.56v-.2c0-.21-.04-.39-.11-.55-.07-.17-.16-.31-.28-.42-.12-.11-.26-.2-.42-.26-.16-.06-.33-.09-.51-.09s-.35.03-.51.09c-.16.06-.3.15-.42.26-.12.11-.22.25-.29.42-.07.16-.1.34-.1.55v.2c0,.21.03.39.1.56.07.16.17.3.29.41.12.11.26.2.42.26.16.06.33.09.51.09ZM126.12,85.81h-1.26v-3.48c0-.14-.04-.24-.11-.31-.07-.07-.16-.11-.27-.11-.13,0-.24.04-.32.12-.07.08-.11.2-.11.36v3.42h-1.26v-3.48c0-.14-.04-.24-.12-.31-.07-.07-.16-.11-.27-.11-.12,0-.22.04-.3.12-.08.08-.12.2-.12.36v3.42h-1.26v-4.96h1.26v.48h.18c.04-.18.13-.33.27-.44.15-.12.34-.18.57-.18.22,0,.41.06.56.18.15.11.26.26.31.44h.18c.05-.18.16-.33.33-.44.17-.12.39-.18.64-.18.33,0,.6.11.8.34.2.22.3.53.3.92v3.84ZM128.38,83.74c0,.15.04.28.1.41.07.12.15.23.26.32.11.09.24.16.38.21.15.05.3.07.46.07.31,0,.55-.05.72-.16.17-.11.29-.25.36-.4l1.08.6c-.06.13-.14.26-.25.4-.11.13-.25.26-.42.37-.17.11-.37.21-.62.28-.24.07-.52.11-.85.11-.37,0-.71-.06-1.02-.18-.31-.12-.57-.29-.8-.52-.22-.23-.39-.5-.52-.83-.12-.33-.18-.7-.18-1.11v-.06c0-.38.06-.73.19-1.04.13-.31.31-.58.54-.8s.49-.39.79-.51c.31-.13.63-.19.98-.19.43,0,.79.08,1.1.23.31.15.56.34.76.57.2.23.35.48.44.76.09.27.14.54.14.8v.67h-3.64ZM129.57,81.85c-.32,0-.58.08-.78.25-.2.16-.33.35-.39.56h2.34c-.04-.23-.17-.43-.38-.58-.21-.15-.47-.23-.79-.23ZM139.6,84.61h1.68v-2.56h-1.56v-1.2h2.82v3.76h1.44v1.2h-4.38v-1.2ZM142.85,79.38c0,.13-.03.26-.08.38-.05.11-.11.21-.2.3-.09.08-.19.15-.31.2-.11.05-.23.07-.36.07s-.26-.02-.37-.07c-.11-.05-.21-.12-.3-.2-.09-.09-.16-.19-.21-.3-.05-.12-.07-.25-.07-.38s.02-.26.07-.37c.05-.12.12-.22.21-.3.09-.09.19-.15.3-.2.11-.05.24-.08.37-.08s.25.03.36.08c.12.05.22.11.31.2.09.08.15.18.2.3.05.11.08.24.08.37ZM147.21,82.25c0,.16.08.28.25.35.17.07.47.12.91.17.51.05.92.21,1.24.46.32.25.48.59.48,1.04v.06c0,.49-.18.89-.54,1.18s-.87.44-1.52.44c-.39,0-.72-.05-.99-.15-.27-.1-.5-.22-.68-.37-.18-.15-.32-.32-.42-.5-.09-.19-.16-.37-.19-.54l1.16-.38c.05.21.16.4.33.56.17.16.44.24.79.24.31,0,.53-.05.64-.14.12-.1.18-.21.18-.32,0-.07-.02-.13-.05-.18-.03-.06-.08-.11-.16-.16-.08-.05-.19-.1-.33-.13-.13-.03-.3-.06-.51-.08-.56-.05-1.01-.19-1.34-.43-.33-.25-.49-.61-.49-1.08v-.06c0-.25.05-.46.16-.65.11-.19.25-.34.42-.47.17-.13.37-.23.6-.3.23-.07.46-.1.7-.1.31,0,.58.04.81.12.23.07.43.17.59.3.16.12.29.26.39.41.1.15.18.29.23.43l-1.14.46c-.06-.18-.16-.32-.31-.42-.15-.11-.34-.16-.57-.16-.21,0-.37.04-.48.12-.11.07-.16.17-.16.28ZM161.09,85.09c-.13.31-.32.54-.56.67-.24.13-.52.19-.84.19-.3,0-.58-.06-.85-.17-.26-.11-.49-.28-.69-.5-.2-.22-.36-.49-.48-.8-.11-.31-.17-.67-.17-1.07v-.16c0-.39.06-.75.17-1.06.11-.31.27-.58.46-.8.19-.22.42-.39.67-.5.26-.12.54-.18.83-.18.35,0,.64.06.85.18.22.12.39.31.52.56h.18v-.6h1.26v3.46c0,.2.09.3.27.3h.19v1.2h-.86c-.23,0-.41-.07-.56-.2-.14-.13-.21-.31-.21-.52h-.18ZM159.97,84.75c.37,0,.66-.12.88-.36.22-.25.33-.58.33-1v-.12c0-.42-.11-.75-.33-.99-.22-.25-.51-.37-.88-.37s-.66.12-.88.37c-.22.24-.33.57-.33.99v.12c0,.42.11.75.33,1,.22.24.51.36.88.36ZM174.99,85.81h-2.18l-.28-3.76v-.6h-.24v.6l-.28,3.76h-2.18l-.33-4.96h1.16l.22,3.76v.6h.24v-.6l.25-3.76h2.08l.25,3.76v.6h.24v-.6l.22-3.76h1.16l-.33,4.96ZM181.11,83.39c0,.41-.07.78-.21,1.1-.14.31-.33.58-.57.8-.24.21-.52.38-.83.49-.31.11-.63.17-.97.17s-.67-.06-.98-.17c-.31-.11-.58-.28-.82-.49-.24-.22-.43-.49-.57-.8-.14-.32-.21-.69-.21-1.1v-.12c0-.41.07-.77.21-1.08.14-.32.33-.59.57-.81.24-.22.51-.39.82-.5.31-.11.64-.17.98-.17s.66.06.97.17c.31.11.59.28.83.5.24.22.43.49.57.81.14.31.21.67.21,1.08v.12ZM178.53,84.75c.18,0,.35-.03.51-.09s.3-.15.42-.26c.12-.11.21-.25.28-.41.07-.17.11-.35.11-.56v-.2c0-.21-.04-.39-.11-.55-.07-.17-.16-.31-.28-.42s-.26-.2-.42-.26c-.16-.06-.33-.09-.51-.09s-.35.03-.51.09c-.16.06-.3.15-.42.26s-.22.25-.29.42c-.07.16-.1.34-.1.55v.2c0,.21.03.39.1.56.07.16.17.3.29.41.12.11.26.2.42.26s.33.09.51.09ZM182.13,80.85h2.1v.72h.18c.09-.27.25-.48.47-.63.23-.15.5-.23.81-.23.49,0,.89.16,1.19.47.3.31.45.78.45,1.41v.22l-1.3.12v-.14c0-.27-.07-.49-.21-.65-.14-.17-.35-.25-.63-.25s-.5.1-.66.29c-.16.19-.24.47-.24.83v1.6h1.14v1.2h-3.42v-1.2h1.02v-2.56h-.9v-1.2ZM192.06,85.09h-.18c-.05.11-.12.22-.2.33-.07.1-.17.19-.3.27-.12.08-.27.14-.44.19-.17.05-.37.07-.61.07-.31,0-.59-.05-.86-.16-.26-.11-.49-.28-.69-.49-.19-.22-.35-.49-.46-.8-.11-.31-.16-.67-.16-1.08v-.18c0-.4.06-.76.17-1.07.12-.31.28-.58.48-.79.21-.22.44-.39.71-.5.27-.11.56-.17.86-.17.4,0,.72.08.95.23.23.15.42.36.55.63h.18v-2.76h1.26v7h-1.26v-.72ZM190.74,84.75c.39,0,.71-.12.95-.37.25-.25.37-.58.37-.99v-.12c0-.41-.12-.73-.37-.98-.24-.25-.56-.38-.95-.38s-.71.12-.96.37c-.24.24-.36.57-.36.99v.12c0,.42.12.75.36,1,.25.24.57.36.96.36ZM205.6,83.39c0,.41-.07.78-.21,1.1-.14.31-.33.58-.57.8-.24.21-.52.38-.83.49-.31.11-.63.17-.97.17s-.67-.06-.98-.17c-.31-.11-.58-.28-.82-.49-.24-.22-.43-.49-.57-.8-.14-.32-.21-.69-.21-1.1v-.12c0-.41.07-.77.21-1.08.14-.32.33-.59.57-.81s.51-.39.82-.5c.31-.11.64-.17.98-.17s.66.06.97.17c.31.11.59.28.83.5.24.22.43.49.57.81.14.31.21.67.21,1.08v.12ZM203.02,84.75c.18,0,.35-.03.51-.09s.3-.15.42-.26c.12-.11.21-.25.28-.41.07-.17.11-.35.11-.56v-.2c0-.21-.04-.39-.11-.55-.07-.17-.16-.31-.28-.42-.12-.11-.26-.2-.42-.26-.16-.06-.33-.09-.51-.09s-.35.03-.51.09c-.16.06-.3.15-.42.26-.12.11-.22.25-.29.42-.07.16-.1.34-.1.55v.2c0,.21.03.39.1.56.07.16.17.3.29.41.12.11.26.2.42.26.16.06.33.09.51.09ZM206.62,80.85h2.1v.72h.18c.09-.27.25-.48.47-.63.23-.15.5-.23.81-.23.49,0,.89.16,1.19.47.3.31.45.78.45,1.41v.22l-1.3.12v-.14c0-.27-.07-.49-.21-.65-.14-.17-.35-.25-.63-.25s-.5.1-.66.29c-.16.19-.24.47-.24.83v1.6h1.14v1.2h-3.42v-1.2h1.02v-2.56h-.9v-1.2ZM220.69,82.25c0,.16.08.28.25.35.17.07.47.12.91.17.51.05.92.21,1.24.46.32.25.48.59.48,1.04v.06c0,.49-.18.89-.54,1.18s-.87.44-1.52.44c-.39,0-.72-.05-.99-.15-.27-.1-.5-.22-.68-.37-.18-.15-.32-.32-.42-.5-.09-.19-.16-.37-.19-.54l1.16-.38c.05.21.16.4.33.56.17.16.44.24.79.24.31,0,.53-.05.64-.14.12-.1.18-.21.18-.32,0-.07-.02-.13-.05-.18-.03-.06-.08-.11-.16-.16-.08-.05-.19-.1-.33-.13-.13-.03-.3-.06-.51-.08-.56-.05-1.01-.19-1.34-.43-.33-.25-.49-.61-.49-1.08v-.06c0-.25.05-.46.16-.65.11-.19.25-.34.42-.47.17-.13.37-.23.6-.3.23-.07.46-.1.7-.1.31,0,.58.04.81.12.23.07.43.17.59.3.16.12.29.26.39.41.1.15.18.29.23.43l-1.14.46c-.06-.18-.16-.32-.31-.42-.15-.11-.34-.16-.57-.16-.21,0-.37.04-.48.12-.11.07-.16.17-.16.28ZM226.34,83.74c0,.15.04.28.1.41.07.12.15.23.26.32.11.09.24.16.38.21.15.05.3.07.46.07.31,0,.55-.05.72-.16.17-.11.29-.25.36-.4l1.08.6c-.06.13-.14.26-.25.4-.11.13-.25.26-.42.37-.17.11-.37.21-.62.28-.24.07-.52.11-.85.11-.37,0-.71-.06-1.02-.18-.31-.12-.57-.29-.8-.52-.22-.23-.39-.5-.52-.83-.12-.33-.18-.7-.18-1.11v-.06c0-.38.06-.73.19-1.04.13-.31.31-.58.54-.8s.49-.39.79-.51c.31-.13.63-.19.98-.19.43,0,.79.08,1.1.23.31.15.56.34.76.57.2.23.35.48.44.76.09.27.14.54.14.8v.67h-3.64ZM227.53,81.85c-.32,0-.58.08-.78.25-.2.16-.33.35-.39.56h2.34c-.04-.23-.17-.43-.38-.58-.21-.15-.47-.23-.79-.23ZM232.62,85.81h-1.26v-4.96h1.26v.74h.18c.11-.28.3-.5.55-.65s.55-.23.89-.23c.24,0,.46.04.67.12.21.07.4.19.56.35.16.16.28.36.37.61.09.25.14.54.14.88v3.14h-1.26v-2.82c0-.35-.09-.63-.26-.83-.17-.21-.41-.31-.73-.31-.37,0-.65.13-.84.38-.18.25-.27.58-.27,1v2.58ZM237.34,80.85h1.47v-2.04h1.26v2.04h1.79v1.2h-1.79v2.26c0,.2.09.3.27.3h1.34v1.2h-2.1c-.23,0-.41-.07-.56-.22-.14-.15-.21-.33-.21-.56v-2.98h-1.47v-1.2ZM244.71,83.74c0,.15.04.28.1.41.07.12.15.23.26.32.11.09.24.16.38.21.15.05.3.07.46.07.31,0,.55-.05.72-.16.17-.11.29-.25.36-.4l1.08.6c-.06.13-.14.26-.25.4-.11.13-.25.26-.42.37-.17.11-.37.21-.62.28-.24.07-.52.11-.85.11-.37,0-.71-.06-1.02-.18-.31-.12-.57-.29-.8-.52-.22-.23-.39-.5-.52-.83-.12-.33-.18-.7-.18-1.11v-.06c0-.38.06-.73.19-1.04.13-.31.31-.58.54-.8.23-.22.49-.39.79-.51.31-.13.63-.19.98-.19.43,0,.79.08,1.1.23.31.15.56.34.76.57.2.23.35.48.44.76.09.27.14.54.14.8v.67h-3.64ZM245.9,81.85c-.32,0-.58.08-.78.25-.2.16-.33.35-.39.56h2.34c-.04-.23-.17-.43-.38-.58-.21-.15-.47-.23-.79-.23ZM250.99,85.81h-1.26v-4.96h1.26v.74h.18c.11-.28.3-.5.55-.65.25-.15.55-.23.89-.23.24,0,.46.04.67.12.21.07.4.19.56.35.16.16.28.36.37.61.09.25.14.54.14.88v3.14h-1.26v-2.82c0-.35-.09-.63-.26-.83-.17-.21-.41-.31-.73-.31-.37,0-.65.13-.84.38-.18.25-.27.58-.27,1v2.58ZM260.69,83.99c-.11.59-.38,1.06-.81,1.42-.42.36-.98.54-1.69.54-.37,0-.71-.06-1.03-.17-.31-.11-.59-.28-.82-.49-.23-.21-.42-.48-.55-.79s-.2-.67-.2-1.07v-.12c0-.4.07-.76.2-1.08s.32-.59.55-.82c.24-.23.52-.4.83-.52.32-.12.66-.18,1.02-.18.69,0,1.25.18,1.68.54.43.36.71.83.82,1.42l-1.24.32c-.04-.29-.17-.55-.38-.76s-.51-.32-.9-.32c-.18,0-.35.03-.51.1-.16.07-.3.16-.42.29-.12.12-.22.27-.29.45-.07.17-.1.37-.1.59v.06c0,.22.03.42.1.59.07.17.17.31.29.42.12.11.26.2.42.26.16.05.33.08.51.08.39,0,.68-.1.88-.29.21-.19.34-.45.4-.78l1.24.31ZM263.08,83.74c0,.15.04.28.1.41.07.12.15.23.26.32.11.09.24.16.38.21.15.05.3.07.46.07.31,0,.55-.05.72-.16.17-.11.29-.25.36-.4l1.08.6c-.06.13-.14.26-.25.4-.11.13-.25.26-.42.37-.17.11-.37.21-.62.28-.24.07-.52.11-.85.11-.37,0-.71-.06-1.02-.18-.31-.12-.57-.29-.8-.52-.22-.23-.39-.5-.52-.83-.12-.33-.18-.7-.18-1.11v-.06c0-.38.06-.73.19-1.04.13-.31.31-.58.54-.8.23-.22.49-.39.79-.51.31-.13.63-.19.98-.19.43,0,.79.08,1.1.23.31.15.56.34.76.57.2.23.35.48.44.76.09.27.14.54.14.8v.67h-3.64ZM264.27,81.85c-.32,0-.58.08-.78.25-.2.16-.33.35-.39.56h2.34c-.04-.23-.17-.43-.38-.58-.21-.15-.47-.23-.79-.23ZM51.37,100.4l-.73-.73-.33-.74-.16.07.28.73v1.06h-.96v-1.06l.28-.73-.16-.07-.33.74-.73.73-.67-.67.73-.73.74-.33-.07-.16-.73.28h-1.06v-.96h1.06l.73.28.07-.16-.74-.33-.73-.73.67-.67.73.73.33.74.16-.07-.28-.73v-1.06h.96v1.06l-.28.73.16.07.33-.74.73-.73.67.67-.73.73-.74.33.07.16.73-.28h1.06v.96h-1.06l-.73-.28-.07.16.74.33.73.73-.67.67ZM59.77,96.85h1.47v-2.04h1.26v2.04h1.79v1.2h-1.79v2.26c0,.2.09.3.27.3h1.34v1.2h-2.1c-.23,0-.41-.07-.56-.22-.14-.15-.21-.33-.21-.56v-2.98h-1.47v-1.2ZM67.31,101.81h-1.26v-7h1.26v2.84h.18c.13-.3.31-.53.56-.69.25-.17.55-.25.91-.25.25,0,.47.04.68.12.21.08.39.2.54.36.15.16.27.37.36.62.09.25.13.54.13.88v3.12h-1.26v-2.82c0-.35-.09-.63-.26-.83-.17-.21-.41-.31-.73-.31-.37,0-.65.13-.84.38-.18.25-.27.58-.27,1v2.58ZM75.37,101.09c-.13.31-.32.54-.56.67-.24.13-.52.19-.84.19-.3,0-.58-.06-.85-.17-.26-.11-.49-.28-.69-.5-.2-.22-.36-.49-.48-.8-.11-.31-.17-.67-.17-1.07v-.16c0-.39.06-.75.17-1.06.11-.31.27-.58.46-.8s.42-.39.67-.5c.26-.12.54-.18.83-.18.35,0,.64.06.85.18.22.12.39.31.52.56h.18v-.6h1.26v3.46c0,.2.09.3.27.3h.19v1.2h-.86c-.23,0-.41-.07-.56-.2-.14-.13-.21-.31-.21-.52h-.18ZM74.25,100.75c.37,0,.66-.12.88-.36.22-.25.33-.58.33-1v-.12c0-.42-.11-.75-.33-.99-.22-.25-.51-.37-.88-.37s-.66.12-.88.37c-.22.24-.33.57-.33.99v.12c0,.42.11.75.33,1,.22.24.51.36.88.36ZM78.14,96.85h1.47v-2.04h1.26v2.04h1.79v1.2h-1.79v2.26c0,.2.09.3.27.3h1.34v1.2h-2.1c-.23,0-.41-.07-.56-.22-.14-.15-.21-.33-.21-.56v-2.98h-1.47v-1.2ZM86.29,96.48c-.17-.07-.3-.19-.41-.34-.1-.16-.15-.34-.15-.53,0-.13.02-.25.07-.36.05-.12.12-.22.21-.3.09-.09.19-.15.3-.2.11-.05.24-.08.37-.08s.25.03.36.08c.12.05.22.11.3.2.09.08.15.18.2.3.05.11.08.23.08.36,0,.19-.05.37-.16.53-.1.15-.23.27-.39.34v1.25h-.78v-1.25ZM92.11,98.25c0,.16.08.28.25.35.17.07.47.12.91.17.51.05.92.21,1.24.46.32.25.48.59.48,1.04v.06c0,.49-.18.89-.54,1.18-.36.29-.87.44-1.52.44-.39,0-.72-.05-.99-.15-.27-.1-.5-.22-.68-.37-.18-.15-.32-.32-.42-.5-.09-.19-.16-.37-.19-.54l1.16-.38c.05.21.16.4.33.56.17.16.44.24.79.24.31,0,.53-.05.64-.14.12-.1.18-.21.18-.32,0-.07-.02-.13-.05-.18-.03-.06-.08-.11-.16-.16-.08-.05-.19-.1-.33-.13-.13-.03-.3-.06-.51-.08-.56-.05-1.01-.19-1.34-.43-.33-.25-.49-.61-.49-1.08v-.06c0-.25.05-.46.16-.65.11-.19.25-.34.42-.47.17-.13.37-.23.6-.3.23-.07.46-.1.7-.1.31,0,.58.04.81.12.23.07.43.17.59.3.16.12.29.26.39.41.1.15.18.29.23.43l-1.14.46c-.06-.18-.16-.32-.31-.42-.15-.11-.34-.16-.57-.16-.21,0-.37.04-.48.12-.11.07-.16.17-.16.28ZM104.35,98.25c0,.16.08.28.25.35.17.07.47.12.91.17.51.05.92.21,1.24.46.32.25.48.59.48,1.04v.06c0,.49-.18.89-.54,1.18-.36.29-.87.44-1.52.44-.39,0-.72-.05-.99-.15-.27-.1-.5-.22-.68-.37-.18-.15-.32-.32-.42-.5-.09-.19-.16-.37-.19-.54l1.16-.38c.05.21.16.4.33.56.17.16.44.24.79.24.31,0,.53-.05.64-.14.12-.1.18-.21.18-.32,0-.07-.02-.13-.05-.18-.03-.06-.08-.11-.16-.16-.08-.05-.19-.1-.33-.13-.13-.03-.3-.06-.51-.08-.56-.05-1.01-.19-1.34-.43-.33-.25-.49-.61-.49-1.08v-.06c0-.25.05-.46.16-.65.11-.19.25-.34.42-.47.17-.13.37-.23.6-.3.23-.07.46-.1.7-.1.31,0,.58.04.81.12.23.07.43.17.59.3.16.12.29.26.39.41.1.15.18.29.23.43l-1.14.46c-.06-.18-.16-.32-.31-.42-.15-.11-.34-.16-.57-.16-.21,0-.37.04-.48.12-.11.07-.16.17-.16.28ZM109.9,103.81h-1.26v-6.96h1.26v.72h.18c.13-.27.33-.48.58-.63.25-.15.58-.23.97-.23.29,0,.57.06.83.17.27.11.5.28.69.5.2.21.36.48.47.79.12.31.18.67.18,1.07v.18c0,.41-.06.77-.17,1.08-.11.31-.27.58-.46.8-.19.21-.42.38-.69.49-.26.11-.54.16-.85.16-.23,0-.42-.02-.59-.07-.17-.05-.31-.11-.44-.19-.12-.08-.22-.17-.31-.27-.08-.11-.15-.22-.21-.33h-.18v2.72ZM111.22,100.75c.39,0,.71-.12.95-.36.25-.25.37-.58.37-1v-.12c0-.42-.12-.75-.37-.99-.24-.25-.56-.37-.95-.37s-.71.13-.96.38c-.24.25-.36.57-.36.98v.12c0,.41.12.74.36.99.25.25.57.37.96.37ZM116.13,99.74c0,.15.04.28.1.41.07.12.15.23.26.32.11.09.24.16.38.21.15.05.3.07.46.07.31,0,.55-.05.72-.16.17-.11.29-.25.36-.4l1.08.6c-.06.13-.14.26-.25.4-.11.13-.25.26-.42.37-.17.11-.37.21-.62.28-.24.07-.52.11-.85.11-.37,0-.71-.06-1.02-.18-.31-.12-.57-.29-.8-.52-.22-.23-.39-.5-.52-.83-.12-.33-.18-.7-.18-1.11v-.06c0-.38.06-.73.19-1.04.13-.31.31-.58.54-.8.23-.22.49-.39.79-.51.31-.13.63-.19.98-.19.43,0,.79.08,1.1.23.31.15.56.34.76.57.2.23.35.48.44.76.09.27.14.54.14.8v.67h-3.64ZM117.32,97.85c-.32,0-.58.08-.78.25-.2.16-.33.35-.39.56h2.34c-.04-.23-.17-.43-.38-.58-.21-.15-.47-.23-.79-.23ZM121.11,100.61h1.74v-4.6h-1.68v-1.2h2.94v5.8h1.62v1.2h-4.62v-1.2ZM127.24,100.61h1.74v-4.6h-1.68v-1.2h2.94v5.8h1.62v1.2h-4.62v-1.2ZM134.5,99.74c0,.15.04.28.1.41.07.12.15.23.26.32.11.09.24.16.38.21.15.05.3.07.46.07.31,0,.55-.05.72-.16.17-.11.29-.25.36-.4l1.08.6c-.06.13-.14.26-.25.4-.11.13-.25.26-.42.37-.17.11-.37.21-.62.28-.24.07-.52.11-.85.11-.37,0-.71-.06-1.02-.18-.31-.12-.57-.29-.8-.52-.22-.23-.39-.5-.52-.83-.12-.33-.18-.7-.18-1.11v-.06c0-.38.06-.73.19-1.04.13-.31.31-.58.54-.8.23-.22.49-.39.79-.51.31-.13.63-.19.98-.19.43,0,.79.08,1.1.23.31.15.56.34.76.57.2.23.35.48.44.76.09.27.14.54.14.8v.67h-3.64ZM135.69,97.85c-.32,0-.58.08-.78.25-.2.16-.33.35-.39.56h2.34c-.04-.23-.17-.43-.38-.58-.21-.15-.47-.23-.79-.23ZM143.07,101.09h-.18c-.05.11-.12.22-.2.33-.07.1-.17.19-.3.27-.12.08-.27.14-.44.19-.17.05-.37.07-.61.07-.31,0-.59-.05-.86-.16-.26-.11-.49-.28-.69-.49-.19-.22-.35-.49-.46-.8-.11-.31-.16-.67-.16-1.08v-.18c0-.4.06-.76.17-1.07.12-.31.28-.58.48-.79.21-.22.44-.39.71-.5.27-.11.56-.17.86-.17.4,0,.72.08.95.23.23.15.42.36.55.63h.18v-2.76h1.26v7h-1.26v-.72ZM141.75,100.75c.39,0,.71-.12.95-.37.25-.25.37-.58.37-.99v-.12c0-.41-.12-.73-.37-.98-.24-.25-.56-.38-.95-.38s-.71.12-.96.37c-.24.24-.36.57-.36.99v.12c0,.42.12.75.36,1,.25.24.57.36.96.36ZM151.62,96.85h1.47v-2.04h1.26v2.04h1.79v1.2h-1.79v2.26c0,.2.09.3.27.3h1.34v1.2h-2.1c-.23,0-.41-.07-.56-.22-.14-.15-.21-.33-.21-.56v-2.98h-1.47v-1.2ZM159.16,101.81h-1.26v-7h1.26v2.84h.18c.13-.3.31-.53.56-.69.25-.17.55-.25.91-.25.25,0,.47.04.68.12.21.08.39.2.54.36.15.16.27.37.36.62.09.25.13.54.13.88v3.12h-1.26v-2.82c0-.35-.09-.63-.26-.83-.17-.21-.41-.31-.73-.31-.37,0-.65.13-.84.38-.18.25-.27.58-.27,1v2.58ZM165.11,99.74c0,.15.04.28.1.41.07.12.15.23.26.32.11.09.24.16.38.21.15.05.3.07.46.07.31,0,.55-.05.72-.16.17-.11.29-.25.36-.4l1.08.6c-.06.13-.14.26-.25.4-.11.13-.25.26-.42.37-.17.11-.37.21-.62.28-.24.07-.52.11-.85.11-.37,0-.71-.06-1.02-.18-.31-.12-.57-.29-.8-.52-.22-.23-.39-.5-.52-.83-.12-.33-.18-.7-.18-1.11v-.06c0-.38.06-.73.19-1.04.13-.31.31-.58.54-.8.23-.22.49-.39.79-.51.31-.13.63-.19.98-.19.43,0,.79.08,1.1.23.31.15.56.34.76.57.2.23.35.48.44.76.09.27.14.54.14.8v.67h-3.64ZM166.3,97.85c-.32,0-.58.08-.78.25-.2.16-.33.35-.39.56h2.34c-.04-.23-.17-.43-.38-.58-.21-.15-.47-.23-.79-.23ZM177.83,98.25c0,.16.08.28.25.35.17.07.47.12.91.17.51.05.92.21,1.24.46.32.25.48.59.48,1.04v.06c0,.49-.18.89-.54,1.18-.36.29-.87.44-1.52.44-.39,0-.72-.05-.99-.15-.27-.1-.5-.22-.68-.37-.18-.15-.32-.32-.42-.5-.09-.19-.16-.37-.19-.54l1.16-.38c.05.21.16.4.33.56.17.16.44.24.79.24.31,0,.53-.05.64-.14.12-.1.18-.21.18-.32,0-.07-.02-.13-.05-.18-.03-.06-.08-.11-.16-.16-.08-.05-.19-.1-.33-.13-.13-.03-.3-.06-.51-.08-.56-.05-1.01-.19-1.34-.43-.33-.25-.49-.61-.49-1.08v-.06c0-.25.05-.46.16-.65.11-.19.25-.34.42-.47.17-.13.37-.23.6-.3.23-.07.46-.1.7-.1.31,0,.58.04.81.12.23.07.43.17.59.3.16.12.29.26.39.41.1.15.18.29.23.43l-1.14.46c-.06-.18-.16-.32-.31-.42-.15-.11-.34-.16-.57-.16-.21,0-.37.04-.48.12-.11.07-.16.17-.16.28ZM185.58,101.09c-.13.31-.32.54-.56.67-.24.13-.52.19-.84.19-.3,0-.58-.06-.85-.17-.26-.11-.49-.28-.69-.5-.2-.22-.36-.49-.48-.8-.11-.31-.17-.67-.17-1.07v-.16c0-.39.06-.75.17-1.06.11-.31.27-.58.46-.8.19-.22.42-.39.67-.5.26-.12.54-.18.83-.18.35,0,.64.06.85.18.22.12.39.31.52.56h.18v-.6h1.26v3.46c0,.2.09.3.27.3h.19v1.2h-.86c-.23,0-.41-.07-.56-.2-.14-.13-.21-.31-.21-.52h-.18ZM184.46,100.75c.37,0,.66-.12.88-.36.22-.25.33-.58.33-1v-.12c0-.42-.11-.75-.33-.99-.22-.25-.51-.37-.88-.37s-.66.12-.88.37c-.22.24-.33.57-.33.99v.12c0,.42.11.75.33,1,.22.24.51.36.88.36ZM193.48,101.81h-1.26v-3.48c0-.14-.04-.24-.11-.31-.07-.07-.16-.11-.27-.11-.13,0-.24.04-.32.12-.07.08-.11.2-.11.36v3.42h-1.26v-3.48c0-.14-.04-.24-.12-.31-.07-.07-.16-.11-.27-.11-.12,0-.22.04-.3.12-.08.08-.12.2-.12.36v3.42h-1.26v-4.96h1.26v.48h.18c.04-.18.13-.33.27-.44.15-.12.34-.18.57-.18.22,0,.41.06.56.18.15.11.26.26.31.44h.18c.05-.18.16-.33.33-.44.17-.12.39-.18.64-.18.33,0,.6.11.8.34.2.22.3.53.3.92v3.84ZM195.73,99.74c0,.15.04.28.1.41.07.12.15.23.26.32.11.09.24.16.38.21.15.05.3.07.46.07.31,0,.55-.05.72-.16.17-.11.29-.25.36-.4l1.08.6c-.06.13-.14.26-.25.4-.11.13-.25.26-.42.37-.17.11-.37.21-.62.28-.24.07-.52.11-.85.11-.37,0-.71-.06-1.02-.18-.31-.12-.57-.29-.8-.52-.22-.23-.39-.5-.52-.83-.12-.33-.18-.7-.18-1.11v-.06c0-.38.06-.73.19-1.04.13-.31.31-.58.54-.8.23-.22.49-.39.79-.51.31-.13.63-.19.98-.19.43,0,.79.08,1.1.23.31.15.56.34.76.57.2.23.35.48.44.76.09.27.14.54.14.8v.67h-3.64ZM196.92,97.85c-.32,0-.58.08-.78.25-.2.16-.33.35-.39.56h2.34c-.04-.23-.17-.43-.38-.58-.21-.15-.47-.23-.79-.23ZM211.73,101.81h-2.18l-.28-3.76v-.6h-.24v.6l-.28,3.76h-2.18l-.33-4.96h1.16l.22,3.76v.6h.24v-.6l.25-3.76h2.08l.25,3.76v.6h.24v-.6l.22-3.76h1.16l-.33,4.96ZM216.2,101.09c-.13.31-.32.54-.56.67-.24.13-.52.19-.84.19-.3,0-.58-.06-.85-.17-.26-.11-.49-.28-.69-.5s-.36-.49-.48-.8c-.11-.31-.17-.67-.17-1.07v-.16c0-.39.06-.75.17-1.06.11-.31.27-.58.46-.8.19-.22.42-.39.67-.5.26-.12.54-.18.83-.18.35,0,.64.06.85.18.22.12.39.31.52.56h.18v-.6h1.26v3.46c0,.2.09.3.27.3h.19v1.2h-.86c-.23,0-.41-.07-.56-.2-.14-.13-.21-.31-.21-.52h-.18ZM215.08,100.75c.37,0,.66-.12.88-.36.22-.25.33-.58.33-1v-.12c0-.42-.11-.75-.33-.99-.22-.25-.51-.37-.88-.37s-.66.12-.88.37c-.22.24-.33.57-.33.99v.12c0,.42.11.75.33,1,.22.24.51.36.88.36ZM222.47,96.85h1.26v6.18c0,.23-.07.41-.22.56-.14.15-.32.22-.55.22h-2.95v-1.2h2.19c.18,0,.27-.1.27-.3v-1.22h-.18c-.22.57-.69.86-1.42.86-.25,0-.48-.04-.69-.12-.21-.08-.4-.2-.56-.37-.16-.17-.29-.37-.38-.62-.09-.25-.13-.55-.13-.89v-3.1h1.26v2.84c0,.35.08.63.25.83.17.19.42.29.75.29.38,0,.66-.12.83-.36.18-.25.27-.58.27-1v-2.6ZM232.41,101.81h-1.26v-7h1.26v2.76h.18c.13-.27.33-.48.58-.63.25-.15.58-.23.97-.23.29,0,.57.06.83.17.27.11.5.28.69.5.2.21.36.48.47.79.12.31.18.67.18,1.07v.18c0,.41-.06.77-.17,1.08-.11.31-.27.58-.46.8-.19.21-.42.38-.69.49-.26.11-.54.16-.85.16-.23,0-.42-.02-.59-.07-.17-.05-.31-.11-.44-.19-.12-.08-.22-.17-.31-.27-.08-.11-.15-.22-.21-.33h-.18v.72ZM233.73,100.75c.39,0,.71-.12.95-.36.25-.25.37-.58.37-1v-.12c0-.42-.12-.75-.37-.99-.24-.25-.56-.37-.95-.37s-.71.13-.96.38c-.24.25-.36.57-.36.98v.12c0,.41.12.74.36.99.25.25.57.37.96.37ZM242.34,99.39c0,.41-.07.78-.21,1.1-.14.31-.33.58-.57.8-.24.21-.52.38-.83.49-.31.11-.63.17-.97.17s-.67-.06-.98-.17c-.31-.11-.58-.28-.82-.49-.24-.22-.43-.49-.57-.8-.14-.32-.21-.69-.21-1.1v-.12c0-.41.07-.77.21-1.08.14-.32.33-.59.57-.81.24-.22.51-.39.82-.5.31-.11.64-.17.98-.17s.66.06.97.17c.31.11.59.28.83.5.24.22.43.49.57.81.14.31.21.67.21,1.08v.12ZM239.76,100.75c.18,0,.35-.03.51-.09.16-.06.3-.15.42-.26.12-.11.21-.25.28-.41.07-.17.11-.35.11-.56v-.2c0-.21-.04-.39-.11-.55-.07-.17-.16-.31-.28-.42-.12-.11-.26-.2-.42-.26-.16-.06-.33-.09-.51-.09s-.35.03-.51.09-.3.15-.42.26c-.12.11-.22.25-.29.42-.07.16-.1.34-.1.55v.2c0,.21.03.39.1.56.07.16.17.3.29.41.12.11.26.2.42.26.16.06.33.09.51.09ZM243.46,96.85h1.47v-2.04h1.26v2.04h1.79v1.2h-1.79v2.26c0,.2.09.3.27.3h1.34v1.2h-2.1c-.23,0-.41-.07-.56-.22-.14-.15-.21-.33-.21-.56v-2.98h-1.47v-1.2ZM251.01,101.81h-1.26v-7h1.26v2.84h.18c.13-.3.31-.53.56-.69.25-.17.55-.25.91-.25.25,0,.47.04.68.12s.39.2.54.36c.15.16.27.37.36.62.09.25.13.54.13.88v3.12h-1.26v-2.82c0-.35-.09-.63-.26-.83-.17-.21-.41-.31-.73-.31-.37,0-.65.13-.84.38-.18.25-.27.58-.27,1v2.58ZM51.37,116.4l-.73-.73-.33-.74-.16.07.28.73v1.06h-.96v-1.06l.28-.73-.16-.07-.33.74-.73.73-.67-.67.73-.73.74-.33-.07-.16-.73.28h-1.06v-.96h1.06l.73.28.07-.16-.74-.33-.73-.73.67-.67.73.73.33.74.16-.07-.28-.73v-1.06h.96v1.06l-.28.73.16.07.33-.74.73-.73.67.67-.73.73-.74.33.07.16.73-.28h1.06v.96h-1.06l-.73-.28-.07.16.74.33.73.73-.67.67ZM59.87,112.85h1.41v-1.02c0-.29.1-.53.29-.72.19-.2.43-.3.72-.3h2.02v1.2h-1.5c-.18,0-.27.1-.27.3v.54h1.95v1.2h-1.95v3.76h-1.26v-3.76h-1.41v-1.2ZM70.89,115.39c0,.41-.07.78-.21,1.1-.14.31-.33.58-.57.8-.24.21-.52.38-.83.49-.31.11-.63.17-.97.17s-.67-.06-.98-.17c-.31-.11-.58-.28-.82-.49-.24-.22-.43-.49-.57-.8-.14-.32-.21-.69-.21-1.1v-.12c0-.41.07-.77.21-1.08.14-.32.33-.59.57-.81.24-.22.51-.39.82-.5.31-.11.64-.17.98-.17s.66.06.97.17c.31.11.59.28.83.5.24.22.43.49.57.81.14.31.21.67.21,1.08v.12ZM68.31,116.75c.18,0,.35-.03.51-.09.16-.06.3-.15.42-.26.12-.11.21-.25.28-.41.07-.17.11-.35.11-.56v-.2c0-.21-.04-.39-.11-.55-.07-.17-.16-.31-.28-.42-.12-.11-.26-.2-.42-.26-.16-.06-.33-.09-.51-.09s-.35.03-.51.09c-.16.06-.3.15-.42.26-.12.11-.22.25-.29.42-.07.16-.1.34-.1.55v.2c0,.21.03.39.1.56.07.16.17.3.29.41.12.11.26.2.42.26.16.06.33.09.51.09ZM71.92,112.85h2.1v.72h.18c.09-.27.25-.48.47-.63.23-.15.5-.23.81-.23.49,0,.89.16,1.19.47.3.31.45.78.45,1.41v.22l-1.3.12v-.14c0-.27-.07-.49-.21-.65-.14-.17-.35-.25-.63-.25s-.5.1-.66.29c-.16.19-.24.47-.24.83v1.6h1.14v1.2h-3.42v-1.2h1.02v-2.56h-.9v-1.2ZM83.14,117.81h-2.18l-.28-3.76v-.6h-.24v.6l-.28,3.76h-2.18l-.33-4.96h1.16l.22,3.76v.6h.24v-.6l.25-3.76h2.08l.25,3.76v.6h.24v-.6l.22-3.76h1.16l-.33,4.96ZM87.61,117.09c-.13.31-.32.54-.56.67-.24.13-.52.19-.84.19-.3,0-.58-.06-.85-.17-.26-.11-.49-.28-.69-.5-.2-.22-.36-.49-.48-.8-.11-.31-.17-.67-.17-1.07v-.16c0-.39.06-.75.17-1.06.11-.31.27-.58.46-.8.19-.22.42-.39.67-.5.26-.12.54-.18.83-.18.35,0,.64.06.85.18.22.12.39.31.52.56h.18v-.6h1.26v3.46c0,.2.09.3.27.3h.19v1.2h-.86c-.23,0-.41-.07-.56-.2-.14-.13-.21-.31-.21-.52h-.18ZM86.49,116.75c.37,0,.66-.12.88-.36.22-.25.33-.58.33-1v-.12c0-.42-.11-.75-.33-.99-.22-.25-.51-.37-.88-.37s-.66.12-.88.37c-.22.24-.33.57-.33.99v.12c0,.42.11.75.33,1,.22.24.51.36.88.36ZM90.29,112.85h2.1v.72h.18c.09-.27.25-.48.47-.63.23-.15.5-.23.81-.23.49,0,.89.16,1.19.47.3.31.45.78.45,1.41v.22l-1.3.12v-.14c0-.27-.07-.49-.21-.65-.14-.17-.35-.25-.63-.25s-.5.1-.66.29c-.16.19-.24.47-.24.83v1.6h1.14v1.2h-3.42v-1.2h1.02v-2.56h-.9v-1.2ZM100.21,117.09h-.18c-.05.11-.12.22-.2.33-.07.1-.17.19-.3.27-.12.08-.27.14-.44.19-.17.05-.37.07-.61.07-.31,0-.59-.05-.86-.16-.26-.11-.49-.28-.69-.49-.19-.22-.35-.49-.46-.8-.11-.31-.16-.67-.16-1.08v-.18c0-.4.06-.76.17-1.07.12-.31.28-.58.48-.79.21-.22.44-.39.71-.5.27-.11.56-.17.86-.17.4,0,.72.08.95.23.23.15.42.36.55.63h.18v-2.76h1.26v7h-1.26v-.72ZM98.89,116.75c.39,0,.71-.12.95-.37.25-.25.37-.58.37-.99v-.12c0-.41-.12-.73-.37-.98-.24-.25-.56-.38-.95-.38s-.71.12-.96.37c-.24.24-.36.57-.36.99v.12c0,.42.12.75.36,1,.25.24.57.36.96.36ZM112.11,117.09c-.13.31-.32.54-.56.67-.24.13-.52.19-.84.19-.3,0-.58-.06-.85-.17-.26-.11-.49-.28-.69-.5s-.36-.49-.48-.8c-.11-.31-.17-.67-.17-1.07v-.16c0-.39.06-.75.17-1.06.11-.31.27-.58.46-.8.19-.22.42-.39.67-.5.26-.12.54-.18.83-.18.35,0,.64.06.85.18.22.12.39.31.52.56h.18v-.6h1.26v3.46c0,.2.09.3.27.3h.19v1.2h-.86c-.23,0-.41-.07-.56-.2-.14-.13-.21-.31-.21-.52h-.18ZM110.99,116.75c.37,0,.66-.12.88-.36.22-.25.33-.58.33-1v-.12c0-.42-.11-.75-.33-.99-.22-.25-.51-.37-.88-.37s-.66.12-.88.37c-.22.24-.33.57-.33.99v.12c0,.42.11.75.33,1,.22.24.51.36.88.36ZM116.28,117.81h-1.26v-4.96h1.26v.74h.18c.11-.28.3-.5.55-.65.25-.15.55-.23.89-.23.24,0,.46.04.67.12.21.07.4.19.56.35.16.16.28.36.37.61.09.25.14.54.14.88v3.14h-1.26v-2.82c0-.35-.09-.63-.26-.83-.17-.21-.41-.31-.73-.31-.37,0-.65.13-.84.38-.18.25-.27.58-.27,1v2.58ZM124.7,117.09h-.18c-.05.11-.12.22-.2.33-.07.1-.17.19-.3.27-.12.08-.27.14-.44.19-.17.05-.37.07-.61.07-.31,0-.59-.05-.86-.16-.26-.11-.49-.28-.69-.49-.19-.22-.35-.49-.46-.8-.11-.31-.16-.67-.16-1.08v-.18c0-.4.06-.76.17-1.07.12-.31.28-.58.48-.79.21-.22.44-.39.71-.5.27-.11.56-.17.86-.17.4,0,.72.08.95.23.23.15.42.36.55.63h.18v-2.76h1.26v7h-1.26v-.72ZM123.38,116.75c.39,0,.71-.12.95-.37.25-.25.37-.58.37-.99v-.12c0-.41-.12-.73-.37-.98-.24-.25-.56-.38-.95-.38s-.71.12-.96.37c-.24.24-.36.57-.36.99v.12c0,.42.12.75.36,1,.25.24.57.36.96.36ZM134.44,117.81h-1.26v-7h1.26v2.76h.18c.13-.27.33-.48.58-.63.25-.15.58-.23.97-.23.29,0,.57.06.83.17.27.11.5.28.69.5.2.21.36.48.47.79.12.31.18.67.18,1.07v.18c0,.41-.06.77-.17,1.08-.11.31-.27.58-.46.8-.19.21-.42.38-.69.49-.26.11-.54.16-.85.16-.23,0-.42-.02-.59-.07-.17-.05-.31-.11-.44-.19-.12-.08-.22-.17-.31-.27-.08-.11-.15-.22-.21-.33h-.18v.72ZM135.76,116.75c.39,0,.71-.12.95-.36.25-.25.37-.58.37-1v-.12c0-.42-.12-.75-.37-.99-.24-.25-.56-.37-.95-.37s-.71.13-.96.38c-.24.25-.36.57-.36.98v.12c0,.41.12.74.36.99.25.25.57.37.96.37ZM142.72,117.09c-.13.31-.32.54-.56.67-.24.13-.52.19-.84.19-.3,0-.58-.06-.85-.17-.26-.11-.49-.28-.69-.5-.2-.22-.36-.49-.48-.8-.11-.31-.17-.67-.17-1.07v-.16c0-.39.06-.75.17-1.06.11-.31.27-.58.46-.8.19-.22.42-.39.67-.5.26-.12.54-.18.83-.18.35,0,.64.06.85.18.22.12.39.31.52.56h.18v-.6h1.26v3.46c0,.2.09.3.27.3h.19v1.2h-.86c-.23,0-.41-.07-.56-.2-.14-.13-.21-.31-.21-.52h-.18ZM141.6,116.75c.37,0,.66-.12.88-.36.22-.25.33-.58.33-1v-.12c0-.42-.11-.75-.33-.99-.22-.25-.51-.37-.88-.37s-.66.12-.88.37c-.22.24-.33.57-.33.99v.12c0,.42.11.75.33,1,.22.24.51.36.88.36ZM150.47,115.99c-.11.59-.38,1.06-.81,1.42-.42.36-.98.54-1.69.54-.37,0-.71-.06-1.03-.17-.31-.11-.59-.28-.82-.49-.23-.21-.42-.48-.55-.79-.13-.31-.2-.67-.2-1.07v-.12c0-.4.07-.76.2-1.08.13-.32.32-.59.55-.82.24-.23.52-.4.83-.52.32-.12.66-.18,1.02-.18.69,0,1.25.18,1.68.54.43.36.71.83.82,1.42l-1.24.32c-.04-.29-.17-.55-.38-.76-.21-.21-.51-.32-.9-.32-.18,0-.35.03-.51.1-.16.07-.3.16-.42.29-.12.12-.22.27-.29.45-.07.17-.1.37-.1.59v.06c0,.22.03.42.1.59.07.17.17.31.29.42.12.11.26.2.42.26.16.05.33.08.51.08.39,0,.68-.1.88-.29.21-.19.34-.45.4-.78l1.24.31ZM153.42,114.67h.24l1.32-1.82h1.38v.06l-1.6,2.27v.18l1.76,2.39v.06h-1.44l-1.42-1.94h-.24v1.94h-1.26v-7h1.26v3.86ZM162.74,117.81h-2.18l-.28-3.76v-.6h-.24v.6l-.28,3.76h-2.18l-.33-4.96h1.16l.22,3.76v.6h.24v-.6l.25-3.76h2.08l.25,3.76v.6h.24v-.6l.22-3.76h1.16l-.33,4.96ZM167.21,117.09c-.13.31-.32.54-.56.67-.24.13-.52.19-.84.19-.3,0-.58-.06-.85-.17-.26-.11-.49-.28-.69-.5-.2-.22-.36-.49-.48-.8-.11-.31-.17-.67-.17-1.07v-.16c0-.39.06-.75.17-1.06.11-.31.27-.58.46-.8.19-.22.42-.39.67-.5.26-.12.54-.18.83-.18.35,0,.64.06.85.18.22.12.39.31.52.56h.18v-.6h1.26v3.46c0,.2.09.3.27.3h.19v1.2h-.86c-.23,0-.41-.07-.56-.2-.14-.13-.21-.31-.21-.52h-.18ZM166.09,116.75c.37,0,.66-.12.88-.36.22-.25.33-.58.33-1v-.12c0-.42-.11-.75-.33-.99-.22-.25-.51-.37-.88-.37s-.66.12-.88.37c-.22.24-.33.57-.33.99v.12c0,.42.11.75.33,1,.22.24.51.36.88.36ZM169.89,112.85h2.1v.72h.18c.09-.27.25-.48.47-.63.23-.15.5-.23.81-.23.49,0,.89.16,1.19.47.3.31.45.78.45,1.41v.22l-1.3.12v-.14c0-.27-.07-.49-.21-.65-.14-.17-.35-.25-.63-.25s-.5.1-.66.29c-.16.19-.24.47-.24.83v1.6h1.14v1.2h-3.42v-1.2h1.02v-2.56h-.9v-1.2ZM179.81,117.09h-.18c-.05.11-.12.22-.2.33-.07.1-.17.19-.3.27-.12.08-.27.14-.44.19-.17.05-.37.07-.61.07-.31,0-.59-.05-.86-.16-.26-.11-.49-.28-.69-.49-.19-.22-.35-.49-.46-.8-.11-.31-.16-.67-.16-1.08v-.18c0-.4.06-.76.17-1.07.12-.31.28-.58.48-.79.21-.22.44-.39.71-.5.27-.11.56-.17.86-.17.4,0,.72.08.95.23.23.15.42.36.55.63h.18v-2.76h1.26v7h-1.26v-.72ZM178.49,116.75c.39,0,.71-.12.95-.37.25-.25.37-.58.37-.99v-.12c0-.41-.12-.73-.37-.98-.24-.25-.56-.38-.95-.38s-.71.12-.96.37c-.24.24-.36.57-.36.99v.12c0,.42.12.75.36,1,.25.24.57.36.96.36ZM183.7,117c0-.13.02-.25.07-.36.05-.12.12-.22.21-.3.09-.09.19-.15.3-.2.11-.05.24-.08.37-.08.13,0,.25.03.36.08.12.05.22.11.31.2.09.08.15.18.2.3.05.11.08.23.08.36v1.22c0,.25-.09.47-.26.64-.17.17-.38.26-.63.26h-.64v-.78h.48c.18,0,.27-.1.27-.3v-.12c-.05.02-.11.03-.17.03-.13,0-.26-.03-.37-.08-.11-.05-.21-.11-.3-.2-.09-.09-.16-.19-.21-.3-.05-.11-.07-.24-.07-.37ZM194.71,116.61h1.68v-2.56h-1.56v-1.2h2.82v3.76h1.44v1.2h-4.38v-1.2ZM197.96,111.38c0,.13-.03.26-.08.38-.05.11-.11.21-.2.3-.09.08-.19.15-.31.2-.11.05-.23.07-.36.07-.13,0-.26-.02-.37-.07-.11-.05-.21-.12-.3-.2-.09-.09-.16-.19-.21-.3-.05-.12-.07-.25-.07-.38s.02-.26.07-.37c.05-.12.12-.22.21-.3.09-.09.19-.15.3-.2.11-.05.24-.08.37-.08.13,0,.25.03.36.08.12.05.22.11.31.2.09.08.15.18.2.3.05.11.08.24.08.37ZM204.28,117.09h-.18c-.05.11-.12.22-.2.33-.07.1-.17.19-.3.27-.12.08-.27.14-.44.19-.17.05-.37.07-.61.07-.31,0-.59-.05-.86-.16-.26-.11-.49-.28-.69-.49-.19-.22-.35-.49-.46-.8-.11-.31-.16-.67-.16-1.08v-.18c0-.4.06-.76.17-1.07.12-.31.28-.58.48-.79.21-.22.44-.39.71-.5.27-.11.56-.17.86-.17.4,0,.72.08.95.23.23.15.42.36.55.63h.18v-.72h1.26v6.18c0,.23-.07.41-.22.56-.14.15-.32.22-.55.22h-3.34v-1.2h2.58c.18,0,.27-.1.27-.3v-1.22ZM202.96,116.75c.39,0,.71-.12.95-.37.25-.25.37-.58.37-.99v-.12c0-.41-.12-.73-.37-.98-.24-.25-.56-.38-.95-.38s-.71.12-.96.37-.36.57-.36.99v.12c0,.42.12.75.36,1,.25.24.57.36.96.36ZM208.12,117.81h-1.26v-4.96h1.26v.74h.18c.11-.28.3-.5.55-.65.25-.15.55-.23.89-.23.24,0,.46.04.67.12.21.07.4.19.56.35.16.16.28.36.37.61.09.25.14.54.14.88v3.14h-1.26v-2.82c0-.35-.09-.63-.26-.83-.17-.21-.41-.31-.73-.31-.37,0-.65.13-.84.38-.18.25-.27.58-.27,1v2.58ZM217.85,115.39c0,.41-.07.78-.21,1.1-.14.31-.33.58-.57.8-.24.21-.52.38-.83.49-.31.11-.63.17-.97.17s-.67-.06-.98-.17c-.31-.11-.58-.28-.82-.49-.24-.22-.43-.49-.57-.8-.14-.32-.21-.69-.21-1.1v-.12c0-.41.07-.77.21-1.08.14-.32.33-.59.57-.81.24-.22.51-.39.82-.5.31-.11.64-.17.98-.17s.66.06.97.17c.31.11.59.28.83.5.24.22.43.49.57.81.14.31.21.67.21,1.08v.12ZM215.27,116.75c.18,0,.35-.03.51-.09s.3-.15.42-.26c.12-.11.21-.25.28-.41.07-.17.11-.35.11-.56v-.2c0-.21-.04-.39-.11-.55-.07-.17-.16-.31-.28-.42-.12-.11-.26-.2-.42-.26s-.33-.09-.51-.09-.35.03-.51.09c-.16.06-.3.15-.42.26-.12.11-.22.25-.29.42-.07.16-.1.34-.1.55v.2c0,.21.03.39.1.56.07.16.17.3.29.41.12.11.26.2.42.26.16.06.33.09.51.09ZM218.87,112.85h2.1v.72h.18c.09-.27.25-.48.47-.63.23-.15.5-.23.81-.23.49,0,.89.16,1.19.47.3.31.45.78.45,1.41v.22l-1.3.12v-.14c0-.27-.07-.49-.21-.65-.14-.17-.35-.25-.63-.25s-.5.1-.66.29c-.16.19-.24.47-.24.83v1.6h1.14v1.2h-3.42v-1.2h1.02v-2.56h-.9v-1.2ZM225.32,116.61h1.68v-2.56h-1.56v-1.2h2.82v3.76h1.44v1.2h-4.38v-1.2ZM228.57,111.38c0,.13-.03.26-.08.38-.05.11-.11.21-.2.3-.09.08-.19.15-.31.2-.11.05-.23.07-.36.07s-.26-.02-.37-.07c-.11-.05-.21-.12-.3-.2-.09-.09-.16-.19-.21-.3-.05-.12-.07-.25-.07-.38s.02-.26.07-.37c.05-.12.12-.22.21-.3.09-.09.19-.15.3-.2.11-.05.24-.08.37-.08s.25.03.36.08c.12.05.22.11.31.2.09.08.15.18.2.3.05.11.08.24.08.37ZM232.62,117.81h-1.26v-4.96h1.26v.74h.18c.11-.28.3-.5.55-.65.25-.15.55-.23.89-.23.24,0,.46.04.67.12.21.07.4.19.56.35.16.16.28.36.37.61.09.25.14.54.14.88v3.14h-1.26v-2.82c0-.35-.09-.63-.26-.83-.17-.21-.41-.31-.73-.31-.37,0-.65.13-.84.38-.18.25-.27.58-.27,1v2.58ZM241.02,117.09h-.18c-.05.11-.12.22-.2.33-.07.1-.17.19-.3.27-.12.08-.27.14-.44.19-.17.05-.37.07-.61.07-.31,0-.59-.05-.86-.16-.26-.11-.49-.28-.69-.49-.19-.22-.35-.49-.46-.8-.11-.31-.16-.67-.16-1.08v-.18c0-.4.06-.76.17-1.07.12-.31.28-.58.48-.79.21-.22.44-.39.71-.5.27-.11.56-.17.86-.17.4,0,.72.08.95.23.23.15.42.36.55.63h.18v-.72h1.26v6.18c0,.23-.07.41-.22.56-.14.15-.32.22-.55.22h-3.34v-1.2h2.58c.18,0,.27-.1.27-.3v-1.22ZM239.7,116.75c.39,0,.71-.12.95-.37.25-.25.37-.58.37-.99v-.12c0-.41-.12-.73-.37-.98-.24-.25-.56-.38-.95-.38s-.71.12-.96.37c-.24.24-.36.57-.36.99v.12c0,.42.12.75.36,1,.25.24.57.36.96.36ZM51.37,132.4l-.73-.73-.33-.74-.16.07.28.73v1.06h-.96v-1.06l.28-.73-.16-.07-.33.74-.73.73-.67-.67.73-.73.74-.33-.07-.16-.73.28h-1.06v-.96h1.06l.73.28.07-.16-.74-.33-.73-.73.67-.67.73.73.33.74.16-.07-.28-.73v-1.06h.96v1.06l-.28.73.16.07.33-.74.73-.73.67.67-.73.73-.74.33.07.16.73-.28h1.06v.96h-1.06l-.73-.28-.07.16.74.33.73.73-.67.67ZM60.91,135.81h-1.26v-6.96h1.26v.72h.18c.13-.27.33-.48.58-.63.25-.15.58-.23.97-.23.29,0,.57.06.83.17.27.11.5.28.69.5.2.21.36.48.47.79.12.31.18.67.18,1.07v.18c0,.41-.06.77-.17,1.08-.11.31-.27.58-.46.8-.19.21-.42.38-.69.49-.26.11-.54.16-.85.16-.23,0-.42-.02-.59-.07-.17-.05-.31-.11-.44-.19-.12-.08-.22-.17-.31-.27-.08-.11-.15-.22-.21-.33h-.18v2.72ZM62.23,132.75c.39,0,.71-.12.95-.36.25-.25.37-.58.37-1v-.12c0-.42-.12-.75-.37-.99-.24-.25-.56-.37-.95-.37s-.71.13-.96.38c-.24.25-.36.57-.36.98v.12c0,.41.12.74.36.99.25.25.57.37.96.37ZM69.39,128.85h1.26v4.96h-1.26v-.72h-.18c-.22.57-.69.86-1.42.86-.25,0-.48-.04-.69-.12-.21-.08-.4-.2-.56-.37-.16-.17-.29-.37-.38-.62-.09-.25-.13-.55-.13-.89v-3.1h1.26v2.84c0,.35.08.63.25.83.17.19.42.29.75.29.38,0,.66-.12.83-.36.18-.25.27-.58.27-1v-2.6ZM73.42,133.81h-1.26v-4.96h1.26v.74h.18c.11-.28.3-.5.55-.65.25-.15.55-.23.89-.23.24,0,.46.04.67.12.21.07.4.19.56.35.16.16.28.36.37.61.09.25.14.54.14.88v3.14h-1.26v-2.82c0-.35-.09-.63-.26-.83-.17-.21-.41-.31-.73-.31-.37,0-.65.13-.84.38-.18.25-.27.58-.27,1v2.58ZM83.12,131.99c-.11.59-.38,1.06-.81,1.42-.42.36-.98.54-1.69.54-.37,0-.71-.06-1.03-.17-.31-.11-.59-.28-.82-.49-.23-.21-.42-.48-.55-.79-.13-.31-.2-.67-.2-1.07v-.12c0-.4.07-.76.2-1.08.13-.32.32-.59.55-.82.24-.23.52-.4.83-.52.32-.12.66-.18,1.02-.18.69,0,1.25.18,1.68.54.43.36.71.83.82,1.42l-1.24.32c-.04-.29-.17-.55-.38-.76-.21-.21-.51-.32-.9-.32-.18,0-.35.03-.51.1-.16.07-.3.16-.42.29-.12.12-.22.27-.29.45-.07.17-.1.37-.1.59v.06c0,.22.03.42.1.59.07.17.17.31.29.42.12.11.26.2.42.26.16.05.33.08.51.08.39,0,.68-.1.88-.29.21-.19.34-.45.4-.78l1.24.31ZM84.26,128.85h1.47v-2.04h1.26v2.04h1.79v1.2h-1.79v2.26c0,.2.09.3.27.3h1.34v1.2h-2.1c-.23,0-.41-.07-.56-.22-.14-.15-.21-.33-.21-.56v-2.98h-1.47v-1.2ZM93.89,128.85h1.26v4.96h-1.26v-.72h-.18c-.22.57-.69.86-1.42.86-.25,0-.48-.04-.69-.12-.21-.08-.4-.2-.56-.37-.16-.17-.29-.37-.38-.62-.09-.25-.13-.55-.13-.89v-3.1h1.26v2.84c0,.35.08.63.25.83.17.19.42.29.75.29.38,0,.66-.12.83-.36.18-.25.27-.58.27-1v-2.6ZM99.86,133.09c-.13.31-.32.54-.56.67-.24.13-.52.19-.84.19-.3,0-.58-.06-.85-.17-.26-.11-.49-.28-.69-.5-.2-.22-.36-.49-.48-.8-.11-.31-.17-.67-.17-1.07v-.16c0-.39.06-.75.17-1.06.11-.31.27-.58.46-.8.19-.22.42-.39.67-.5.26-.12.54-.18.83-.18.35,0,.64.06.85.18.22.12.39.31.52.56h.18v-.6h1.26v3.46c0,.2.09.3.27.3h.19v1.2h-.86c-.23,0-.41-.07-.56-.2-.14-.13-.21-.31-.21-.52h-.18ZM98.74,132.75c.37,0,.66-.12.88-.36.22-.25.33-.58.33-1v-.12c0-.42-.11-.75-.33-.99-.22-.25-.51-.37-.88-.37s-.66.12-.88.37c-.22.24-.33.57-.33.99v.12c0,.42.11.75.33,1,.22.24.51.36.88.36ZM102.63,128.85h1.47v-2.04h1.26v2.04h1.79v1.2h-1.79v2.26c0,.2.09.3.27.3h1.34v1.2h-2.1c-.23,0-.41-.07-.56-.22-.14-.15-.21-.33-.21-.56v-2.98h-1.47v-1.2ZM108.99,132.61h1.68v-2.56h-1.56v-1.2h2.82v3.76h1.44v1.2h-4.38v-1.2ZM112.24,127.38c0,.13-.03.26-.08.38-.05.11-.11.21-.2.3-.09.08-.19.15-.31.2-.11.05-.23.07-.36.07s-.26-.02-.37-.07c-.11-.05-.21-.12-.3-.2-.09-.09-.16-.19-.21-.3-.05-.12-.07-.25-.07-.38s.02-.26.07-.37c.05-.12.12-.22.21-.3.09-.09.19-.15.3-.2.11-.05.24-.08.37-.08s.25.03.36.08c.12.05.22.11.31.2.09.08.15.18.2.3.05.11.08.24.08.37ZM119.88,131.39c0,.41-.07.78-.21,1.1-.14.31-.33.58-.57.8-.24.21-.52.38-.83.49-.31.11-.63.17-.97.17s-.67-.06-.98-.17c-.31-.11-.58-.28-.82-.49-.24-.22-.43-.49-.57-.8-.14-.32-.21-.69-.21-1.1v-.12c0-.41.07-.77.21-1.08.14-.32.33-.59.57-.81s.51-.39.82-.5c.31-.11.64-.17.98-.17s.66.06.97.17c.31.11.59.28.83.5s.43.49.57.81c.14.31.21.67.21,1.08v.12ZM117.3,132.75c.18,0,.35-.03.51-.09.16-.06.3-.15.42-.26.12-.11.21-.25.28-.41.07-.17.11-.35.11-.56v-.2c0-.21-.04-.39-.11-.55-.07-.17-.16-.31-.28-.42-.12-.11-.26-.2-.42-.26-.16-.06-.33-.09-.51-.09s-.35.03-.51.09c-.16.06-.3.15-.42.26-.12.11-.22.25-.29.42-.07.16-.1.34-.1.55v.2c0,.21.03.39.1.56.07.16.17.3.29.41.12.11.26.2.42.26.16.06.33.09.51.09ZM122.4,133.81h-1.26v-4.96h1.26v.74h.18c.11-.28.3-.5.55-.65.25-.15.55-.23.89-.23.24,0,.46.04.67.12.21.07.4.19.56.35.16.16.28.36.37.61.09.25.14.54.14.88v3.14h-1.26v-2.82c0-.35-.09-.63-.26-.83-.17-.21-.41-.31-.73-.31-.37,0-.65.13-.84.38-.18.25-.27.58-.27,1v2.58ZM128.6,133c0-.13.02-.25.07-.36.05-.12.12-.22.21-.3.09-.09.19-.15.3-.2.11-.05.24-.08.37-.08s.25.03.36.08c.12.05.22.11.31.2.09.08.15.18.2.3.05.11.08.23.08.36v1.22c0,.25-.09.47-.26.64-.17.17-.38.26-.63.26h-.64v-.78h.48c.18,0,.27-.1.27-.3v-.12c-.05.02-.11.03-.17.03-.13,0-.26-.03-.37-.08-.11-.05-.21-.11-.3-.2-.09-.09-.16-.19-.21-.3-.05-.11-.07-.24-.07-.37ZM144.35,131.99c-.11.59-.38,1.06-.81,1.42-.42.36-.98.54-1.69.54-.37,0-.71-.06-1.03-.17-.31-.11-.59-.28-.82-.49-.23-.21-.42-.48-.55-.79-.13-.31-.2-.67-.2-1.07v-.12c0-.4.07-.76.2-1.08.13-.32.32-.59.55-.82.24-.23.52-.4.83-.52.32-.12.66-.18,1.02-.18.69,0,1.25.18,1.68.54.43.36.71.83.82,1.42l-1.24.32c-.04-.29-.17-.55-.38-.76s-.51-.32-.9-.32c-.18,0-.35.03-.51.1-.16.07-.3.16-.42.29-.12.12-.22.27-.29.45-.07.17-.1.37-.1.59v.06c0,.22.03.42.1.59.07.17.17.31.29.42.12.11.26.2.42.26.16.05.33.08.51.08.39,0,.68-.1.88-.29.21-.19.34-.45.4-.78l1.24.31ZM148.84,133.09c-.13.31-.32.54-.56.67-.24.13-.52.19-.84.19-.3,0-.58-.06-.85-.17-.26-.11-.49-.28-.69-.5-.2-.22-.36-.49-.48-.8-.11-.31-.17-.67-.17-1.07v-.16c0-.39.06-.75.17-1.06.11-.31.27-.58.46-.8.19-.22.42-.39.67-.5.26-.12.54-.18.83-.18.35,0,.64.06.85.18.22.12.39.31.52.56h.18v-.6h1.26v3.46c0,.2.09.3.27.3h.19v1.2h-.86c-.23,0-.41-.07-.56-.2-.14-.13-.21-.31-.21-.52h-.18ZM147.72,132.75c.37,0,.66-.12.88-.36.22-.25.33-.58.33-1v-.12c0-.42-.11-.75-.33-.99-.22-.25-.51-.37-.88-.37s-.66.12-.88.37c-.22.24-.33.57-.33.99v.12c0,.42.11.75.33,1,.22.24.51.36.88.36ZM153.34,130.25c0,.16.08.28.25.35.17.07.47.12.91.17.51.05.92.21,1.24.46.32.25.48.59.48,1.04v.06c0,.49-.18.89-.54,1.18-.36.29-.87.44-1.52.44-.39,0-.72-.05-.99-.15-.27-.1-.5-.22-.68-.37-.18-.15-.32-.32-.42-.5-.09-.19-.16-.37-.19-.54l1.16-.38c.05.21.16.4.33.56.17.16.44.24.79.24.31,0,.53-.05.64-.14.12-.1.18-.21.18-.32,0-.07-.02-.13-.05-.18-.03-.06-.08-.11-.16-.16-.08-.05-.19-.1-.33-.13-.13-.03-.3-.06-.51-.08-.56-.05-1.01-.19-1.34-.43-.33-.25-.49-.61-.49-1.08v-.06c0-.25.05-.46.16-.65.11-.19.25-.34.42-.47.17-.13.37-.23.6-.3.23-.07.46-.1.7-.1.31,0,.58.04.81.12.23.07.43.17.59.3.16.12.29.26.39.41.1.15.18.29.23.43l-1.14.46c-.06-.18-.16-.32-.31-.42-.15-.11-.34-.16-.57-.16-.21,0-.37.04-.48.12-.11.07-.16.17-.16.28ZM158.99,131.74c0,.15.04.28.1.41.07.12.15.23.26.32.11.09.24.16.38.21.15.05.3.07.46.07.31,0,.55-.05.72-.16.17-.11.29-.25.36-.4l1.08.6c-.06.13-.14.26-.25.4-.11.13-.25.26-.42.37-.17.11-.37.21-.62.28-.24.07-.52.11-.85.11-.37,0-.71-.06-1.02-.18-.31-.12-.57-.29-.8-.52-.22-.23-.39-.5-.52-.83-.12-.33-.18-.7-.18-1.11v-.06c0-.38.06-.73.19-1.04.13-.31.31-.58.54-.8.23-.22.49-.39.79-.51.31-.13.63-.19.98-.19.43,0,.79.08,1.1.23.31.15.56.34.76.57.2.23.35.48.44.76.09.27.14.54.14.8v.67h-3.64ZM160.18,129.85c-.32,0-.58.08-.78.25-.2.16-.33.35-.39.56h2.34c-.04-.23-.17-.43-.38-.58-.21-.15-.47-.23-.79-.23ZM165.33,133c0-.13.02-.25.07-.36.05-.12.12-.22.21-.3.09-.09.19-.15.3-.2.11-.05.24-.08.37-.08s.25.03.36.08c.12.05.22.11.31.2.09.08.15.18.2.3.05.11.08.23.08.36v1.22c0,.25-.09.47-.26.64-.17.17-.38.26-.63.26h-.64v-.78h.48c.18,0,.27-.1.27-.3v-.12c-.05.02-.11.03-.17.03-.13,0-.26-.03-.37-.08-.11-.05-.21-.11-.3-.2-.09-.09-.16-.19-.21-.3-.05-.11-.07-.24-.07-.37ZM179.46,133.09c-.13.31-.32.54-.56.67-.24.13-.52.19-.84.19-.3,0-.58-.06-.85-.17-.26-.11-.49-.28-.69-.5s-.36-.49-.48-.8c-.11-.31-.17-.67-.17-1.07v-.16c0-.39.06-.75.17-1.06.11-.31.27-.58.46-.8.19-.22.42-.39.67-.5.26-.12.54-.18.83-.18.35,0,.64.06.85.18.22.12.39.31.52.56h.18v-.6h1.26v3.46c0,.2.09.3.27.3h.19v1.2h-.86c-.23,0-.41-.07-.56-.2-.14-.13-.21-.31-.21-.52h-.18ZM178.34,132.75c.37,0,.66-.12.88-.36.22-.25.33-.58.33-1v-.12c0-.42-.11-.75-.33-.99-.22-.25-.51-.37-.88-.37s-.66.12-.88.37c-.22.24-.33.57-.33.99v.12c0,.42.11.75.33,1,.22.24.51.36.88.36ZM183.63,133.81h-1.26v-4.96h1.26v.74h.18c.11-.28.3-.5.55-.65.25-.15.55-.23.89-.23.24,0,.46.04.67.12.21.07.4.19.56.35.16.16.28.36.37.61.09.25.14.54.14.88v3.14h-1.26v-2.82c0-.35-.09-.63-.26-.83-.17-.21-.41-.31-.73-.31-.37,0-.65.13-.84.38-.18.25-.27.58-.27,1v2.58ZM192.06,133.09h-.18c-.05.11-.12.22-.2.33-.07.1-.17.19-.3.27-.12.08-.27.14-.44.19-.17.05-.37.07-.61.07-.31,0-.59-.05-.86-.16-.26-.11-.49-.28-.69-.49-.19-.22-.35-.49-.46-.8-.11-.31-.16-.67-.16-1.08v-.18c0-.4.06-.76.17-1.07.12-.31.28-.58.48-.79.21-.22.44-.39.71-.5.27-.11.56-.17.86-.17.4,0,.72.08.95.23.23.15.42.36.55.63h.18v-2.76h1.26v7h-1.26v-.72ZM190.74,132.75c.39,0,.71-.12.95-.37.25-.25.37-.58.37-.99v-.12c0-.41-.12-.73-.37-.98-.24-.25-.56-.38-.95-.38s-.71.12-.96.37-.36.57-.36.99v.12c0,.42.12.75.36,1,.25.24.57.36.96.36ZM202.32,130.25c0,.16.08.28.25.35.17.07.47.12.91.17.51.05.92.21,1.24.46.32.25.48.59.48,1.04v.06c0,.49-.18.89-.54,1.18-.36.29-.87.44-1.52.44-.39,0-.72-.05-.99-.15-.27-.1-.5-.22-.68-.37-.18-.15-.32-.32-.42-.5-.09-.19-.16-.37-.19-.54l1.16-.38c.05.21.16.4.33.56.17.16.44.24.79.24.31,0,.53-.05.64-.14.12-.1.18-.21.18-.32,0-.07-.02-.13-.05-.18-.03-.06-.08-.11-.16-.16-.08-.05-.19-.1-.33-.13-.13-.03-.3-.06-.51-.08-.56-.05-1.01-.19-1.34-.43-.33-.25-.49-.61-.49-1.08v-.06c0-.25.05-.46.16-.65.11-.19.25-.34.42-.47.17-.13.37-.23.6-.3.23-.07.46-.1.7-.1.31,0,.58.04.81.12.23.07.43.17.59.3.16.12.29.26.39.41.1.15.18.29.23.43l-1.14.46c-.06-.18-.16-.32-.31-.42-.15-.11-.34-.16-.57-.16-.21,0-.37.04-.48.12-.11.07-.16.17-.16.28ZM207.87,135.81h-1.26v-6.96h1.26v.72h.18c.13-.27.33-.48.58-.63.25-.15.58-.23.97-.23.29,0,.57.06.83.17.27.11.5.28.69.5.2.21.36.48.47.79.12.31.18.67.18,1.07v.18c0,.41-.06.77-.17,1.08-.11.31-.27.58-.46.8-.19.21-.42.38-.69.49-.26.11-.54.16-.85.16-.23,0-.42-.02-.59-.07-.17-.05-.31-.11-.44-.19-.12-.08-.22-.17-.31-.27-.08-.11-.15-.22-.21-.33h-.18v2.72ZM209.18,132.75c.39,0,.71-.12.95-.36.25-.25.37-.58.37-1v-.12c0-.42-.12-.75-.37-.99-.24-.25-.56-.37-.95-.37s-.71.13-.96.38c-.24.25-.36.57-.36.98v.12c0,.41.12.74.36.99.25.25.57.37.96.37ZM216.2,133.09c-.13.31-.32.54-.56.67-.24.13-.52.19-.84.19-.3,0-.58-.06-.85-.17-.26-.11-.49-.28-.69-.5s-.36-.49-.48-.8c-.11-.31-.17-.67-.17-1.07v-.16c0-.39.06-.75.17-1.06.11-.31.27-.58.46-.8.19-.22.42-.39.67-.5.26-.12.54-.18.83-.18.35,0,.64.06.85.18.22.12.39.31.52.56h.18v-.6h1.26v3.46c0,.2.09.3.27.3h.19v1.2h-.86c-.23,0-.41-.07-.56-.2-.14-.13-.21-.31-.21-.52h-.18ZM215.08,132.75c.37,0,.66-.12.88-.36.22-.25.33-.58.33-1v-.12c0-.42-.11-.75-.33-.99-.22-.25-.51-.37-.88-.37s-.66.12-.88.37c-.22.24-.33.57-.33.99v.12c0,.42.11.75.33,1,.22.24.51.36.88.36ZM223.95,131.99c-.11.59-.38,1.06-.81,1.42-.42.36-.98.54-1.69.54-.37,0-.71-.06-1.03-.17-.31-.11-.59-.28-.82-.49-.23-.21-.42-.48-.55-.79-.13-.31-.2-.67-.2-1.07v-.12c0-.4.07-.76.2-1.08.13-.32.32-.59.55-.82.24-.23.52-.4.83-.52.32-.12.66-.18,1.02-.18.69,0,1.25.18,1.68.54.43.36.71.83.82,1.42l-1.24.32c-.04-.29-.17-.55-.38-.76-.21-.21-.51-.32-.9-.32-.18,0-.35.03-.51.1-.16.07-.3.16-.42.29-.12.12-.22.27-.29.45-.07.17-.1.37-.1.59v.06c0,.22.03.42.1.59.07.17.17.31.29.42.12.11.26.2.42.26.16.05.33.08.51.08.39,0,.68-.1.88-.29.21-.19.34-.45.4-.78l1.24.31ZM225.32,132.61h1.68v-2.56h-1.56v-1.2h2.82v3.76h1.44v1.2h-4.38v-1.2ZM228.57,127.38c0,.13-.03.26-.08.38-.05.11-.11.21-.2.3-.09.08-.19.15-.31.2-.11.05-.23.07-.36.07s-.26-.02-.37-.07c-.11-.05-.21-.12-.3-.2-.09-.09-.16-.19-.21-.3-.05-.12-.07-.25-.07-.38s.02-.26.07-.37c.05-.12.12-.22.21-.3.09-.09.19-.15.3-.2.11-.05.24-.08.37-.08s.25.03.36.08c.12.05.22.11.31.2.09.08.15.18.2.3.05.11.08.24.08.37ZM232.62,133.81h-1.26v-4.96h1.26v.74h.18c.11-.28.3-.5.55-.65.25-.15.55-.23.89-.23.24,0,.46.04.67.12.21.07.4.19.56.35s.28.36.37.61c.09.25.14.54.14.88v3.14h-1.26v-2.82c0-.35-.09-.63-.26-.83-.17-.21-.41-.31-.73-.31-.37,0-.65.13-.84.38-.18.25-.27.58-.27,1v2.58ZM241.02,133.09h-.18c-.05.11-.12.22-.2.33-.07.1-.17.19-.3.27-.12.08-.27.14-.44.19-.17.05-.37.07-.61.07-.31,0-.59-.05-.86-.16-.26-.11-.49-.28-.69-.49-.19-.22-.35-.49-.46-.8-.11-.31-.16-.67-.16-1.08v-.18c0-.4.06-.76.17-1.07.12-.31.28-.58.48-.79.21-.22.44-.39.71-.5.27-.11.56-.17.86-.17.4,0,.72.08.95.23.23.15.42.36.55.63h.18v-.72h1.26v6.18c0,.23-.07.41-.22.56-.14.15-.32.22-.55.22h-3.34v-1.2h2.58c.18,0,.27-.1.27-.3v-1.22ZM239.7,132.75c.39,0,.71-.12.95-.37.25-.25.37-.58.37-.99v-.12c0-.41-.12-.73-.37-.98-.24-.25-.56-.38-.95-.38s-.71.12-.96.37c-.24.24-.36.57-.36.99v.12c0,.42.12.75.36,1,.25.24.57.36.96.36ZM246.83,133c0,.13-.03.26-.08.38-.05.11-.11.21-.2.3-.09.08-.19.14-.31.19-.11.05-.23.08-.36.08s-.26-.03-.37-.08c-.11-.05-.21-.11-.3-.19-.09-.09-.16-.19-.21-.3-.05-.12-.07-.25-.07-.38s.02-.26.07-.37c.05-.12.12-.22.21-.3.09-.09.19-.15.3-.2.11-.05.24-.08.37-.08s.25.03.36.08c.12.05.22.11.31.2.09.08.15.18.2.3.05.11.08.24.08.37ZM51.37,148.4l-.73-.73-.33-.74-.16.07.28.73v1.06h-.96v-1.06l.28-.73-.16-.07-.33.74-.73.73-.67-.67.73-.73.74-.33-.07-.16-.73.28h-1.06v-.96h1.06l.73.28.07-.16-.74-.33-.73-.73.67-.67.73.73.33.74.16-.07-.28-.73v-1.06h.96v1.06l-.28.73.16.07.33-.74.73-.73.67.67-.73.73-.74.33.07.16.73-.28h1.06v.96h-1.06l-.73-.28-.07.16.74.33.73.73-.67.67ZM57,141.56l1.14.36-2.99,9.14-1.15-.36,3-9.14Z"/>
  <line class="cls-6" x1="36.76" y1="77.4" x2="36.76" y2="149.4"/>
  <path class="cls-2" d="M213.99,19.15l1.14.36-2.99,9.14-1.15-.36,3-9.14ZM220.11,19.15l1.14.36-2.99,9.14-1.15-.36,3-9.14ZM224.29,24.76v2.64h-1.32v-7h2.74c.36,0,.67.06.94.18.27.11.49.27.66.46.18.19.31.4.4.65.09.24.14.49.14.74v.24c0,.26-.05.52-.14.77-.09.25-.22.47-.4.67-.17.19-.39.35-.66.47s-.58.18-.94.18h-1.42ZM224.29,23.5h1.29c.29,0,.52-.08.69-.24.17-.16.26-.37.26-.62v-.12c0-.25-.09-.46-.26-.62-.17-.16-.4-.24-.69-.24h-1.29v1.84ZM232.36,26.68c-.13.31-.32.54-.56.67-.24.13-.52.19-.84.19-.3,0-.58-.06-.85-.17-.26-.11-.49-.28-.69-.5-.2-.22-.36-.49-.48-.8-.11-.31-.17-.67-.17-1.07v-.16c0-.39.06-.75.17-1.06.11-.31.27-.58.46-.8.19-.22.42-.39.67-.5.26-.12.54-.18.83-.18.35,0,.64.06.85.18.22.12.39.31.52.56h.18v-.6h1.26v3.46c0,.2.09.3.27.3h.19v1.2h-.86c-.23,0-.41-.07-.56-.2-.14-.13-.21-.31-.21-.52h-.18ZM231.24,26.34c.37,0,.66-.12.88-.36.22-.25.33-.58.33-1v-.12c0-.42-.11-.75-.33-.99-.22-.25-.51-.37-.88-.37s-.66.12-.88.37c-.22.24-.33.57-.33.99v.12c0,.42.11.75.33,1,.22.24.51.36.88.36ZM235.24,26.2h1.74v-4.6h-1.68v-1.2h2.94v5.8h1.62v1.2h-4.62v-1.2ZM242.51,25.33c0,.15.04.28.1.41.07.12.15.23.26.32.11.09.24.16.38.21.15.05.3.07.46.07.31,0,.55-.05.72-.16.17-.11.29-.25.36-.4l1.08.6c-.06.13-.14.26-.25.4-.11.13-.25.26-.42.37-.17.11-.37.21-.62.28-.24.07-.52.11-.85.11-.37,0-.71-.06-1.02-.18-.31-.12-.57-.29-.8-.52-.22-.23-.39-.5-.52-.83-.12-.33-.18-.7-.18-1.11v-.06c0-.38.06-.73.19-1.04.13-.31.31-.58.54-.8.23-.22.49-.39.79-.51.31-.13.63-.19.98-.19.43,0,.79.08,1.1.23.31.15.56.34.76.57.2.23.35.48.44.76.09.27.14.54.14.8v.67h-3.64ZM243.7,23.44c-.32,0-.58.08-.78.25-.2.16-.33.35-.39.56h2.34c-.04-.23-.17-.43-.38-.58-.21-.15-.47-.23-.79-.23ZM248.78,27.4h-1.26v-4.96h1.26v.74h.18c.11-.28.3-.5.55-.65.25-.15.55-.23.89-.23.24,0,.46.04.67.12.21.07.4.19.56.35.16.16.28.36.37.61.09.25.14.54.14.88v3.14h-1.26v-2.82c0-.35-.09-.63-.26-.83-.17-.21-.41-.31-.73-.31-.37,0-.65.13-.84.38-.18.25-.27.58-.27,1v2.58ZM257.2,26.68h-.18c-.05.11-.12.22-.2.33-.07.1-.17.19-.3.27-.12.08-.27.14-.44.19-.17.05-.37.07-.61.07-.31,0-.59-.05-.86-.16-.26-.11-.49-.28-.69-.49-.19-.22-.35-.49-.46-.8-.11-.31-.16-.67-.16-1.08v-.18c0-.4.06-.76.17-1.07.12-.31.28-.58.48-.79.21-.22.44-.39.71-.5.27-.11.56-.17.86-.17.4,0,.72.08.95.23.23.15.42.36.55.63h.18v-2.76h1.26v7h-1.26v-.72ZM255.88,26.34c.39,0,.71-.12.95-.37.25-.25.37-.58.37-.99v-.12c0-.41-.12-.73-.37-.98-.24-.25-.56-.38-.95-.38s-.71.12-.96.37c-.24.24-.36.57-.36.99v.12c0,.42.12.75.36,1,.25.24.57.36.96.36ZM259.52,22.44h2.1v.72h.18c.09-.27.25-.48.47-.63.23-.15.5-.23.81-.23.49,0,.89.16,1.19.47.3.31.45.78.45,1.41v.22l-1.3.12v-.14c0-.27-.07-.49-.21-.65-.14-.17-.35-.25-.63-.25s-.5.1-.66.29c-.16.19-.24.47-.24.83v1.6h1.14v1.2h-3.42v-1.2h1.02v-2.56h-.9v-1.2ZM270.75,24.98c0,.41-.07.78-.21,1.1-.14.31-.33.58-.57.8-.24.21-.52.38-.83.49-.31.11-.63.17-.97.17s-.67-.06-.98-.17c-.31-.11-.58-.28-.82-.49-.24-.22-.43-.49-.57-.8-.14-.32-.21-.69-.21-1.1v-.12c0-.41.07-.77.21-1.08.14-.32.33-.59.57-.81s.51-.39.82-.5c.31-.11.64-.17.98-.17s.66.06.97.17c.31.11.59.28.83.5.24.22.43.49.57.81.14.31.21.67.21,1.08v.12ZM268.17,26.34c.18,0,.35-.03.51-.09.16-.06.3-.15.42-.26.12-.11.21-.25.28-.41.07-.17.11-.35.11-.56v-.2c0-.21-.04-.39-.11-.55-.07-.17-.16-.31-.28-.42-.12-.11-.26-.2-.42-.26-.16-.06-.33-.09-.51-.09s-.35.03-.51.09c-.16.06-.3.15-.42.26s-.22.25-.29.42c-.07.16-.1.34-.1.55v.2c0,.21.03.39.1.56.07.16.17.3.29.41s.26.2.42.26c.16.06.33.09.51.09ZM276.99,27.4h-1.26v-3.48c0-.14-.04-.24-.11-.31-.07-.07-.16-.11-.27-.11-.13,0-.24.04-.32.12-.07.08-.11.2-.11.36v3.42h-1.26v-3.48c0-.14-.04-.24-.12-.31-.07-.07-.16-.11-.27-.11-.12,0-.22.04-.3.12-.08.08-.12.2-.12.36v3.42h-1.26v-4.96h1.26v.48h.18c.04-.18.13-.33.27-.44.15-.12.34-.18.57-.18.22,0,.41.06.56.18.15.11.26.26.31.44h.18c.05-.18.16-.33.33-.44.17-.12.39-.18.64-.18.33,0,.6.11.8.34.2.22.3.53.3.92v3.84ZM279.24,25.33c0,.15.04.28.1.41.07.12.15.23.26.32.11.09.24.16.38.21.15.05.3.07.46.07.31,0,.55-.05.72-.16.17-.11.29-.25.36-.4l1.08.6c-.06.13-.14.26-.25.4-.11.13-.25.26-.42.37-.17.11-.37.21-.62.28-.24.07-.52.11-.85.11-.37,0-.71-.06-1.02-.18-.31-.12-.57-.29-.8-.52-.22-.23-.39-.5-.52-.83-.12-.33-.18-.7-.18-1.11v-.06c0-.38.06-.73.19-1.04.13-.31.31-.58.54-.8.23-.22.49-.39.79-.51.31-.13.63-.19.98-.19.43,0,.79.08,1.1.23.31.15.56.34.76.57.2.23.35.48.44.76.09.27.14.54.14.8v.67h-3.64ZM280.43,23.44c-.32,0-.58.08-.78.25-.2.16-.33.35-.39.56h2.34c-.04-.23-.17-.43-.38-.58-.21-.15-.47-.23-.79-.23ZM292.68,26.34c.25,0,.46-.04.62-.11.17-.08.29-.18.38-.31.09-.13.16-.28.19-.45.03-.17.05-.35.05-.53v-.18h1.32v.18c0,.83-.22,1.48-.66,1.93-.43.45-1.07.67-1.9.67s-1.43-.24-1.9-.73c-.47-.49-.7-1.2-.7-2.13v-1.56c0-.45.06-.85.18-1.2.12-.36.29-.66.52-.9.23-.25.5-.43.82-.56.32-.13.68-.2,1.08-.2s.78.06,1.1.18c.32.12.59.29.8.52.22.23.38.5.49.82.11.32.17.68.17,1.08v.18h-1.32v-.18c0-.17-.02-.33-.06-.5-.04-.17-.11-.32-.2-.45-.09-.13-.22-.24-.38-.32-.16-.09-.36-.13-.6-.13-.22,0-.41.04-.57.13-.16.08-.29.19-.4.34-.11.14-.19.31-.24.5-.05.19-.07.38-.07.59v1.76c0,.23.02.44.07.63.05.19.12.35.22.49s.23.25.39.33c.17.07.37.11.6.11ZM297.78,27.4h-1.26v-7h1.26v2.84h.18c.13-.3.31-.53.56-.69.25-.17.55-.25.91-.25.25,0,.47.04.68.12.21.08.39.2.54.36.15.16.27.37.36.62.09.25.13.54.13.88v3.12h-1.26v-2.82c0-.35-.09-.63-.26-.83-.17-.21-.41-.31-.73-.31-.37,0-.65.13-.84.38-.18.25-.27.58-.27,1v2.58ZM303.74,25.33c0,.15.04.28.1.41.07.12.15.23.26.32.11.09.24.16.38.21.15.05.3.07.46.07.31,0,.55-.05.72-.16.17-.11.29-.25.36-.4l1.08.6c-.06.13-.14.26-.25.4-.11.13-.25.26-.42.37-.17.11-.37.21-.62.28-.24.07-.52.11-.85.11-.37,0-.71-.06-1.02-.18-.31-.12-.57-.29-.8-.52-.22-.23-.39-.5-.52-.83-.12-.33-.18-.7-.18-1.11v-.06c0-.38.06-.73.19-1.04.13-.31.31-.58.54-.8.23-.22.49-.39.79-.51.31-.13.63-.19.98-.19.43,0,.79.08,1.1.23.31.15.56.34.76.57.2.23.35.48.44.76.09.27.14.54.14.8v.67h-3.64ZM304.93,23.44c-.32,0-.58.08-.78.25-.2.16-.33.35-.39.56h2.34c-.04-.23-.17-.43-.38-.58-.21-.15-.47-.23-.79-.23ZM313.59,25.58c-.11.59-.38,1.06-.81,1.42-.42.36-.98.54-1.69.54-.37,0-.71-.06-1.03-.17-.31-.11-.59-.28-.82-.49-.23-.21-.42-.48-.55-.79-.13-.31-.2-.67-.2-1.07v-.12c0-.4.07-.76.2-1.08.13-.32.32-.59.55-.82.24-.23.52-.4.83-.52.32-.12.66-.18,1.02-.18.69,0,1.25.18,1.68.54.43.36.71.83.82,1.42l-1.24.32c-.04-.29-.17-.55-.38-.76-.21-.21-.51-.32-.9-.32-.18,0-.35.03-.51.1s-.3.16-.42.29c-.12.12-.22.27-.29.45-.07.17-.1.37-.1.59v.06c0,.22.03.42.1.59.07.17.17.31.29.42s.26.2.42.26c.16.05.33.08.51.08.39,0,.68-.1.88-.29.21-.19.34-.45.4-.78l1.24.31ZM316.53,24.26h.24l1.32-1.82h1.38v.06l-1.6,2.27v.18l1.76,2.39v.06h-1.44l-1.42-1.94h-.24v1.94h-1.26v-7h1.26v3.86ZM322.11,25.33c0,.15.04.28.1.41.07.12.15.23.26.32.11.09.24.16.38.21.15.05.3.07.46.07.31,0,.55-.05.72-.16.17-.11.29-.25.36-.4l1.08.6c-.06.13-.14.26-.25.4-.11.13-.25.26-.42.37-.17.11-.37.21-.62.28-.24.07-.52.11-.85.11-.37,0-.71-.06-1.02-.18-.31-.12-.57-.29-.8-.52-.22-.23-.39-.5-.52-.83-.12-.33-.18-.7-.18-1.11v-.06c0-.38.06-.73.19-1.04.13-.31.31-.58.54-.8.23-.22.49-.39.79-.51.31-.13.63-.19.98-.19.43,0,.79.08,1.1.23.31.15.56.34.76.57.2.23.35.48.44.76.09.27.14.54.14.8v.67h-3.64ZM323.3,23.44c-.32,0-.58.08-.78.25-.2.16-.33.35-.39.56h2.34c-.04-.23-.17-.43-.38-.58-.21-.15-.47-.23-.79-.23ZM326.88,22.44h2.1v.72h.18c.09-.27.25-.48.47-.63.23-.15.5-.23.81-.23.49,0,.89.16,1.19.47.3.31.45.78.45,1.41v.22l-1.3.12v-.14c0-.27-.07-.49-.21-.65-.14-.17-.35-.25-.63-.25s-.5.1-.66.29c-.16.19-.24.47-.24.83v1.6h1.14v1.2h-3.42v-1.2h1.02v-2.56h-.9v-1.2Z"/>
  <rect class="cls-4" x="18.13" y="176.4" width="315.25" height="20"/>
  <path class="cls-1" d="M42.53,185.04c0-.28-.11-.52-.33-.73-.21-.21-.52-.31-.91-.31-.33,0-.6.07-.79.21-.19.13-.29.32-.29.55,0,.12.02.23.07.33.05.09.13.18.24.26.12.07.27.14.46.2.19.06.44.12.73.17.73.13,1.29.36,1.68.67.39.31.58.78.58,1.39v.12c0,.33-.06.62-.18.89-.11.26-.28.48-.5.67-.22.19-.49.33-.8.43-.31.1-.67.15-1.06.15-.46,0-.87-.06-1.22-.19-.35-.13-.64-.31-.87-.54-.23-.23-.41-.5-.53-.81-.12-.31-.18-.65-.18-1.02v-.3h1.32v.24c0,.42.12.76.36,1.01.25.25.63.37,1.14.37.4,0,.7-.09.89-.26.19-.17.29-.38.29-.62,0-.11-.02-.22-.06-.32-.04-.11-.11-.2-.21-.28-.1-.09-.24-.16-.41-.23-.17-.07-.39-.12-.66-.17-.35-.06-.68-.14-.97-.23-.29-.1-.55-.23-.77-.39-.21-.16-.38-.36-.5-.6-.12-.24-.18-.53-.18-.88v-.06c0-.29.06-.55.17-.79.12-.25.28-.46.49-.64.21-.18.47-.32.76-.42.3-.1.63-.15,1-.15.41,0,.78.06,1.1.18.32.11.59.27.8.47.22.2.38.43.49.69.11.26.17.53.17.82v.36h-1.32v-.24ZM46.29,187.83c0,.15.04.28.1.41.07.12.15.23.26.32.11.09.24.16.38.21.15.05.3.07.46.07.31,0,.55-.05.72-.16.17-.11.29-.25.36-.4l1.08.6c-.06.13-.14.26-.25.4-.11.13-.25.26-.42.37-.17.11-.37.21-.62.28-.24.07-.52.11-.85.11-.37,0-.71-.06-1.02-.18-.31-.12-.57-.29-.8-.52-.22-.23-.39-.5-.52-.83-.12-.33-.18-.7-.18-1.11v-.06c0-.38.06-.73.19-1.04.13-.31.31-.58.54-.8.23-.22.49-.39.79-.51.31-.13.63-.19.98-.19.43,0,.79.08,1.1.23.31.15.56.34.76.57.2.23.35.48.44.76.09.27.14.54.14.8v.67h-3.64ZM47.48,185.94c-.32,0-.58.08-.78.25-.2.16-.33.35-.39.56h2.34c-.04-.23-.17-.43-.38-.58-.21-.15-.47-.23-.79-.23ZM52.41,187.83c0,.15.04.28.1.41.07.12.15.23.26.32.11.09.24.16.38.21.15.05.3.07.46.07.31,0,.55-.05.72-.16.17-.11.29-.25.36-.4l1.08.6c-.06.13-.14.26-.25.4-.11.13-.25.26-.42.37-.17.11-.37.21-.62.28-.24.07-.52.11-.85.11-.37,0-.71-.06-1.02-.18-.31-.12-.57-.29-.8-.52-.22-.23-.39-.5-.52-.83-.12-.33-.18-.7-.18-1.11v-.06c0-.38.06-.73.19-1.04.13-.31.31-.58.54-.8s.49-.39.79-.51c.31-.13.63-.19.98-.19.43,0,.79.08,1.1.23.31.15.56.34.76.57.2.23.35.48.44.76.09.27.14.54.14.8v.67h-3.64ZM53.6,185.94c-.32,0-.58.08-.78.25-.2.16-.33.35-.39.56h2.34c-.04-.23-.17-.43-.38-.58-.21-.15-.47-.23-.79-.23ZM63.3,182.9h5.04v1.26h-1.86v5.74h-1.32v-5.74h-1.86v-1.26ZM70.95,189.9h-1.26v-7h1.26v2.84h.18c.13-.3.31-.53.56-.69.25-.17.55-.25.91-.25.25,0,.47.04.68.12.21.08.39.2.54.36.15.16.27.37.36.62.09.25.13.54.13.88v3.12h-1.26v-2.82c0-.35-.09-.63-.26-.83-.17-.21-.41-.31-.73-.31-.37,0-.65.13-.84.38-.18.25-.27.58-.27,1v2.58ZM76.9,187.83c0,.15.04.28.1.41.07.12.15.23.26.32.11.09.24.16.38.21.15.05.3.07.46.07.31,0,.55-.05.72-.16.17-.11.29-.25.36-.4l1.08.6c-.06.13-.14.26-.25.4-.11.13-.25.26-.42.37-.17.11-.37.21-.62.28-.24.07-.52.11-.85.11-.37,0-.71-.06-1.02-.18-.31-.12-.57-.29-.8-.52-.22-.23-.39-.5-.52-.83-.12-.33-.18-.7-.18-1.11v-.06c0-.38.06-.73.19-1.04.13-.31.31-.58.54-.8s.49-.39.79-.51c.31-.13.63-.19.98-.19.43,0,.79.08,1.1.23.31.15.56.34.76.57.2.23.35.48.44.76.09.27.14.54.14.8v.67h-3.64ZM78.09,185.94c-.32,0-.58.08-.78.25-.2.16-.33.35-.39.56h2.34c-.04-.23-.17-.43-.38-.58-.21-.15-.47-.23-.79-.23ZM89.3,187.26v2.64h-1.32v-7h2.74c.36,0,.67.06.94.18.27.11.49.27.66.46.18.19.31.4.4.65.09.24.14.49.14.74v.24c0,.26-.05.52-.14.77-.09.25-.22.47-.4.67-.17.19-.39.35-.66.47-.27.12-.58.18-.94.18h-1.42ZM89.3,186h1.29c.29,0,.52-.08.69-.24.17-.16.26-.37.26-.62v-.12c0-.25-.09-.46-.26-.62-.17-.16-.4-.24-.69-.24h-1.29v1.84ZM93.92,184.94h2.1v.72h.18c.09-.27.25-.48.47-.63.23-.15.5-.23.81-.23.49,0,.89.16,1.19.47.3.31.45.78.45,1.41v.22l-1.3.12v-.14c0-.27-.07-.49-.21-.65-.14-.17-.35-.25-.63-.25s-.5.1-.66.29c-.16.19-.24.47-.24.83v1.6h1.14v1.2h-3.42v-1.2h1.02v-2.56h-.9v-1.2ZM105.14,187.48c0,.41-.07.78-.21,1.1-.14.31-.33.58-.57.8-.24.21-.52.38-.83.49-.31.11-.63.17-.97.17s-.67-.06-.98-.17c-.31-.11-.58-.28-.82-.49-.24-.22-.43-.49-.57-.8-.14-.32-.21-.69-.21-1.1v-.12c0-.41.07-.77.21-1.08.14-.32.33-.59.57-.81.24-.22.51-.39.82-.5.31-.11.64-.17.98-.17s.66.06.97.17c.31.11.59.28.83.5.24.22.43.49.57.81.14.31.21.67.21,1.08v.12ZM102.56,188.84c.18,0,.35-.03.51-.09.16-.06.3-.15.42-.26.12-.11.21-.25.28-.41.07-.17.11-.35.11-.56v-.2c0-.21-.04-.39-.11-.55-.07-.17-.16-.31-.28-.42-.12-.11-.26-.2-.42-.26-.16-.06-.33-.09-.51-.09s-.35.03-.51.09c-.16.06-.3.15-.42.26-.12.11-.22.25-.29.42-.07.16-.1.34-.1.55v.2c0,.21.03.39.1.56.07.16.17.3.29.41.12.11.26.2.42.26.16.06.33.09.51.09ZM106.89,184.94h3.18v5.94c0,.35-.09.6-.28.77-.19.17-.43.25-.73.25h-2.35v-1.2h1.8c.2,0,.3-.11.3-.33v-4.23h-1.92v-1.2ZM110.37,183.47c0,.13-.03.26-.08.38-.05.11-.11.21-.2.3-.09.08-.19.15-.31.2-.11.05-.23.07-.36.07s-.26-.02-.37-.07c-.11-.05-.21-.12-.3-.2-.09-.09-.16-.19-.21-.3-.05-.12-.07-.25-.07-.38s.02-.26.07-.37c.05-.12.12-.22.21-.3.09-.09.19-.15.3-.2.11-.05.24-.08.37-.08s.25.03.36.08c.12.05.22.11.31.2.09.08.15.18.2.3.05.11.08.24.08.37ZM113.64,187.83c0,.15.04.28.1.41.07.12.15.23.26.32.11.09.24.16.38.21.15.05.3.07.46.07.31,0,.55-.05.72-.16.17-.11.29-.25.36-.4l1.08.6c-.06.13-.14.26-.25.4-.11.13-.25.26-.42.37-.17.11-.37.21-.62.28-.24.07-.52.11-.85.11-.37,0-.71-.06-1.02-.18-.31-.12-.57-.29-.8-.52-.22-.23-.39-.5-.52-.83-.12-.33-.18-.7-.18-1.11v-.06c0-.38.06-.73.19-1.04.13-.31.31-.58.54-.8.23-.22.49-.39.79-.51.31-.13.63-.19.98-.19.43,0,.79.08,1.1.23.31.15.56.34.76.57.2.23.35.48.44.76.09.27.14.54.14.8v.67h-3.64ZM114.83,185.94c-.32,0-.58.08-.78.25-.2.16-.33.35-.39.56h2.34c-.04-.23-.17-.43-.38-.58-.21-.15-.47-.23-.79-.23ZM123.49,188.08c-.11.59-.38,1.06-.81,1.42-.42.36-.98.54-1.69.54-.37,0-.71-.06-1.03-.17-.31-.11-.59-.28-.82-.49-.23-.21-.42-.48-.55-.79-.13-.31-.2-.67-.2-1.07v-.12c0-.4.07-.76.2-1.08.13-.32.32-.59.55-.82.24-.23.52-.4.83-.52.32-.12.66-.18,1.02-.18.69,0,1.25.18,1.68.54.43.36.71.83.82,1.42l-1.24.32c-.04-.29-.17-.55-.38-.76-.21-.21-.51-.32-.9-.32-.18,0-.35.03-.51.1-.16.07-.3.16-.42.29-.12.12-.22.27-.29.45-.07.17-.1.37-.1.59v.06c0,.22.03.42.1.59.07.17.17.31.29.42.12.11.26.2.42.26.16.05.33.08.51.08.39,0,.68-.1.88-.29.21-.19.34-.45.4-.78l1.24.31ZM124.64,184.94h1.47v-2.04h1.26v2.04h1.79v1.2h-1.79v2.26c0,.2.09.3.27.3h1.34v1.2h-2.1c-.23,0-.41-.07-.56-.22-.14-.15-.21-.33-.21-.56v-2.98h-1.47v-1.2Z"/>
</svg>