<svg width="27" height="184" viewBox="0 0 27 184" fill="none" xmlns="http://www.w3.org/2000/svg">
<path d="M5.888 4.768C5.888 4.032 6.016 3.37067 6.272 2.784C6.53867 2.208 6.90133 1.75467 7.36 1.424C7.82933 1.09333 8.368 0.922666 8.976 0.911999L8.976 2.464C8.45333 2.51733 8.01067 2.73067 7.648 3.104C7.296 3.488 7.12 4.04267 7.12 4.768C7.12 5.46133 7.29067 6.00533 7.632 6.4C7.984 6.80533 8.432 7.008 8.976 7.008C9.40267 7.008 9.74933 6.89067 10.016 6.656C10.2827 6.42133 10.4853 6.128 10.624 5.776C10.7627 5.424 10.912 4.94933 11.072 4.352C11.264 3.616 11.456 3.024 11.648 2.576C11.84 2.13867 12.1387 1.76 12.544 1.44C12.96 1.13067 13.5147 0.976 14.208 0.976C14.816 0.976 15.3547 1.13067 15.824 1.44C16.2933 1.74933 16.656 2.18133 16.912 2.736C17.168 3.30133 17.296 3.94667 17.296 4.672C17.296 5.71733 17.0347 6.57067 16.512 7.232C15.9893 7.904 15.296 8.28267 14.432 8.368L14.432 6.768C14.8587 6.71467 15.232 6.49067 15.552 6.096C15.8827 5.70133 16.048 5.17867 16.048 4.528C16.048 3.92 15.888 3.424 15.568 3.04C15.2587 2.656 14.8213 2.464 14.256 2.464C13.8507 2.464 13.52 2.576 13.264 2.8C13.008 3.03467 12.8107 3.31733 12.672 3.648C12.544 3.98933 12.3947 4.464 12.224 5.072C12.0213 5.808 11.8187 6.4 11.616 6.848C11.424 7.296 11.12 7.68 10.704 8C10.2987 8.32 9.744 8.48 9.04 8.48C8.496 8.48 7.984 8.336 7.504 8.048C7.024 7.76 6.63467 7.33333 6.336 6.768C6.03733 6.20267 5.888 5.536 5.888 4.768ZM15.968 12.0786L12.24 12.0786L12.24 16.1426L11.04 16.1426L11.04 12.0786L7.2 12.0786L7.2 16.6226L6 16.6226L6 10.6226L17.168 10.6226L17.168 16.6226L15.968 16.6226L15.968 12.0786ZM15.968 20.2817L12.24 20.2817L12.24 24.3457L11.04 24.3457L11.04 20.2817L7.2 20.2817L7.2 24.8257L6 24.8257L6 18.8257L17.168 18.8257L17.168 24.8258L15.968 24.8257L15.968 20.2817ZM6 40.0625L6 38.6065L14.88 32.7505L6 32.7505L6 31.2945L17.168 31.2945L17.168 32.7505L8.304 38.6065L17.168 38.6065L17.168 40.0625L6 40.0625ZM15.968 44.0005L12.24 44.0005L12.24 48.0645L11.04 48.0645L11.04 44.0005L7.2 44.0005L7.2 48.5445L6 48.5445L6 42.5445L17.168 42.5445L17.168 48.5445L15.968 48.5445L15.968 44.0005ZM11.568 55.3076L6 58.7316L6 57.0836L10.352 54.4116L6 51.8676L6 50.2516L11.568 53.6596L17.152 50.2356L17.152 51.8676L12.784 54.5556L17.152 57.1156L17.152 58.7476L11.568 55.3076ZM17.152 67.5491L15.968 67.5491L15.968 64.5091L6 64.5091L6 63.0531L15.968 63.0531L15.968 59.9971L17.152 59.9971L17.152 67.5491ZM13.888 81.063C12.96 81.063 12.1867 80.743 11.568 80.103C10.96 79.4737 10.656 78.5083 10.656 77.207L10.656 75.063L6 75.063L6 73.607L17.152 73.607L17.152 77.207C17.152 78.4657 16.848 79.4203 16.24 80.071C15.632 80.7323 14.848 81.063 13.888 81.063ZM11.856 77.207C11.856 78.0177 12.032 78.615 12.384 78.999C12.736 79.383 13.2373 79.575 13.888 79.575C15.264 79.575 15.952 78.7857 15.952 77.207L15.952 75.063L11.856 75.063L11.856 77.207ZM6 88.7446L10.56 86.0886L10.56 84.3286L6 84.3286L6 82.8726L17.152 82.8726L17.152 86.4726C17.152 87.3153 17.008 88.0246 16.72 88.6006C16.432 89.1873 16.0427 89.6246 15.552 89.9126C15.0613 90.2006 14.5013 90.3446 13.872 90.3446C13.104 90.3446 12.4267 90.1206 11.84 89.6726C11.2533 89.2353 10.864 88.574 10.672 87.6886L6 90.4886L6 88.7446ZM11.728 84.3286L11.728 86.4726C11.728 87.262 11.92 87.854 12.304 88.2486C12.6987 88.6433 13.2213 88.8406 13.872 88.8406C14.5333 88.8406 15.0453 88.6433 15.408 88.2486C15.7707 87.8646 15.952 87.2726 15.952 86.4726L15.952 84.3286L11.728 84.3286ZM5.888 97.663C5.888 96.6283 6.128 95.6843 6.608 94.831C7.09866 93.9777 7.776 93.3003 8.64 92.799C9.51466 92.3083 10.496 92.063 11.584 92.063C12.672 92.063 13.648 92.3083 14.512 92.799C15.3867 93.3003 16.064 93.9777 16.544 94.831C17.0347 95.6843 17.28 96.6283 17.28 97.663C17.28 98.7083 17.0347 99.6577 16.544 100.511C16.064 101.364 15.392 102.036 14.528 102.527C13.664 103.018 12.6827 103.263 11.584 103.263C10.4853 103.263 9.504 103.018 8.64 102.527C7.776 102.036 7.09866 101.364 6.608 100.511C6.128 99.6577 5.888 98.7083 5.888 97.663ZM7.152 97.663C7.152 98.4417 7.33333 99.1403 7.696 99.759C8.05866 100.388 8.576 100.879 9.248 101.231C9.92 101.594 10.6987 101.775 11.584 101.775C12.48 101.775 13.2587 101.594 13.92 101.231C14.592 100.879 15.1093 100.394 15.472 99.775C15.8347 99.1563 16.016 98.4523 16.016 97.663C16.016 96.8737 15.8347 96.1697 15.472 95.551C15.1093 94.9323 14.592 94.4417 13.92 94.079C13.2587 93.727 12.48 93.551 11.584 93.551C10.6987 93.551 9.92 93.727 9.248 94.079C8.576 94.4417 8.05866 94.9323 7.696 95.551C7.33333 96.1803 7.152 96.8843 7.152 97.663ZM17.152 110.801L8.912 110.801C7.99466 110.801 7.25866 110.518 6.704 109.953C6.16 109.388 5.888 108.641 5.888 107.713C5.888 106.774 6.16533 106.022 6.72 105.457C7.28533 104.892 8.05333 104.609 9.024 104.609L9.024 106.065C8.48 106.076 8.03733 106.214 7.696 106.481C7.35466 106.758 7.184 107.169 7.184 107.713C7.184 108.257 7.344 108.662 7.664 108.929C7.99466 109.196 8.41066 109.329 8.912 109.329L17.152 109.329L17.152 110.801ZM15.968 115.125L12.24 115.125L12.24 119.189L11.04 119.189L11.04 115.125L7.2 115.125L7.19999 119.669L5.99999 119.669L6 113.669L17.168 113.669L17.168 119.67L15.968 119.669L15.968 115.125ZM11.584 121.329C12.672 121.329 13.648 121.574 14.512 122.065C15.3867 122.555 16.0693 123.222 16.56 124.065C17.0507 124.918 17.296 125.862 17.296 126.897C17.296 128.113 17.0027 129.174 16.416 130.081C15.8293 130.987 14.9973 131.649 13.92 132.065L13.92 130.321C14.592 130.011 15.1093 129.563 15.472 128.977C15.8347 128.401 16.016 127.707 16.016 126.897C16.016 126.118 15.8347 125.419 15.472 124.801C15.1093 124.182 14.592 123.697 13.92 123.345C13.2587 122.993 12.48 122.817 11.584 122.817C10.6987 122.817 9.91999 122.993 9.24799 123.345C8.58666 123.697 8.07466 124.182 7.71199 124.801C7.34933 125.419 7.16799 126.118 7.16799 126.897C7.16799 127.707 7.34399 128.401 7.69599 128.977C8.05866 129.563 8.57599 130.011 9.24799 130.321L9.24799 132.065C8.18133 131.649 7.35466 130.987 6.76799 130.081C6.19199 129.174 5.90399 128.113 5.90399 126.897C5.90399 125.862 6.14399 124.918 6.62399 124.065C7.11466 123.222 7.79199 122.555 8.65599 122.065C9.51999 121.574 10.496 121.329 11.584 121.329ZM17.152 141.096L15.968 141.096L15.968 138.056L5.99999 138.056L5.99999 136.6L15.968 136.6L15.968 133.544L17.152 133.544L17.152 141.096Z" fill="white"/>
<path d="M12 180L12 151M12 180L18 174M12 180L6 174" stroke="white" stroke-width="2" stroke-linecap="round" stroke-linejoin="round"/>
</svg>
