<svg width="695" height="367" viewBox="0 0 695 367" fill="none" xmlns="http://www.w3.org/2000/svg">
<rect x="0.5" y="0.5" width="693.796" height="366" rx="11.5" fill="#231F20" stroke="#1F9CEF"/>
<rect x="35.9185" y="61" width="622.959" height="274" rx="12" fill="#171616"/>
<path d="M42.3085 29.71C42.3085 29.29 42.1435 28.925 41.8135 28.615C41.4935 28.305 41.0385 28.15 40.4485 28.15C39.9485 28.15 39.5535 28.255 39.2635 28.465C38.9735 28.665 38.8285 28.94 38.8285 29.29C38.8285 29.47 38.8635 29.635 38.9335 29.785C39.0035 29.925 39.1235 30.055 39.2935 30.175C39.4735 30.285 39.7035 30.385 39.9835 30.475C40.2735 30.565 40.6385 30.65 41.0785 30.73C42.1785 30.93 43.0185 31.265 43.5985 31.735C44.1785 32.205 44.4685 32.9 44.4685 33.82V34C44.4685 34.49 44.3785 34.935 44.1985 35.335C44.0285 35.725 43.7785 36.06 43.4485 36.34C43.1185 36.62 42.7185 36.835 42.2485 36.985C41.7785 37.135 41.2485 37.21 40.6585 37.21C39.9685 37.21 39.3585 37.115 38.8285 36.925C38.3085 36.725 37.8735 36.455 37.5235 36.115C37.1735 35.765 36.9085 35.36 36.7285 34.9C36.5485 34.43 36.4585 33.92 36.4585 33.37V32.92H38.4385V33.28C38.4385 33.91 38.6185 34.415 38.9785 34.795C39.3485 35.165 39.9185 35.35 40.6885 35.35C41.2885 35.35 41.7335 35.22 42.0235 34.96C42.3135 34.7 42.4585 34.39 42.4585 34.03C42.4585 33.86 42.4285 33.7 42.3685 33.55C42.3085 33.39 42.2035 33.25 42.0535 33.13C41.9035 33 41.6985 32.885 41.4385 32.785C41.1785 32.685 40.8485 32.6 40.4485 32.53C39.9185 32.44 39.4335 32.325 38.9935 32.185C38.5535 32.035 38.1685 31.84 37.8385 31.6C37.5185 31.36 37.2685 31.06 37.0885 30.7C36.9085 30.34 36.8185 29.9 36.8185 29.38V29.29C36.8185 28.86 36.9035 28.465 37.0735 28.105C37.2535 27.735 37.4985 27.415 37.8085 27.145C38.1285 26.875 38.5085 26.665 38.9485 26.515C39.3985 26.365 39.8985 26.29 40.4485 26.29C41.0685 26.29 41.6185 26.38 42.0985 26.56C42.5785 26.73 42.9785 26.965 43.2985 27.265C43.6285 27.565 43.8735 27.91 44.0335 28.3C44.2035 28.69 44.2885 29.1 44.2885 29.53V30.07H42.3085V29.71ZM48.763 32.29H49.123L51.103 29.56H53.173V29.65L50.773 33.055V33.325L53.413 36.91V37H51.253L49.123 34.09H48.763V37H46.873V26.5H48.763V32.29ZM55.5926 35.2H58.1126V31.36H55.7726V29.56H60.0026V35.2H62.1626V37H55.5926V35.2ZM60.4676 27.355C60.4676 27.555 60.4276 27.745 60.3476 27.925C60.2776 28.095 60.1776 28.245 60.0476 28.375C59.9176 28.495 59.7626 28.595 59.5826 28.675C59.4126 28.745 59.2326 28.78 59.0426 28.78C58.8426 28.78 58.6576 28.745 58.4876 28.675C58.3176 28.595 58.1676 28.495 58.0376 28.375C57.9076 28.245 57.8026 28.095 57.7226 27.925C57.6526 27.745 57.6176 27.555 57.6176 27.355C57.6176 27.155 57.6526 26.97 57.7226 26.8C57.8026 26.62 57.9076 26.47 58.0376 26.35C58.1676 26.22 58.3176 26.12 58.4876 26.05C58.6576 25.97 58.8426 25.93 59.0426 25.93C59.2326 25.93 59.4126 25.97 59.5826 26.05C59.7626 26.12 59.9176 26.22 60.0476 26.35C60.1776 26.47 60.2776 26.62 60.3476 26.8C60.4276 26.97 60.4676 27.155 60.4676 27.355ZM64.5972 35.2H67.2072V28.3H64.6872V26.5H69.0972V35.2H71.5272V37H64.5972V35.2ZM73.7817 35.2H76.3917V28.3H73.8717V26.5H78.2817V35.2H80.7117V37H73.7817V35.2ZM85.3813 31.66C85.3813 31.9 85.5063 32.075 85.7563 32.185C86.0063 32.285 86.4613 32.37 87.1213 32.44C87.8813 32.52 88.5013 32.75 88.9813 33.13C89.4613 33.5 89.7013 34.02 89.7013 34.69V34.78C89.7013 35.52 89.4313 36.11 88.8913 36.55C88.3513 36.99 87.5913 37.21 86.6113 37.21C86.0313 37.21 85.5363 37.135 85.1263 36.985C84.7163 36.835 84.3763 36.65 84.1063 36.43C83.8363 36.2 83.6263 35.95 83.4763 35.68C83.3363 35.4 83.2413 35.13 83.1913 34.87L84.9313 34.3C85.0113 34.62 85.1763 34.9 85.4263 35.14C85.6863 35.38 86.0813 35.5 86.6113 35.5C87.0813 35.5 87.4013 35.43 87.5713 35.29C87.7513 35.14 87.8413 34.98 87.8413 34.81C87.8413 34.71 87.8163 34.62 87.7663 34.54C87.7263 34.45 87.6463 34.37 87.5263 34.3C87.4063 34.22 87.2413 34.155 87.0313 34.105C86.8313 34.055 86.5763 34.015 86.2663 33.985C85.4263 33.915 84.7563 33.7 84.2563 33.34C83.7663 32.97 83.5213 32.43 83.5213 31.72V31.63C83.5213 31.26 83.6013 30.935 83.7613 30.655C83.9213 30.375 84.1313 30.14 84.3913 29.95C84.6513 29.75 84.9513 29.6 85.2913 29.5C85.6313 29.4 85.9813 29.35 86.3413 29.35C86.8113 29.35 87.2163 29.41 87.5563 29.53C87.9063 29.64 88.2013 29.79 88.4413 29.98C88.6813 30.16 88.8763 30.365 89.0263 30.595C89.1763 30.815 89.2913 31.03 89.3713 31.24L87.6613 31.93C87.5713 31.66 87.4163 31.45 87.1963 31.3C86.9763 31.14 86.6913 31.06 86.3413 31.06C86.0213 31.06 85.7813 31.12 85.6213 31.24C85.4613 31.35 85.3813 31.49 85.3813 31.66Z" fill="white"/>
<path d="M157.241 100H159.881V105.72H164.401V100H167.041V114H164.401V108.24H159.881V114H157.241V100ZM169.347 100H179.427V102.52H175.707V114H173.067V102.52H169.347V100ZM180.953 100H185.593L186.393 110.52V112.56H186.873V110.52L187.673 100H192.313V114H189.913V104.64L190.153 101.44H189.673L188.633 114H184.673L183.593 101.44H183.113L183.353 104.64V114H180.953V100ZM194.399 100H197.039V111.48H203.399V114H194.399V100Z" fill="white"/>
<path d="M162.181 148.88C162.687 148.88 163.101 148.807 163.421 148.66C163.754 148.5 164.007 148.293 164.181 148.04C164.367 147.773 164.494 147.473 164.561 147.14C164.627 146.793 164.661 146.44 164.661 146.08V145.72H167.301V146.08C167.301 147.747 166.861 149.033 165.981 149.94C165.114 150.833 163.847 151.28 162.181 151.28C160.581 151.28 159.314 150.793 158.381 149.82C157.447 148.847 156.981 147.427 156.981 145.56V142.44C156.981 141.547 157.101 140.747 157.341 140.04C157.581 139.32 157.927 138.72 158.381 138.24C158.834 137.747 159.381 137.373 160.021 137.12C160.661 136.853 161.381 136.72 162.181 136.72C163.007 136.72 163.741 136.84 164.381 137.08C165.021 137.32 165.554 137.667 165.981 138.12C166.421 138.573 166.747 139.12 166.961 139.76C167.187 140.4 167.301 141.12 167.301 141.92V142.28H164.661V141.92C164.661 141.587 164.621 141.253 164.541 140.92C164.461 140.587 164.327 140.287 164.141 140.02C163.954 139.753 163.701 139.54 163.381 139.38C163.061 139.207 162.661 139.12 162.181 139.12C161.741 139.12 161.361 139.207 161.041 139.38C160.721 139.54 160.454 139.767 160.241 140.06C160.027 140.34 159.867 140.673 159.761 141.06C159.667 141.433 159.621 141.827 159.621 142.24V145.76C159.621 146.213 159.667 146.633 159.761 147.02C159.854 147.393 160.001 147.72 160.201 148C160.401 148.28 160.661 148.5 160.981 148.66C161.314 148.807 161.714 148.88 162.181 148.88ZM176.787 141.28C176.787 140.72 176.567 140.233 176.127 139.82C175.7 139.407 175.093 139.2 174.307 139.2C173.64 139.2 173.113 139.34 172.727 139.62C172.34 139.887 172.147 140.253 172.147 140.72C172.147 140.96 172.193 141.18 172.287 141.38C172.38 141.567 172.54 141.74 172.767 141.9C173.007 142.047 173.313 142.18 173.687 142.3C174.073 142.42 174.56 142.533 175.147 142.64C176.613 142.907 177.733 143.353 178.507 143.98C179.28 144.607 179.667 145.533 179.667 146.76V147C179.667 147.653 179.547 148.247 179.307 148.78C179.08 149.3 178.747 149.747 178.307 150.12C177.867 150.493 177.333 150.78 176.707 150.98C176.08 151.18 175.373 151.28 174.587 151.28C173.667 151.28 172.853 151.153 172.147 150.9C171.453 150.633 170.873 150.273 170.407 149.82C169.94 149.353 169.587 148.813 169.347 148.2C169.107 147.573 168.987 146.893 168.987 146.16V145.56H171.627V146.04C171.627 146.88 171.867 147.553 172.347 148.06C172.84 148.553 173.6 148.8 174.627 148.8C175.427 148.8 176.02 148.627 176.407 148.28C176.793 147.933 176.987 147.52 176.987 147.04C176.987 146.813 176.947 146.6 176.867 146.4C176.787 146.187 176.647 146 176.447 145.84C176.247 145.667 175.973 145.513 175.627 145.38C175.28 145.247 174.84 145.133 174.307 145.04C173.6 144.92 172.953 144.767 172.367 144.58C171.78 144.38 171.267 144.12 170.827 143.8C170.4 143.48 170.067 143.08 169.827 142.6C169.587 142.12 169.467 141.533 169.467 140.84V140.72C169.467 140.147 169.58 139.62 169.807 139.14C170.047 138.647 170.373 138.22 170.787 137.86C171.213 137.5 171.72 137.22 172.307 137.02C172.907 136.82 173.573 136.72 174.307 136.72C175.133 136.72 175.867 136.84 176.507 137.08C177.147 137.307 177.68 137.62 178.107 138.02C178.547 138.42 178.873 138.88 179.087 139.4C179.313 139.92 179.427 140.467 179.427 141.04V141.76H176.787V141.28ZM189.033 141.28C189.033 140.72 188.813 140.233 188.373 139.82C187.946 139.407 187.339 139.2 186.553 139.2C185.886 139.2 185.359 139.34 184.973 139.62C184.586 139.887 184.393 140.253 184.393 140.72C184.393 140.96 184.439 141.18 184.533 141.38C184.626 141.567 184.786 141.74 185.013 141.9C185.253 142.047 185.559 142.18 185.933 142.3C186.319 142.42 186.806 142.533 187.393 142.64C188.859 142.907 189.979 143.353 190.753 143.98C191.526 144.607 191.913 145.533 191.913 146.76V147C191.913 147.653 191.793 148.247 191.553 148.78C191.326 149.3 190.993 149.747 190.553 150.12C190.113 150.493 189.579 150.78 188.953 150.98C188.326 151.18 187.619 151.28 186.833 151.28C185.913 151.28 185.099 151.153 184.393 150.9C183.699 150.633 183.119 150.273 182.653 149.82C182.186 149.353 181.833 148.813 181.593 148.2C181.353 147.573 181.233 146.893 181.233 146.16V145.56H183.873V146.04C183.873 146.88 184.113 147.553 184.593 148.06C185.086 148.553 185.846 148.8 186.873 148.8C187.673 148.8 188.266 148.627 188.653 148.28C189.039 147.933 189.233 147.52 189.233 147.04C189.233 146.813 189.193 146.6 189.113 146.4C189.033 146.187 188.893 146 188.693 145.84C188.493 145.667 188.219 145.513 187.873 145.38C187.526 145.247 187.086 145.133 186.553 145.04C185.846 144.92 185.199 144.767 184.613 144.58C184.026 144.38 183.513 144.12 183.073 143.8C182.646 143.48 182.313 143.08 182.073 142.6C181.833 142.12 181.713 141.533 181.713 140.84V140.72C181.713 140.147 181.826 139.62 182.053 139.14C182.293 138.647 182.619 138.22 183.033 137.86C183.459 137.5 183.966 137.22 184.553 137.02C185.153 136.82 185.819 136.72 186.553 136.72C187.379 136.72 188.113 136.84 188.753 137.08C189.393 137.307 189.926 137.62 190.353 138.02C190.793 138.42 191.119 138.88 191.333 139.4C191.559 139.92 191.673 140.467 191.673 141.04V141.76H189.033V141.28Z" fill="white"/>
<path d="M166.361 182.8C166.361 184.253 165.967 185.367 165.181 186.14C164.394 186.9 163.314 187.28 161.941 187.28C161.234 187.28 160.594 187.187 160.021 187C159.447 186.8 158.954 186.513 158.541 186.14C158.127 185.753 157.807 185.287 157.581 184.74C157.354 184.18 157.241 183.533 157.241 182.8V181.48H159.881V182.8C159.881 183.427 160.054 183.92 160.401 184.28C160.747 184.627 161.234 184.8 161.861 184.8C162.447 184.8 162.901 184.627 163.221 184.28C163.554 183.933 163.721 183.44 163.721 182.8V175.48H162.281V173H167.561V175.48H166.361V182.8ZM176.247 185.56C175.98 186.187 175.607 186.633 175.127 186.9C174.647 187.153 174.087 187.28 173.447 187.28C172.847 187.28 172.28 187.167 171.747 186.94C171.227 186.713 170.767 186.38 170.367 185.94C169.967 185.5 169.647 184.967 169.407 184.34C169.18 183.713 169.067 183 169.067 182.2V181.88C169.067 181.093 169.18 180.387 169.407 179.76C169.633 179.133 169.94 178.6 170.327 178.16C170.713 177.72 171.16 177.387 171.667 177.16C172.187 176.92 172.74 176.8 173.327 176.8C174.033 176.8 174.6 176.92 175.027 177.16C175.467 177.4 175.813 177.773 176.067 178.28H176.427V177.08H178.947V184C178.947 184.4 179.127 184.6 179.487 184.6H179.867V187H178.147C177.693 187 177.32 186.867 177.027 186.6C176.747 186.333 176.607 185.987 176.607 185.56H176.247ZM174.007 184.88C174.74 184.88 175.327 184.64 175.767 184.16C176.207 183.667 176.427 183 176.427 182.16V181.92C176.427 181.08 176.207 180.42 175.767 179.94C175.327 179.447 174.74 179.2 174.007 179.2C173.273 179.2 172.687 179.447 172.247 179.94C171.807 180.42 171.587 181.08 171.587 181.92V182.16C171.587 183 171.807 183.667 172.247 184.16C172.687 184.64 173.273 184.88 174.007 184.88ZM181.373 177.08H184.093L186.433 185.8H186.793L189.133 177.08H191.853L189.013 187H184.213L181.373 177.08ZM200.739 185.56C200.472 186.187 200.099 186.633 199.619 186.9C199.139 187.153 198.579 187.28 197.939 187.28C197.339 187.28 196.772 187.167 196.239 186.94C195.719 186.713 195.259 186.38 194.859 185.94C194.459 185.5 194.139 184.967 193.899 184.34C193.672 183.713 193.559 183 193.559 182.2V181.88C193.559 181.093 193.672 180.387 193.899 179.76C194.125 179.133 194.432 178.6 194.819 178.16C195.205 177.72 195.652 177.387 196.159 177.16C196.679 176.92 197.232 176.8 197.819 176.8C198.525 176.8 199.092 176.92 199.519 177.16C199.959 177.4 200.305 177.773 200.559 178.28H200.919V177.08H203.439V184C203.439 184.4 203.619 184.6 203.979 184.6H204.359V187H202.639C202.185 187 201.812 186.867 201.519 186.6C201.239 186.333 201.099 185.987 201.099 185.56H200.739ZM198.499 184.88C199.232 184.88 199.819 184.64 200.259 184.16C200.699 183.667 200.919 183 200.919 182.16V181.92C200.919 181.08 200.699 180.42 200.259 179.94C199.819 179.447 199.232 179.2 198.499 179.2C197.765 179.2 197.179 179.447 196.739 179.94C196.299 180.42 196.079 181.08 196.079 181.92V182.16C196.079 183 196.299 183.667 196.739 184.16C197.179 184.64 197.765 184.88 198.499 184.88ZM213.525 177.28C213.525 176.72 213.305 176.233 212.865 175.82C212.438 175.407 211.832 175.2 211.045 175.2C210.378 175.2 209.852 175.34 209.465 175.62C209.078 175.887 208.885 176.253 208.885 176.72C208.885 176.96 208.932 177.18 209.025 177.38C209.118 177.567 209.278 177.74 209.505 177.9C209.745 178.047 210.052 178.18 210.425 178.3C210.812 178.42 211.298 178.533 211.885 178.64C213.352 178.907 214.472 179.353 215.245 179.98C216.018 180.607 216.405 181.533 216.405 182.76V183C216.405 183.653 216.285 184.247 216.045 184.78C215.818 185.3 215.485 185.747 215.045 186.12C214.605 186.493 214.072 186.78 213.445 186.98C212.818 187.18 212.112 187.28 211.325 187.28C210.405 187.28 209.592 187.153 208.885 186.9C208.192 186.633 207.612 186.273 207.145 185.82C206.678 185.353 206.325 184.813 206.085 184.2C205.845 183.573 205.725 182.893 205.725 182.16V181.56H208.365V182.04C208.365 182.88 208.605 183.553 209.085 184.06C209.578 184.553 210.338 184.8 211.365 184.8C212.165 184.8 212.758 184.627 213.145 184.28C213.532 183.933 213.725 183.52 213.725 183.04C213.725 182.813 213.685 182.6 213.605 182.4C213.525 182.187 213.385 182 213.185 181.84C212.985 181.667 212.712 181.513 212.365 181.38C212.018 181.247 211.578 181.133 211.045 181.04C210.338 180.92 209.692 180.767 209.105 180.58C208.518 180.38 208.005 180.12 207.565 179.8C207.138 179.48 206.805 179.08 206.565 178.6C206.325 178.12 206.205 177.533 206.205 176.84V176.72C206.205 176.147 206.318 175.62 206.545 175.14C206.785 174.647 207.112 174.22 207.525 173.86C207.952 173.5 208.458 173.22 209.045 173.02C209.645 172.82 210.312 172.72 211.045 172.72C211.872 172.72 212.605 172.84 213.245 173.08C213.885 173.307 214.418 173.62 214.845 174.02C215.285 174.42 215.612 174.88 215.825 175.4C216.052 175.92 216.165 176.467 216.165 177.04V177.76H213.525V177.28ZM228.491 183.36C228.264 184.533 227.724 185.48 226.871 186.2C226.031 186.92 224.904 187.28 223.491 187.28C222.758 187.28 222.071 187.167 221.431 186.94C220.804 186.713 220.258 186.387 219.791 185.96C219.324 185.533 218.958 185.007 218.691 184.38C218.424 183.753 218.291 183.04 218.291 182.24V182C218.291 181.2 218.424 180.48 218.691 179.84C218.958 179.2 219.324 178.653 219.791 178.2C220.271 177.747 220.824 177.4 221.451 177.16C222.091 176.92 222.771 176.8 223.491 176.8C224.878 176.8 225.998 177.16 226.851 177.88C227.718 178.6 228.264 179.547 228.491 180.72L226.011 181.36C225.931 180.773 225.678 180.267 225.251 179.84C224.824 179.413 224.224 179.2 223.451 179.2C223.091 179.2 222.751 179.267 222.431 179.4C222.111 179.533 221.831 179.727 221.591 179.98C221.351 180.22 221.158 180.52 221.011 180.88C220.878 181.227 220.811 181.62 220.811 182.06V182.18C220.811 182.62 220.878 183.013 221.011 183.36C221.158 183.693 221.351 183.973 221.591 184.2C221.831 184.427 222.111 184.6 222.431 184.72C222.751 184.827 223.091 184.88 223.451 184.88C224.224 184.88 224.811 184.687 225.211 184.3C225.624 183.913 225.891 183.393 226.011 182.74L228.491 183.36ZM230.577 177.08H234.777V178.52H235.137C235.324 177.973 235.637 177.553 236.077 177.26C236.53 176.953 237.07 176.8 237.697 176.8C238.684 176.8 239.477 177.113 240.077 177.74C240.677 178.353 240.977 179.293 240.977 180.56V181L238.377 181.24V180.96C238.377 180.413 238.237 179.98 237.957 179.66C237.677 179.327 237.257 179.16 236.697 179.16C236.137 179.16 235.697 179.353 235.377 179.74C235.057 180.127 234.897 180.68 234.897 181.4V184.6H237.177V187H230.337V184.6H232.377V179.48H230.577V177.08ZM243.483 184.6H246.843V179.48H243.723V177.08H249.363V184.6H252.243V187H243.483V184.6ZM249.983 174.14C249.983 174.407 249.93 174.66 249.823 174.9C249.73 175.127 249.596 175.327 249.423 175.5C249.25 175.66 249.043 175.793 248.803 175.9C248.576 175.993 248.336 176.04 248.083 176.04C247.816 176.04 247.57 175.993 247.343 175.9C247.116 175.793 246.916 175.66 246.743 175.5C246.57 175.327 246.43 175.127 246.323 174.9C246.23 174.66 246.183 174.407 246.183 174.14C246.183 173.873 246.23 173.627 246.323 173.4C246.43 173.16 246.57 172.96 246.743 172.8C246.916 172.627 247.116 172.493 247.343 172.4C247.57 172.293 247.816 172.24 248.083 172.24C248.336 172.24 248.576 172.293 248.803 172.4C249.043 172.493 249.25 172.627 249.423 172.8C249.596 172.96 249.73 173.16 249.823 173.4C249.93 173.627 249.983 173.873 249.983 174.14ZM257.549 191H255.029V177.08H257.549V178.52H257.909C258.176 177.973 258.563 177.553 259.069 177.26C259.576 176.953 260.223 176.8 261.009 176.8C261.596 176.8 262.149 176.913 262.669 177.14C263.203 177.367 263.663 177.7 264.049 178.14C264.449 178.567 264.763 179.093 264.989 179.72C265.229 180.347 265.349 181.06 265.349 181.86V182.22C265.349 183.033 265.236 183.753 265.009 184.38C264.783 185.007 264.476 185.54 264.089 185.98C263.703 186.407 263.243 186.733 262.709 186.96C262.189 187.173 261.623 187.28 261.009 187.28C260.556 187.28 260.163 187.233 259.829 187.14C259.496 187.047 259.203 186.92 258.949 186.76C258.709 186.6 258.503 186.42 258.329 186.22C258.169 186.007 258.029 185.787 257.909 185.56H257.549V191ZM260.189 184.88C260.976 184.88 261.609 184.64 262.089 184.16C262.583 183.667 262.829 183 262.829 182.16V181.92C262.829 181.08 262.583 180.42 262.089 179.94C261.609 179.447 260.976 179.2 260.189 179.2C259.403 179.2 258.763 179.453 258.269 179.96C257.789 180.453 257.549 181.107 257.549 181.92V182.16C257.549 182.973 257.789 183.633 258.269 184.14C258.763 184.633 259.403 184.88 260.189 184.88ZM267.515 177.08H270.455V173H272.975V177.08H276.555V179.48H272.975V184C272.975 184.4 273.155 184.6 273.515 184.6H276.195V187H271.995C271.542 187 271.169 186.853 270.875 186.56C270.595 186.267 270.455 185.893 270.455 185.44V179.48H267.515V177.08Z" fill="white"/>
<path d="M166.881 223H164.241V218.8C164.241 218.48 164.154 218.22 163.981 218.02C163.821 217.82 163.547 217.72 163.161 217.72H160.121V223H157.481V209H162.841C163.561 209 164.194 209.1 164.741 209.3C165.287 209.5 165.741 209.78 166.101 210.14C166.474 210.487 166.754 210.893 166.941 211.36C167.141 211.827 167.241 212.327 167.241 212.86V213.34C167.241 213.913 167.087 214.453 166.781 214.96C166.474 215.453 166.001 215.833 165.361 216.1V216.46C165.827 216.513 166.194 216.693 166.461 217C166.741 217.307 166.881 217.693 166.881 218.16V223ZM160.121 215.2H162.641C163.281 215.2 163.767 215.053 164.101 214.76C164.434 214.453 164.601 214.027 164.601 213.48V213.24C164.601 212.773 164.434 212.373 164.101 212.04C163.767 211.693 163.281 211.52 162.641 211.52H160.121V215.2ZM172.047 218.86C172.06 219.153 172.127 219.427 172.247 219.68C172.38 219.92 172.553 220.133 172.767 220.32C172.993 220.493 173.247 220.633 173.527 220.74C173.82 220.833 174.127 220.88 174.447 220.88C175.073 220.88 175.553 220.773 175.887 220.56C176.22 220.333 176.46 220.067 176.607 219.76L178.767 220.96C178.647 221.213 178.48 221.48 178.267 221.76C178.053 222.027 177.773 222.273 177.427 222.5C177.093 222.727 176.68 222.913 176.187 223.06C175.707 223.207 175.14 223.28 174.487 223.28C173.74 223.28 173.06 223.16 172.447 222.92C171.833 222.68 171.3 222.333 170.847 221.88C170.407 221.427 170.06 220.873 169.807 220.22C169.567 219.567 169.447 218.827 169.447 218V217.88C169.447 217.12 169.573 216.427 169.827 215.8C170.093 215.173 170.453 214.64 170.907 214.2C171.36 213.76 171.887 213.42 172.487 213.18C173.1 212.927 173.753 212.8 174.447 212.8C175.3 212.8 176.033 212.953 176.647 213.26C177.26 213.553 177.767 213.933 178.167 214.4C178.567 214.853 178.86 215.36 179.047 215.92C179.233 216.467 179.327 217 179.327 217.52V218.86H172.047ZM174.427 215.08C173.787 215.08 173.267 215.247 172.867 215.58C172.467 215.9 172.207 216.273 172.087 216.7H176.767C176.687 216.233 176.433 215.847 176.007 215.54C175.593 215.233 175.067 215.08 174.427 215.08ZM188.493 221.56C188.226 222.187 187.853 222.633 187.373 222.9C186.893 223.153 186.333 223.28 185.693 223.28C185.093 223.28 184.526 223.167 183.993 222.94C183.473 222.713 183.013 222.38 182.613 221.94C182.213 221.5 181.893 220.967 181.653 220.34C181.426 219.713 181.313 219 181.313 218.2V217.88C181.313 217.093 181.426 216.387 181.653 215.76C181.879 215.133 182.186 214.6 182.573 214.16C182.959 213.72 183.406 213.387 183.913 213.16C184.433 212.92 184.986 212.8 185.573 212.8C186.279 212.8 186.846 212.92 187.273 213.16C187.713 213.4 188.059 213.773 188.313 214.28H188.673V213.08H191.193V220C191.193 220.4 191.373 220.6 191.733 220.6H192.113V223H190.393C189.939 223 189.566 222.867 189.273 222.6C188.993 222.333 188.853 221.987 188.853 221.56H188.493ZM186.253 220.88C186.986 220.88 187.573 220.64 188.013 220.16C188.453 219.667 188.673 219 188.673 218.16V217.92C188.673 217.08 188.453 216.42 188.013 215.94C187.573 215.447 186.986 215.2 186.253 215.2C185.519 215.2 184.933 215.447 184.493 215.94C184.053 216.42 183.833 217.08 183.833 217.92V218.16C183.833 219 184.053 219.667 184.493 220.16C184.933 220.64 185.519 220.88 186.253 220.88ZM203.999 219.36C203.772 220.533 203.232 221.48 202.379 222.2C201.539 222.92 200.412 223.28 198.999 223.28C198.265 223.28 197.579 223.167 196.939 222.94C196.312 222.713 195.765 222.387 195.299 221.96C194.832 221.533 194.465 221.007 194.199 220.38C193.932 219.753 193.799 219.04 193.799 218.24V218C193.799 217.2 193.932 216.48 194.199 215.84C194.465 215.2 194.832 214.653 195.299 214.2C195.779 213.747 196.332 213.4 196.959 213.16C197.599 212.92 198.279 212.8 198.999 212.8C200.385 212.8 201.505 213.16 202.359 213.88C203.225 214.6 203.772 215.547 203.999 216.72L201.519 217.36C201.439 216.773 201.185 216.267 200.759 215.84C200.332 215.413 199.732 215.2 198.959 215.2C198.599 215.2 198.259 215.267 197.939 215.4C197.619 215.533 197.339 215.727 197.099 215.98C196.859 216.22 196.665 216.52 196.519 216.88C196.385 217.227 196.319 217.62 196.319 218.06V218.18C196.319 218.62 196.385 219.013 196.519 219.36C196.665 219.693 196.859 219.973 197.099 220.2C197.339 220.427 197.619 220.6 197.939 220.72C198.259 220.827 198.599 220.88 198.959 220.88C199.732 220.88 200.319 220.687 200.719 220.3C201.132 219.913 201.399 219.393 201.519 218.74L203.999 219.36ZM206.285 213.08H209.225V209H211.745V213.08H215.325V215.48H211.745V220C211.745 220.4 211.925 220.6 212.285 220.6H214.965V223H210.765C210.312 223 209.938 222.853 209.645 222.56C209.365 222.267 209.225 221.893 209.225 221.44V215.48H206.285V213.08Z" fill="white"/>
<path d="M162.181 256.88C162.687 256.88 163.101 256.807 163.421 256.66C163.754 256.5 164.007 256.293 164.181 256.04C164.367 255.773 164.494 255.473 164.561 255.14C164.627 254.793 164.661 254.44 164.661 254.08V253.72H167.301V254.08C167.301 255.747 166.861 257.033 165.981 257.94C165.114 258.833 163.847 259.28 162.181 259.28C160.581 259.28 159.314 258.793 158.381 257.82C157.447 256.847 156.981 255.427 156.981 253.56V250.44C156.981 249.547 157.101 248.747 157.341 248.04C157.581 247.32 157.927 246.72 158.381 246.24C158.834 245.747 159.381 245.373 160.021 245.12C160.661 244.853 161.381 244.72 162.181 244.72C163.007 244.72 163.741 244.84 164.381 245.08C165.021 245.32 165.554 245.667 165.981 246.12C166.421 246.573 166.747 247.12 166.961 247.76C167.187 248.4 167.301 249.12 167.301 249.92V250.28H164.661V249.92C164.661 249.587 164.621 249.253 164.541 248.92C164.461 248.587 164.327 248.287 164.141 248.02C163.954 247.753 163.701 247.54 163.381 247.38C163.061 247.207 162.661 247.12 162.181 247.12C161.741 247.12 161.361 247.207 161.041 247.38C160.721 247.54 160.454 247.767 160.241 248.06C160.027 248.34 159.867 248.673 159.761 249.06C159.667 249.433 159.621 249.827 159.621 250.24V253.76C159.621 254.213 159.667 254.633 159.761 255.02C159.854 255.393 160.001 255.72 160.201 256C160.401 256.28 160.661 256.5 160.981 256.66C161.314 256.807 161.714 256.88 162.181 256.88ZM170.207 250.86H173.247V247.82H175.527V250.86H178.567V253.14H175.527V256.18H173.247V253.14H170.207V250.86ZM182.453 250.86H185.493V247.82H187.773V250.86H190.813V253.14H187.773V256.18H185.493V253.14H182.453V250.86Z" fill="white"/>
<path d="M164.041 293.68H164.401V281H167.041V295H161.881L160.241 282.32H159.881V295H157.241V281H162.401L164.041 293.68ZM179.547 290.16C179.547 290.987 179.407 291.72 179.127 292.36C178.847 292.987 178.467 293.52 177.987 293.96C177.507 294.387 176.953 294.713 176.327 294.94C175.713 295.167 175.067 295.28 174.387 295.28C173.707 295.28 173.053 295.167 172.427 294.94C171.813 294.713 171.267 294.387 170.787 293.96C170.307 293.52 169.927 292.987 169.647 292.36C169.367 291.72 169.227 290.987 169.227 290.16V289.92C169.227 289.107 169.367 288.387 169.647 287.76C169.927 287.12 170.307 286.58 170.787 286.14C171.267 285.7 171.813 285.367 172.427 285.14C173.053 284.913 173.707 284.8 174.387 284.8C175.067 284.8 175.713 284.913 176.327 285.14C176.953 285.367 177.507 285.7 177.987 286.14C178.467 286.58 178.847 287.12 179.127 287.76C179.407 288.387 179.547 289.107 179.547 289.92V290.16ZM174.387 292.88C174.747 292.88 175.087 292.82 175.407 292.7C175.727 292.58 176.007 292.407 176.247 292.18C176.487 291.953 176.673 291.68 176.807 291.36C176.953 291.027 177.027 290.653 177.027 290.24V289.84C177.027 289.427 176.953 289.06 176.807 288.74C176.673 288.407 176.487 288.127 176.247 287.9C176.007 287.673 175.727 287.5 175.407 287.38C175.087 287.26 174.747 287.2 174.387 287.2C174.027 287.2 173.687 287.26 173.367 287.38C173.047 287.5 172.767 287.673 172.527 287.9C172.287 288.127 172.093 288.407 171.947 288.74C171.813 289.06 171.747 289.427 171.747 289.84V290.24C171.747 290.653 171.813 291.027 171.947 291.36C172.093 291.68 172.287 291.953 172.527 292.18C172.767 292.407 173.047 292.58 173.367 292.7C173.687 292.82 174.027 292.88 174.387 292.88ZM189.193 293.56H188.833C188.726 293.787 188.593 294.007 188.433 294.22C188.286 294.42 188.086 294.6 187.833 294.76C187.593 294.92 187.299 295.047 186.953 295.14C186.619 295.233 186.213 295.28 185.733 295.28C185.119 295.28 184.546 295.173 184.013 294.96C183.493 294.733 183.033 294.407 182.633 293.98C182.246 293.54 181.939 293.007 181.713 292.38C181.499 291.753 181.393 291.033 181.393 290.22V289.86C181.393 289.06 181.506 288.347 181.733 287.72C181.973 287.093 182.293 286.567 182.693 286.14C183.106 285.7 183.579 285.367 184.113 285.14C184.659 284.913 185.233 284.8 185.833 284.8C186.633 284.8 187.266 284.953 187.733 285.26C188.199 285.553 188.566 285.973 188.833 286.52H189.193V281H191.713V295H189.193V293.56ZM186.553 292.88C187.339 292.88 187.973 292.633 188.453 292.14C188.946 291.633 189.193 290.973 189.193 290.16V289.92C189.193 289.107 188.946 288.453 188.453 287.96C187.973 287.453 187.339 287.2 186.553 287.2C185.766 287.2 185.126 287.447 184.633 287.94C184.153 288.42 183.913 289.08 183.913 289.92V290.16C183.913 291 184.153 291.667 184.633 292.16C185.126 292.64 185.766 292.88 186.553 292.88ZM196.539 290.86C196.552 291.153 196.619 291.427 196.739 291.68C196.872 291.92 197.045 292.133 197.259 292.32C197.485 292.493 197.739 292.633 198.019 292.74C198.312 292.833 198.619 292.88 198.939 292.88C199.565 292.88 200.045 292.773 200.379 292.56C200.712 292.333 200.952 292.067 201.099 291.76L203.259 292.96C203.139 293.213 202.972 293.48 202.759 293.76C202.545 294.027 202.265 294.273 201.919 294.5C201.585 294.727 201.172 294.913 200.679 295.06C200.199 295.207 199.632 295.28 198.979 295.28C198.232 295.28 197.552 295.16 196.939 294.92C196.325 294.68 195.792 294.333 195.339 293.88C194.899 293.427 194.552 292.873 194.299 292.22C194.059 291.567 193.939 290.827 193.939 290V289.88C193.939 289.12 194.065 288.427 194.319 287.8C194.585 287.173 194.945 286.64 195.399 286.2C195.852 285.76 196.379 285.42 196.979 285.18C197.592 284.927 198.245 284.8 198.939 284.8C199.792 284.8 200.525 284.953 201.139 285.26C201.752 285.553 202.259 285.933 202.659 286.4C203.059 286.853 203.352 287.36 203.539 287.92C203.725 288.467 203.819 289 203.819 289.52V290.86H196.539ZM198.919 287.08C198.279 287.08 197.759 287.247 197.359 287.58C196.959 287.9 196.699 288.273 196.579 288.7H201.259C201.179 288.233 200.925 287.847 200.499 287.54C200.085 287.233 199.559 287.08 198.919 287.08ZM219.771 285.08H226.131V296.96C226.131 297.653 225.944 298.167 225.571 298.5C225.198 298.833 224.711 299 224.111 299H219.411V296.6H223.011C223.411 296.6 223.611 296.38 223.611 295.94V287.48H219.771V285.08ZM226.731 282.14C226.731 282.407 226.678 282.66 226.571 282.9C226.478 283.127 226.344 283.327 226.171 283.5C225.998 283.66 225.791 283.793 225.551 283.9C225.324 283.993 225.084 284.04 224.831 284.04C224.564 284.04 224.318 283.993 224.091 283.9C223.864 283.793 223.664 283.66 223.491 283.5C223.318 283.327 223.178 283.127 223.071 282.9C222.978 282.66 222.931 282.407 222.931 282.14C222.931 281.873 222.978 281.627 223.071 281.4C223.178 281.16 223.318 280.96 223.491 280.8C223.664 280.627 223.864 280.493 224.091 280.4C224.318 280.293 224.564 280.24 224.831 280.24C225.084 280.24 225.324 280.293 225.551 280.4C225.791 280.493 225.998 280.627 226.171 280.8C226.344 280.96 226.478 281.16 226.571 281.4C226.678 281.627 226.731 281.873 226.731 282.14ZM234.217 287.88C234.217 288.2 234.384 288.433 234.717 288.58C235.05 288.713 235.657 288.827 236.537 288.92C237.55 289.027 238.377 289.333 239.017 289.84C239.657 290.333 239.977 291.027 239.977 291.92V292.04C239.977 293.027 239.617 293.813 238.897 294.4C238.177 294.987 237.164 295.28 235.857 295.28C235.084 295.28 234.424 295.18 233.877 294.98C233.33 294.78 232.877 294.533 232.517 294.24C232.157 293.933 231.877 293.6 231.677 293.24C231.49 292.867 231.364 292.507 231.297 292.16L233.617 291.4C233.724 291.827 233.944 292.2 234.277 292.52C234.624 292.84 235.15 293 235.857 293C236.484 293 236.91 292.907 237.137 292.72C237.377 292.52 237.497 292.307 237.497 292.08C237.497 291.947 237.464 291.827 237.397 291.72C237.344 291.6 237.237 291.493 237.077 291.4C236.917 291.293 236.697 291.207 236.417 291.14C236.15 291.073 235.81 291.02 235.397 290.98C234.277 290.887 233.384 290.6 232.717 290.12C232.064 289.627 231.737 288.907 231.737 287.96V287.84C231.737 287.347 231.844 286.913 232.057 286.54C232.27 286.167 232.55 285.853 232.897 285.6C233.244 285.333 233.644 285.133 234.097 285C234.55 284.867 235.017 284.8 235.497 284.8C236.124 284.8 236.664 284.88 237.117 285.04C237.584 285.187 237.977 285.387 238.297 285.64C238.617 285.88 238.877 286.153 239.077 286.46C239.277 286.753 239.43 287.04 239.537 287.32L237.257 288.24C237.137 287.88 236.93 287.6 236.637 287.4C236.344 287.187 235.964 287.08 235.497 287.08C235.07 287.08 234.75 287.16 234.537 287.32C234.324 287.467 234.217 287.653 234.217 287.88Z" fill="white"/>
<path opacity="0.5" d="M451.985 24.625L453.695 25.165L449.21 38.875L447.485 38.335L451.985 24.625ZM461.17 24.625L462.88 25.165L458.395 38.875L456.67 38.335L461.17 24.625ZM467.429 33.04V37H465.449V26.5H469.559C470.099 26.5 470.569 26.59 470.969 26.77C471.369 26.94 471.699 27.17 471.959 27.46C472.229 27.74 472.429 28.065 472.559 28.435C472.699 28.795 472.769 29.165 472.769 29.545V29.905C472.769 30.295 472.699 30.68 472.559 31.06C472.429 31.43 472.229 31.765 471.959 32.065C471.699 32.355 471.369 32.59 470.969 32.77C470.569 32.95 470.099 33.04 469.559 33.04H467.429ZM467.429 31.15H469.364C469.804 31.15 470.149 31.03 470.399 30.79C470.659 30.55 470.789 30.24 470.789 29.86V29.68C470.789 29.3 470.659 28.99 470.399 28.75C470.149 28.51 469.804 28.39 469.364 28.39H467.429V31.15ZM474.364 29.56H477.514V30.64H477.784C477.924 30.23 478.159 29.915 478.489 29.695C478.829 29.465 479.234 29.35 479.704 29.35C480.444 29.35 481.039 29.585 481.489 30.055C481.939 30.515 482.164 31.22 482.164 32.17V32.5L480.214 32.68V32.47C480.214 32.06 480.109 31.735 479.899 31.495C479.689 31.245 479.374 31.12 478.954 31.12C478.534 31.12 478.204 31.265 477.964 31.555C477.724 31.845 477.604 32.26 477.604 32.8V35.2H479.314V37H474.184V35.2H475.714V31.36H474.364V29.56ZM491.198 33.37C491.198 33.99 491.093 34.54 490.883 35.02C490.673 35.49 490.388 35.89 490.028 36.22C489.668 36.54 489.253 36.785 488.783 36.955C488.323 37.125 487.838 37.21 487.328 37.21C486.818 37.21 486.328 37.125 485.858 36.955C485.398 36.785 484.988 36.54 484.628 36.22C484.268 35.89 483.983 35.49 483.773 35.02C483.563 34.54 483.458 33.99 483.458 33.37V33.19C483.458 32.58 483.563 32.04 483.773 31.57C483.983 31.09 484.268 30.685 484.628 30.355C484.988 30.025 485.398 29.775 485.858 29.605C486.328 29.435 486.818 29.35 487.328 29.35C487.838 29.35 488.323 29.435 488.783 29.605C489.253 29.775 489.668 30.025 490.028 30.355C490.388 30.685 490.673 31.09 490.883 31.57C491.093 32.04 491.198 32.58 491.198 33.19V33.37ZM487.328 35.41C487.598 35.41 487.853 35.365 488.093 35.275C488.333 35.185 488.543 35.055 488.723 34.885C488.903 34.715 489.043 34.51 489.143 34.27C489.253 34.02 489.308 33.74 489.308 33.43V33.13C489.308 32.82 489.253 32.545 489.143 32.305C489.043 32.055 488.903 31.845 488.723 31.675C488.543 31.505 488.333 31.375 488.093 31.285C487.853 31.195 487.598 31.15 487.328 31.15C487.058 31.15 486.803 31.195 486.563 31.285C486.323 31.375 486.113 31.505 485.933 31.675C485.753 31.845 485.608 32.055 485.498 32.305C485.398 32.545 485.348 32.82 485.348 33.13V33.43C485.348 33.74 485.398 34.02 485.498 34.27C485.608 34.51 485.753 34.715 485.933 34.885C486.113 35.055 486.323 35.185 486.563 35.275C486.803 35.365 487.058 35.41 487.328 35.41ZM498.403 35.92H498.133C498.053 36.09 497.953 36.255 497.833 36.415C497.723 36.565 497.573 36.7 497.383 36.82C497.203 36.94 496.983 37.035 496.723 37.105C496.473 37.175 496.168 37.21 495.808 37.21C495.348 37.21 494.918 37.13 494.518 36.97C494.128 36.8 493.783 36.555 493.483 36.235C493.193 35.905 492.963 35.505 492.793 35.035C492.633 34.565 492.553 34.025 492.553 33.415V33.145C492.553 32.545 492.638 32.01 492.808 31.54C492.988 31.07 493.228 30.675 493.528 30.355C493.838 30.025 494.193 29.775 494.593 29.605C495.003 29.435 495.433 29.35 495.883 29.35C496.483 29.35 496.958 29.465 497.308 29.695C497.658 29.915 497.933 30.23 498.133 30.64H498.403V29.56H500.293V38.83C500.293 39.17 500.183 39.45 499.963 39.67C499.753 39.89 499.478 40 499.138 40H494.128V38.2H497.998C498.268 38.2 498.403 38.05 498.403 37.75V35.92ZM496.423 35.41C497.013 35.41 497.488 35.225 497.848 34.855C498.218 34.475 498.403 33.98 498.403 33.37V33.19C498.403 32.58 498.218 32.09 497.848 31.72C497.488 31.34 497.013 31.15 496.423 31.15C495.833 31.15 495.353 31.335 494.983 31.705C494.623 32.065 494.443 32.56 494.443 33.19V33.37C494.443 34 494.623 34.5 494.983 34.87C495.353 35.23 495.833 35.41 496.423 35.41ZM501.917 29.56H505.067V30.64H505.337C505.477 30.23 505.712 29.915 506.042 29.695C506.382 29.465 506.787 29.35 507.257 29.35C507.997 29.35 508.592 29.585 509.042 30.055C509.492 30.515 509.717 31.22 509.717 32.17V32.5L507.767 32.68V32.47C507.767 32.06 507.662 31.735 507.452 31.495C507.242 31.245 506.927 31.12 506.507 31.12C506.087 31.12 505.757 31.265 505.517 31.555C505.277 31.845 505.157 32.26 505.157 32.8V35.2H506.867V37H501.737V35.2H503.267V31.36H501.917V29.56ZM516.277 35.92C516.077 36.39 515.797 36.725 515.437 36.925C515.077 37.115 514.657 37.21 514.177 37.21C513.727 37.21 513.302 37.125 512.902 36.955C512.512 36.785 512.167 36.535 511.867 36.205C511.567 35.875 511.327 35.475 511.147 35.005C510.977 34.535 510.892 34 510.892 33.4V33.16C510.892 32.57 510.977 32.04 511.147 31.57C511.317 31.1 511.547 30.7 511.837 30.37C512.127 30.04 512.462 29.79 512.842 29.62C513.232 29.44 513.647 29.35 514.087 29.35C514.617 29.35 515.042 29.44 515.362 29.62C515.692 29.8 515.952 30.08 516.142 30.46H516.412V29.56H518.302V34.75C518.302 35.05 518.437 35.2 518.707 35.2H518.992V37H517.702C517.362 37 517.082 36.9 516.862 36.7C516.652 36.5 516.547 36.24 516.547 35.92H516.277ZM514.597 35.41C515.147 35.41 515.587 35.23 515.917 34.87C516.247 34.5 516.412 34 516.412 33.37V33.19C516.412 32.56 516.247 32.065 515.917 31.705C515.587 31.335 515.147 31.15 514.597 31.15C514.047 31.15 513.607 31.335 513.277 31.705C512.947 32.065 512.782 32.56 512.782 33.19V33.37C512.782 34 512.947 34.5 513.277 34.87C513.607 35.23 514.047 35.41 514.597 35.41ZM528.117 37H526.227V31.78C526.227 31.57 526.172 31.415 526.062 31.315C525.962 31.205 525.827 31.15 525.657 31.15C525.457 31.15 525.297 31.21 525.177 31.33C525.067 31.45 525.012 31.63 525.012 31.87V37H523.122V31.78C523.122 31.57 523.062 31.415 522.942 31.315C522.832 31.205 522.697 31.15 522.537 31.15C522.357 31.15 522.207 31.21 522.087 31.33C521.967 31.45 521.907 31.63 521.907 31.87V37H520.017V29.56H521.907V30.28H522.177C522.237 30.01 522.372 29.79 522.582 29.62C522.802 29.44 523.087 29.35 523.437 29.35C523.767 29.35 524.047 29.44 524.277 29.62C524.507 29.79 524.662 30.01 524.742 30.28H525.012C525.092 30.01 525.257 29.79 525.507 29.62C525.767 29.44 526.087 29.35 526.467 29.35C526.967 29.35 527.367 29.52 527.667 29.86C527.967 30.19 528.117 30.65 528.117 31.24V37ZM537.301 37H535.411V31.78C535.411 31.57 535.356 31.415 535.246 31.315C535.146 31.205 535.011 31.15 534.841 31.15C534.641 31.15 534.481 31.21 534.361 31.33C534.251 31.45 534.196 31.63 534.196 31.87V37H532.306V31.78C532.306 31.57 532.246 31.415 532.126 31.315C532.016 31.205 531.881 31.15 531.721 31.15C531.541 31.15 531.391 31.21 531.271 31.33C531.151 31.45 531.091 31.63 531.091 31.87V37H529.201V29.56H531.091V30.28H531.361C531.421 30.01 531.556 29.79 531.766 29.62C531.986 29.44 532.271 29.35 532.621 29.35C532.951 29.35 533.231 29.44 533.461 29.62C533.691 29.79 533.846 30.01 533.926 30.28H534.196C534.276 30.01 534.441 29.79 534.691 29.62C534.951 29.44 535.271 29.35 535.651 29.35C536.151 29.35 536.551 29.52 536.851 29.86C537.151 30.19 537.301 30.65 537.301 31.24V37ZM539.151 35.2H541.671V31.36H539.331V29.56H543.561V35.2H545.721V37H539.151V35.2ZM544.026 27.355C544.026 27.555 543.986 27.745 543.906 27.925C543.836 28.095 543.736 28.245 543.606 28.375C543.476 28.495 543.321 28.595 543.141 28.675C542.971 28.745 542.791 28.78 542.601 28.78C542.401 28.78 542.216 28.745 542.046 28.675C541.876 28.595 541.726 28.495 541.596 28.375C541.466 28.245 541.361 28.095 541.281 27.925C541.211 27.745 541.176 27.555 541.176 27.355C541.176 27.155 541.211 26.97 541.281 26.8C541.361 26.62 541.466 26.47 541.596 26.35C541.726 26.22 541.876 26.12 542.046 26.05C542.216 25.97 542.401 25.93 542.601 25.93C542.791 25.93 542.971 25.97 543.141 26.05C543.321 26.12 543.476 26.22 543.606 26.35C543.736 26.47 543.836 26.62 543.906 26.8C543.986 26.97 544.026 27.155 544.026 27.355ZM550.09 37H548.2V29.56H550.09V30.67H550.36C550.53 30.25 550.805 29.925 551.185 29.695C551.565 29.465 552.01 29.35 552.52 29.35C552.88 29.35 553.215 29.41 553.525 29.53C553.845 29.64 554.125 29.815 554.365 30.055C554.605 30.295 554.79 30.6 554.92 30.97C555.06 31.34 555.13 31.78 555.13 32.29V37H553.24V32.77C553.24 32.24 553.11 31.825 552.85 31.525C552.6 31.215 552.235 31.06 551.755 31.06C551.195 31.06 550.775 31.25 550.495 31.63C550.225 32 550.09 32.5 550.09 33.13V37ZM562.695 35.92H562.425C562.345 36.09 562.245 36.255 562.125 36.415C562.015 36.565 561.865 36.7 561.675 36.82C561.495 36.94 561.275 37.035 561.015 37.105C560.765 37.175 560.46 37.21 560.1 37.21C559.64 37.21 559.21 37.13 558.81 36.97C558.42 36.8 558.075 36.555 557.775 36.235C557.485 35.905 557.255 35.505 557.085 35.035C556.925 34.565 556.845 34.025 556.845 33.415V33.145C556.845 32.545 556.93 32.01 557.1 31.54C557.28 31.07 557.52 30.675 557.82 30.355C558.13 30.025 558.485 29.775 558.885 29.605C559.295 29.435 559.725 29.35 560.175 29.35C560.775 29.35 561.25 29.465 561.6 29.695C561.95 29.915 562.225 30.23 562.425 30.64H562.695V29.56H564.585V38.83C564.585 39.17 564.475 39.45 564.255 39.67C564.045 39.89 563.77 40 563.43 40H558.42V38.2H562.29C562.56 38.2 562.695 38.05 562.695 37.75V35.92ZM560.715 35.41C561.305 35.41 561.78 35.225 562.14 34.855C562.51 34.475 562.695 33.98 562.695 33.37V33.19C562.695 32.58 562.51 32.09 562.14 31.72C561.78 31.34 561.305 31.15 560.715 31.15C560.125 31.15 559.645 31.335 559.275 31.705C558.915 32.065 558.735 32.56 558.735 33.19V33.37C558.735 34 558.915 34.5 559.275 34.87C559.645 35.23 560.125 35.41 560.715 35.41ZM575.709 35.2H578.319V28.3H575.799V26.5H580.209V35.2H582.639V37H575.709V35.2ZM589.754 35.92C589.554 36.39 589.274 36.725 588.914 36.925C588.554 37.115 588.134 37.21 587.654 37.21C587.204 37.21 586.779 37.125 586.379 36.955C585.989 36.785 585.644 36.535 585.344 36.205C585.044 35.875 584.804 35.475 584.624 35.005C584.454 34.535 584.369 34 584.369 33.4V33.16C584.369 32.57 584.454 32.04 584.624 31.57C584.794 31.1 585.024 30.7 585.314 30.37C585.604 30.04 585.939 29.79 586.319 29.62C586.709 29.44 587.124 29.35 587.564 29.35C588.094 29.35 588.519 29.44 588.839 29.62C589.169 29.8 589.429 30.08 589.619 30.46H589.889V29.56H591.779V34.75C591.779 35.05 591.914 35.2 592.184 35.2H592.469V37H591.179C590.839 37 590.559 36.9 590.339 36.7C590.129 36.5 590.024 36.24 590.024 35.92H589.754ZM588.074 35.41C588.624 35.41 589.064 35.23 589.394 34.87C589.724 34.5 589.889 34 589.889 33.37V33.19C589.889 32.56 589.724 32.065 589.394 31.705C589.064 31.335 588.624 31.15 588.074 31.15C587.524 31.15 587.084 31.335 586.754 31.705C586.424 32.065 586.259 32.56 586.259 33.19V33.37C586.259 34 586.424 34.5 586.754 34.87C587.084 35.23 587.524 35.41 588.074 35.41ZM596.013 37H594.123V29.56H596.013V30.67H596.283C596.453 30.25 596.728 29.925 597.108 29.695C597.488 29.465 597.933 29.35 598.443 29.35C598.803 29.35 599.138 29.41 599.448 29.53C599.768 29.64 600.048 29.815 600.288 30.055C600.528 30.295 600.713 30.6 600.843 30.97C600.983 31.34 601.053 31.78 601.053 32.29V37H599.163V32.77C599.163 32.24 599.033 31.825 598.773 31.525C598.523 31.215 598.158 31.06 597.678 31.06C597.118 31.06 596.698 31.25 596.418 31.63C596.148 32 596.013 32.5 596.013 33.13V37ZM608.618 35.92H608.348C608.268 36.09 608.168 36.255 608.048 36.415C607.938 36.565 607.788 36.7 607.598 36.82C607.418 36.94 607.198 37.035 606.938 37.105C606.688 37.175 606.383 37.21 606.023 37.21C605.563 37.21 605.133 37.13 604.733 36.97C604.343 36.8 603.998 36.555 603.698 36.235C603.408 35.905 603.178 35.505 603.008 35.035C602.848 34.565 602.768 34.025 602.768 33.415V33.145C602.768 32.545 602.853 32.01 603.023 31.54C603.203 31.07 603.443 30.675 603.743 30.355C604.053 30.025 604.408 29.775 604.808 29.605C605.218 29.435 605.648 29.35 606.098 29.35C606.698 29.35 607.173 29.465 607.523 29.695C607.873 29.915 608.148 30.23 608.348 30.64H608.618V29.56H610.508V38.83C610.508 39.17 610.398 39.45 610.178 39.67C609.968 39.89 609.693 40 609.353 40H604.343V38.2H608.213C608.483 38.2 608.618 38.05 608.618 37.75V35.92ZM606.638 35.41C607.228 35.41 607.703 35.225 608.063 34.855C608.433 34.475 608.618 33.98 608.618 33.37V33.19C608.618 32.58 608.433 32.09 608.063 31.72C607.703 31.34 607.228 31.15 606.638 31.15C606.048 31.15 605.568 31.335 605.198 31.705C604.838 32.065 604.658 32.56 604.658 33.19V33.37C604.658 34 604.838 34.5 605.198 34.87C605.568 35.23 606.048 35.41 606.638 35.41ZM617.532 29.56H619.422V37H617.532V35.92H617.262C616.932 36.78 616.222 37.21 615.132 37.21C614.762 37.21 614.417 37.15 614.097 37.03C613.777 36.91 613.497 36.725 613.257 36.475C613.017 36.225 612.827 35.915 612.687 35.545C612.557 35.165 612.492 34.72 612.492 34.21V29.56H614.382V33.82C614.382 34.35 614.507 34.765 614.757 35.065C615.007 35.355 615.382 35.5 615.882 35.5C616.452 35.5 616.867 35.32 617.127 34.96C617.397 34.59 617.532 34.09 617.532 33.46V29.56ZM626.492 35.92C626.292 36.39 626.012 36.725 625.652 36.925C625.292 37.115 624.872 37.21 624.392 37.21C623.942 37.21 623.517 37.125 623.117 36.955C622.727 36.785 622.382 36.535 622.082 36.205C621.782 35.875 621.542 35.475 621.362 35.005C621.192 34.535 621.107 34 621.107 33.4V33.16C621.107 32.57 621.192 32.04 621.362 31.57C621.532 31.1 621.762 30.7 622.052 30.37C622.342 30.04 622.677 29.79 623.057 29.62C623.447 29.44 623.862 29.35 624.302 29.35C624.832 29.35 625.257 29.44 625.577 29.62C625.907 29.8 626.167 30.08 626.357 30.46H626.627V29.56H628.517V34.75C628.517 35.05 628.652 35.2 628.922 35.2H629.207V37H627.917C627.577 37 627.297 36.9 627.077 36.7C626.867 36.5 626.762 36.24 626.762 35.92H626.492ZM624.812 35.41C625.362 35.41 625.802 35.23 626.132 34.87C626.462 34.5 626.627 34 626.627 33.37V33.19C626.627 32.56 626.462 32.065 626.132 31.705C625.802 31.335 625.362 31.15 624.812 31.15C624.262 31.15 623.822 31.335 623.492 31.705C623.162 32.065 622.997 32.56 622.997 33.19V33.37C622.997 34 623.162 34.5 623.492 34.87C623.822 35.23 624.262 35.41 624.812 35.41ZM636.171 35.92H635.901C635.821 36.09 635.721 36.255 635.601 36.415C635.491 36.565 635.341 36.7 635.151 36.82C634.971 36.94 634.751 37.035 634.491 37.105C634.241 37.175 633.936 37.21 633.576 37.21C633.116 37.21 632.686 37.13 632.286 36.97C631.896 36.8 631.551 36.555 631.251 36.235C630.961 35.905 630.731 35.505 630.561 35.035C630.401 34.565 630.321 34.025 630.321 33.415V33.145C630.321 32.545 630.406 32.01 630.576 31.54C630.756 31.07 630.996 30.675 631.296 30.355C631.606 30.025 631.961 29.775 632.361 29.605C632.771 29.435 633.201 29.35 633.651 29.35C634.251 29.35 634.726 29.465 635.076 29.695C635.426 29.915 635.701 30.23 635.901 30.64H636.171V29.56H638.061V38.83C638.061 39.17 637.951 39.45 637.731 39.67C637.521 39.89 637.246 40 636.906 40H631.896V38.2H635.766C636.036 38.2 636.171 38.05 636.171 37.75V35.92ZM634.191 35.41C634.781 35.41 635.256 35.225 635.616 34.855C635.986 34.475 636.171 33.98 636.171 33.37V33.19C636.171 32.58 635.986 32.09 635.616 31.72C635.256 31.34 634.781 31.15 634.191 31.15C633.601 31.15 633.121 31.335 632.751 31.705C632.391 32.065 632.211 32.56 632.211 33.19V33.37C632.211 34 632.391 34.5 632.751 34.87C633.121 35.23 633.601 35.41 634.191 35.41ZM641.711 33.895C641.721 34.115 641.771 34.32 641.861 34.51C641.961 34.69 642.091 34.85 642.251 34.99C642.421 35.12 642.611 35.225 642.821 35.305C643.041 35.375 643.271 35.41 643.511 35.41C643.981 35.41 644.341 35.33 644.591 35.17C644.841 35 645.021 34.8 645.131 34.57L646.751 35.47C646.661 35.66 646.536 35.86 646.376 36.07C646.216 36.27 646.006 36.455 645.746 36.625C645.496 36.795 645.186 36.935 644.816 37.045C644.456 37.155 644.031 37.21 643.541 37.21C642.981 37.21 642.471 37.12 642.011 36.94C641.551 36.76 641.151 36.5 640.811 36.16C640.481 35.82 640.221 35.405 640.031 34.915C639.851 34.425 639.761 33.87 639.761 33.25V33.16C639.761 32.59 639.856 32.07 640.046 31.6C640.246 31.13 640.516 30.73 640.856 30.4C641.196 30.07 641.591 29.815 642.041 29.635C642.501 29.445 642.991 29.35 643.511 29.35C644.151 29.35 644.701 29.465 645.161 29.695C645.621 29.915 646.001 30.2 646.301 30.55C646.601 30.89 646.821 31.27 646.961 31.69C647.101 32.1 647.171 32.5 647.171 32.89V33.895H641.711ZM643.496 31.06C643.016 31.06 642.626 31.185 642.326 31.435C642.026 31.675 641.831 31.955 641.741 32.275H645.251C645.191 31.925 645.001 31.635 644.681 31.405C644.371 31.175 643.976 31.06 643.496 31.06ZM651.601 31.66C651.601 31.9 651.726 32.075 651.976 32.185C652.226 32.285 652.681 32.37 653.341 32.44C654.101 32.52 654.721 32.75 655.201 33.13C655.681 33.5 655.921 34.02 655.921 34.69V34.78C655.921 35.52 655.651 36.11 655.111 36.55C654.571 36.99 653.811 37.21 652.831 37.21C652.251 37.21 651.756 37.135 651.346 36.985C650.936 36.835 650.596 36.65 650.326 36.43C650.056 36.2 649.846 35.95 649.696 35.68C649.556 35.4 649.461 35.13 649.411 34.87L651.151 34.3C651.231 34.62 651.396 34.9 651.646 35.14C651.906 35.38 652.301 35.5 652.831 35.5C653.301 35.5 653.621 35.43 653.791 35.29C653.971 35.14 654.061 34.98 654.061 34.81C654.061 34.71 654.036 34.62 653.986 34.54C653.946 34.45 653.866 34.37 653.746 34.3C653.626 34.22 653.461 34.155 653.251 34.105C653.051 34.055 652.796 34.015 652.486 33.985C651.646 33.915 650.976 33.7 650.476 33.34C649.986 32.97 649.741 32.43 649.741 31.72V31.63C649.741 31.26 649.821 30.935 649.981 30.655C650.141 30.375 650.351 30.14 650.611 29.95C650.871 29.75 651.171 29.6 651.511 29.5C651.851 29.4 652.201 29.35 652.561 29.35C653.031 29.35 653.436 29.41 653.776 29.53C654.126 29.64 654.421 29.79 654.661 29.98C654.901 30.16 655.096 30.365 655.246 30.595C655.396 30.815 655.511 31.03 655.591 31.24L653.881 31.93C653.791 31.66 653.636 31.45 653.416 31.3C653.196 31.14 652.911 31.06 652.561 31.06C652.241 31.06 652.001 31.12 651.841 31.24C651.681 31.35 651.601 31.49 651.601 31.66Z" fill="white"/>
<path d="M125.954 132.288L127.486 149.608L134.694 151.712L141.947 149.609L143.435 132.288H125.954ZM138.87 146.586L134.701 147.755H134.694L130.521 146.586L130.233 143.51H132.28L132.425 144.992L134.693 145.613L136.966 144.991L137.204 142.029H130.143L129.962 140.081H137.381L137.55 138.133H129.764L129.594 136.185H139.797L138.87 146.586Z" fill="white"/>
<path d="M128.867 170.259C128.094 170.259 127.353 170.566 126.807 171.113C126.261 171.659 125.954 172.4 125.954 173.173V184.827C125.954 185.6 126.261 186.341 126.807 186.887C127.353 187.434 128.094 187.741 128.867 187.741H140.521C141.294 187.741 142.035 187.434 142.581 186.887C143.128 186.341 143.435 185.6 143.435 184.827V173.173C143.435 172.4 143.128 171.659 142.581 171.113C142.035 170.566 141.294 170.259 140.521 170.259H128.867ZM135.99 182.938C136.689 183.501 137.387 183.779 138.084 183.771C138.511 183.771 138.838 183.693 139.066 183.536C139.172 183.467 139.259 183.372 139.317 183.26C139.375 183.147 139.403 183.022 139.398 182.895C139.399 182.757 139.37 182.621 139.313 182.495C139.256 182.37 139.172 182.258 139.067 182.169C138.839 181.97 138.408 181.771 137.774 181.571C137.012 181.351 136.424 181.066 136.011 180.716C135.606 180.366 135.399 179.879 135.391 179.253C135.391 178.661 135.648 178.166 136.161 177.768C136.659 177.369 137.297 177.169 138.074 177.169C139.156 177.169 140.025 177.433 140.679 177.96L139.932 179.124C139.662 178.915 139.353 178.762 139.024 178.676C138.727 178.576 138.417 178.522 138.105 178.515C137.736 178.515 137.44 178.583 137.218 178.718C136.998 178.854 136.888 179.032 136.888 179.253C136.888 179.495 137.023 179.701 137.293 179.872C137.565 180.037 138.028 180.218 138.682 180.417C139.472 180.652 140.035 180.965 140.37 181.357C140.704 181.749 140.872 182.247 140.872 182.853C140.872 183.472 140.633 184.006 140.156 184.455C139.686 184.897 139.002 185.128 138.105 185.149C136.93 185.149 135.947 184.797 135.156 184.092L135.99 182.938ZM130.619 183.558C130.847 183.7 131.121 183.771 131.442 183.771C131.776 183.771 132.054 183.675 132.275 183.483C132.495 183.284 132.605 182.938 132.606 182.447V177.298H134.048V182.724C134.027 183.565 133.785 184.17 133.322 184.541C133.069 184.755 132.774 184.915 132.457 185.011C132.162 185.1 131.856 185.147 131.549 185.149C131.014 185.149 130.541 185.057 130.128 184.872C129.686 184.673 129.316 184.32 129.017 183.814L130.021 182.992C130.205 183.241 130.405 183.43 130.619 183.558Z" fill="white"/>
<path d="M134.694 214.165C135.694 214.165 136.51 214.98 136.51 216C136.51 216.971 135.694 217.797 134.694 217.797C133.694 217.797 132.878 216.971 132.878 216C132.878 214.98 133.694 214.165 134.694 214.165ZM130.197 223.769C130.809 224.138 132.15 223.575 133.694 222.118C133.189 221.545 132.693 220.924 132.227 220.273C131.445 220.198 130.667 220.081 129.896 219.924C129.401 222.002 129.586 223.429 130.197 223.769ZM130.887 218.195L130.605 217.7C130.499 217.981 130.392 218.263 130.324 218.535C130.586 218.593 130.877 218.642 131.178 218.69L130.887 218.195ZM137.238 217.457L138.025 216L137.238 214.543C136.947 214.029 136.636 213.572 136.355 213.116C135.83 213.087 135.277 213.087 134.694 213.087C134.111 213.087 133.558 213.087 133.033 213.116C132.752 213.572 132.441 214.029 132.15 214.543L131.363 216L132.15 217.457C132.441 217.971 132.752 218.428 133.033 218.884C133.558 218.914 134.111 218.914 134.694 218.914C135.277 218.914 135.83 218.914 136.355 218.884C136.636 218.428 136.947 217.971 137.238 217.457ZM134.694 210.931C134.509 211.144 134.315 211.368 134.121 211.63H135.267C135.073 211.368 134.878 211.144 134.694 210.931ZM134.694 221.07C134.878 220.856 135.073 220.632 135.267 220.37H134.121C134.315 220.632 134.509 220.856 134.694 221.07ZM139.181 208.231C138.579 207.862 137.238 208.425 135.694 209.882C136.199 210.455 136.695 211.076 137.161 211.727C137.957 211.805 138.744 211.921 139.492 212.076C139.987 209.998 139.802 208.571 139.181 208.231ZM138.501 213.805L138.783 214.3C138.889 214.019 138.996 213.737 139.064 213.465C138.802 213.407 138.511 213.358 138.21 213.31L138.501 213.805ZM139.909 206.958C141.337 207.774 141.492 209.92 140.89 212.426C143.357 213.154 145.134 214.359 145.134 216C145.134 217.641 143.357 218.846 140.89 219.574C141.492 222.08 141.337 224.226 139.909 225.042C138.491 225.857 136.559 224.925 134.694 223.148C132.829 224.925 130.897 225.857 129.469 225.042C128.051 224.226 127.896 222.08 128.498 219.574C126.031 218.846 124.254 217.641 124.254 216C124.254 214.359 126.031 213.154 128.498 212.426C127.896 209.92 128.051 207.774 129.469 206.958C130.897 206.143 132.829 207.075 134.694 208.852C136.559 207.075 138.491 206.143 139.909 206.958ZM139.628 216C139.958 216.728 140.249 217.457 140.492 218.195C142.531 217.583 143.677 216.709 143.677 216C143.677 215.291 142.531 214.417 140.492 213.805C140.249 214.543 139.958 215.272 139.628 216ZM129.76 216C129.43 215.272 129.139 214.543 128.896 213.805C126.857 214.417 125.711 215.291 125.711 216C125.711 216.709 126.857 217.583 128.896 218.195C129.139 217.457 129.43 216.728 129.76 216ZM138.501 218.195L138.21 218.69C138.511 218.642 138.802 218.593 139.064 218.535C138.996 218.263 138.889 217.981 138.783 217.7L138.501 218.195ZM135.694 222.118C137.238 223.575 138.579 224.138 139.181 223.769C139.802 223.429 139.987 222.002 139.492 219.924C138.744 220.079 137.957 220.195 137.161 220.273C136.695 220.924 136.199 221.545 135.694 222.118ZM130.887 213.805L131.178 213.31C130.877 213.358 130.586 213.407 130.324 213.465C130.392 213.737 130.499 214.019 130.605 214.3L130.887 213.805ZM133.694 209.882C132.15 208.425 130.809 207.862 130.197 208.231C129.586 208.571 129.401 209.998 129.896 212.076C130.667 211.919 131.445 211.802 132.227 211.727C132.693 211.076 133.189 210.455 133.694 209.882Z" fill="white"/>
<path fill-rule="evenodd" clip-rule="evenodd" d="M126.682 252C126.681 253.731 127.241 255.416 128.278 256.802C129.315 258.188 130.773 259.202 132.434 259.69C134.095 260.178 135.87 260.115 137.492 259.511C139.114 258.906 140.497 257.793 141.433 256.337L137.688 255.186C137.066 255.77 136.288 256.159 135.448 256.306C134.607 256.453 133.743 256.351 132.96 256.013C132.177 255.674 131.511 255.114 131.042 254.401C130.574 253.688 130.324 252.854 130.324 252.001C130.324 251.149 130.574 250.314 131.042 249.602C131.511 248.889 132.177 248.329 132.96 247.99C133.743 247.652 134.607 247.55 135.448 247.697C136.288 247.843 137.066 248.233 137.688 248.817L141.432 247.663C140.495 246.208 139.112 245.095 137.49 244.491C135.868 243.887 134.095 243.824 132.434 244.312C130.774 244.801 129.316 245.813 128.279 247.199C127.242 248.585 126.682 250.269 126.682 252ZM134.694 262.197C132.858 262.197 131.056 261.701 129.478 260.761C127.901 259.822 126.606 258.473 125.731 256.859C124.856 255.245 124.433 253.424 124.507 251.589C124.581 249.755 125.149 247.974 126.151 246.435C127.153 244.896 128.552 243.657 130.2 242.847C131.849 242.038 133.685 241.688 135.515 241.836C137.345 241.983 139.102 242.622 140.599 243.685C142.096 244.748 143.279 246.195 144.022 247.874C144.084 248.016 144.116 248.168 144.115 248.323C144.114 248.477 144.081 248.629 144.017 248.769C143.953 248.91 143.86 249.035 143.744 249.137C143.628 249.239 143.492 249.315 143.344 249.36L137.662 251.108C137.445 251.175 137.212 251.173 136.996 251.102C136.781 251.031 136.593 250.894 136.458 250.711C136.186 250.339 135.804 250.062 135.365 249.92C134.926 249.779 134.454 249.78 134.016 249.923C133.578 250.066 133.196 250.344 132.925 250.717C132.655 251.09 132.509 251.539 132.509 252C132.509 252.461 132.655 252.91 132.925 253.283C133.196 253.656 133.578 253.934 134.016 254.077C134.454 254.22 134.926 254.221 135.365 254.08C135.804 253.938 136.186 253.661 136.458 253.289C136.592 253.106 136.78 252.969 136.996 252.897C137.212 252.826 137.444 252.823 137.662 252.89L143.344 254.638C143.492 254.684 143.628 254.76 143.744 254.862C143.86 254.964 143.953 255.089 144.017 255.23C144.081 255.37 144.115 255.523 144.116 255.677C144.116 255.832 144.084 255.984 144.022 256.126C143.222 257.932 141.915 259.468 140.259 260.546C138.603 261.624 136.67 262.198 134.694 262.197Z" fill="white"/>
<path d="M135.555 276.669C135.294 276.515 134.997 276.434 134.694 276.434C134.391 276.434 134.094 276.515 133.832 276.669L126.306 281.095C126.051 281.245 125.839 281.46 125.692 281.717C125.545 281.974 125.468 282.265 125.468 282.561V291.439C125.468 292.041 125.786 292.599 126.306 292.904L128.853 294.402C130.148 295.166 131.78 294.231 131.78 292.73V282.87H129.838V292.729L127.41 291.3V282.7L134.694 278.415L141.978 282.7V291.3L134.694 295.585L132.977 294.575L131.992 296.248L133.832 297.331C134.094 297.485 134.391 297.566 134.694 297.566C134.997 297.566 135.294 297.485 135.555 297.331L143.082 292.904C143.337 292.754 143.549 292.54 143.696 292.283C143.843 292.026 143.92 291.735 143.92 291.439V282.561C143.92 282.265 143.843 281.974 143.696 281.717C143.549 281.46 143.337 281.246 143.082 281.096L135.555 276.669ZM136.636 282.63C135.313 282.63 134.374 282.971 133.771 283.572C133.316 284.025 133.058 284.64 133.056 285.282C133.056 285.821 133.208 286.31 133.524 286.714C133.828 287.102 134.228 287.344 134.611 287.5C135.311 287.789 136.185 287.883 136.888 287.958L136.972 287.967C137.779 288.055 138.384 288.129 138.798 288.302C138.985 288.38 139.062 288.452 139.094 288.494C139.115 288.521 139.154 288.581 139.154 288.746C139.154 289.003 139.067 289.168 138.792 289.324C138.455 289.515 137.86 289.661 136.963 289.661C136.075 289.661 135.455 289.496 135.101 289.251C134.826 289.061 134.623 288.769 134.676 288.134L132.741 287.972C132.636 289.224 133.09 290.221 133.996 290.849C134.822 291.422 135.909 291.603 136.963 291.603C138.009 291.603 138.995 291.443 139.754 291.011C140.575 290.545 141.097 289.766 141.097 288.746C141.097 288.205 140.946 287.716 140.634 287.309C140.332 286.916 139.932 286.672 139.548 286.511C138.841 286.214 137.955 286.119 137.248 286.043L137.18 286.036C136.371 285.948 135.766 285.875 135.349 285.704C135.161 285.627 135.084 285.557 135.055 285.518C135.036 285.495 134.998 285.44 134.998 285.282C134.998 285.207 135.02 285.069 135.144 284.947C135.262 284.828 135.628 284.572 136.636 284.572C137.598 284.572 138.158 284.674 138.479 284.863C138.687 284.988 138.914 285.216 138.945 285.964L140.885 285.886C140.837 284.676 140.394 283.742 139.469 283.194C138.656 282.71 137.617 282.63 136.636 282.63Z" fill="white"/>
<g opacity="0.5">
<path fill-rule="evenodd" clip-rule="evenodd" d="M84.6248 97.4649C84.0628 97.4649 83.5238 97.6881 83.1265 98.0855C82.7291 98.4829 82.5059 99.0218 82.5059 99.5838V114.416C82.5059 114.978 82.7291 115.517 83.1265 115.914C83.5238 116.312 84.0628 116.535 84.6248 116.535H99.4572C100.019 116.535 100.558 116.312 100.955 115.914C101.353 115.517 101.576 114.978 101.576 114.416V99.5838C101.576 99.0218 101.353 98.4829 100.955 98.0855C100.558 97.6881 100.019 97.4649 99.4572 97.4649H84.6248ZM97.2853 104.665C97.4841 104.466 97.5958 104.197 97.5959 103.916C97.596 103.635 97.4845 103.365 97.2858 103.166C97.0872 102.968 96.8177 102.856 96.5366 102.856C96.2556 102.856 95.986 102.967 95.7872 103.166L90.5429 108.41L88.2958 106.163C88.1974 106.065 88.0806 105.987 87.9521 105.933C87.8235 105.88 87.6858 105.852 87.5466 105.852C87.2656 105.852 86.996 105.964 86.7972 106.163C86.5984 106.361 86.4867 106.631 86.4866 106.912C86.4865 107.193 86.598 107.462 86.7967 107.661L89.7186 110.583C89.8269 110.691 89.9554 110.777 90.0968 110.836C90.2382 110.894 90.3898 110.925 90.5429 110.925C90.696 110.925 90.8476 110.894 90.989 110.836C91.1304 110.777 91.2589 110.691 91.3672 110.583L97.2853 104.665Z" fill="white"/>
</g>
<g opacity="0.5">
<path fill-rule="evenodd" clip-rule="evenodd" d="M84.6248 133.465C84.0628 133.465 83.5238 133.688 83.1265 134.086C82.7291 134.483 82.5059 135.022 82.5059 135.584V150.416C82.5059 150.978 82.7291 151.517 83.1265 151.914C83.5238 152.312 84.0628 152.535 84.6248 152.535H99.4572C100.019 152.535 100.558 152.312 100.955 151.914C101.353 151.517 101.576 150.978 101.576 150.416V135.584C101.576 135.022 101.353 134.483 100.955 134.086C100.558 133.688 100.019 133.465 99.4572 133.465H84.6248ZM97.2853 140.665C97.4841 140.466 97.5958 140.197 97.5959 139.916C97.596 139.635 97.4845 139.365 97.2858 139.166C97.0872 138.968 96.8177 138.856 96.5366 138.856C96.2556 138.856 95.986 138.967 95.7872 139.166L90.5429 144.41L88.2958 142.163C88.1974 142.065 88.0806 141.987 87.9521 141.933C87.8235 141.88 87.6858 141.852 87.5466 141.852C87.2656 141.852 86.996 141.964 86.7972 142.163C86.5984 142.361 86.4867 142.631 86.4866 142.912C86.4865 143.193 86.598 143.462 86.7967 143.661L89.7186 146.583C89.8269 146.691 89.9554 146.777 90.0968 146.836C90.2382 146.894 90.3898 146.925 90.5429 146.925C90.696 146.925 90.8476 146.894 90.989 146.836C91.1304 146.777 91.2589 146.691 91.3672 146.583L97.2853 140.665Z" fill="white"/>
</g>
<g opacity="0.5">
<path fill-rule="evenodd" clip-rule="evenodd" d="M84.6248 169.465C84.0628 169.465 83.5238 169.688 83.1265 170.086C82.7291 170.483 82.5059 171.022 82.5059 171.584V186.416C82.5059 186.978 82.7291 187.517 83.1265 187.914C83.5238 188.312 84.0628 188.535 84.6248 188.535H99.4572C100.019 188.535 100.558 188.312 100.955 187.914C101.353 187.517 101.576 186.978 101.576 186.416V171.584C101.576 171.022 101.353 170.483 100.955 170.086C100.558 169.688 100.019 169.465 99.4572 169.465H84.6248ZM97.2853 176.665C97.4841 176.466 97.5958 176.197 97.5959 175.916C97.596 175.635 97.4845 175.365 97.2858 175.166C97.0872 174.968 96.8177 174.856 96.5366 174.856C96.2556 174.856 95.986 174.967 95.7872 175.166L90.5429 180.41L88.2958 178.163C88.1974 178.065 88.0806 177.987 87.9521 177.933C87.8235 177.88 87.6858 177.852 87.5466 177.852C87.2656 177.852 86.996 177.964 86.7972 178.163C86.5984 178.361 86.4867 178.631 86.4866 178.912C86.4865 179.193 86.598 179.462 86.7967 179.661L89.7186 182.583C89.8269 182.691 89.9554 182.777 90.0968 182.836C90.2382 182.894 90.3898 182.925 90.5429 182.925C90.696 182.925 90.8476 182.894 90.989 182.836C91.1304 182.777 91.2589 182.691 91.3672 182.583L97.2853 176.665Z" fill="white"/>
</g>
<g opacity="0.5">
<path fill-rule="evenodd" clip-rule="evenodd" d="M84.6248 205.465C84.0628 205.465 83.5238 205.688 83.1265 206.086C82.7291 206.483 82.5059 207.022 82.5059 207.584V222.416C82.5059 222.978 82.7291 223.517 83.1265 223.914C83.5238 224.312 84.0628 224.535 84.6248 224.535H99.4572C100.019 224.535 100.558 224.312 100.955 223.914C101.353 223.517 101.576 222.978 101.576 222.416V207.584C101.576 207.022 101.353 206.483 100.955 206.086C100.558 205.688 100.019 205.465 99.4572 205.465H84.6248ZM97.2853 212.665C97.4841 212.466 97.5958 212.197 97.5959 211.916C97.596 211.635 97.4845 211.365 97.2858 211.166C97.0872 210.968 96.8177 210.856 96.5366 210.856C96.2556 210.856 95.986 210.967 95.7872 211.166L90.5429 216.41L88.2958 214.163C88.1974 214.065 88.0806 213.987 87.9521 213.933C87.8235 213.88 87.6858 213.852 87.5466 213.852C87.2656 213.852 86.996 213.964 86.7972 214.163C86.5984 214.361 86.4867 214.631 86.4866 214.912C86.4865 215.193 86.598 215.462 86.7967 215.661L89.7186 218.583C89.8269 218.691 89.9554 218.777 90.0968 218.836C90.2382 218.894 90.3898 218.925 90.5429 218.925C90.696 218.925 90.8476 218.894 90.989 218.836C91.1304 218.777 91.2589 218.691 91.3672 218.583L97.2853 212.665Z" fill="white"/>
</g>
<g opacity="0.5">
<path fill-rule="evenodd" clip-rule="evenodd" d="M84.6248 241.465C84.0628 241.465 83.5238 241.688 83.1265 242.085C82.7291 242.483 82.5059 243.022 82.5059 243.584V258.416C82.5059 258.978 82.7291 259.517 83.1265 259.914C83.5238 260.312 84.0628 260.535 84.6248 260.535H99.4572C100.019 260.535 100.558 260.312 100.955 259.914C101.353 259.517 101.576 258.978 101.576 258.416V243.584C101.576 243.022 101.353 242.483 100.955 242.085C100.558 241.688 100.019 241.465 99.4572 241.465H84.6248ZM97.2853 248.665C97.4841 248.466 97.5958 248.197 97.5959 247.916C97.596 247.635 97.4845 247.365 97.2858 247.166C97.0872 246.968 96.8177 246.856 96.5366 246.856C96.2556 246.856 95.986 246.967 95.7872 247.166L90.5429 252.41L88.2958 250.163C88.1974 250.065 88.0806 249.986 87.9521 249.933C87.8235 249.88 87.6858 249.852 87.5466 249.852C87.2656 249.852 86.996 249.964 86.7972 250.162C86.5984 250.361 86.4867 250.631 86.4866 250.912C86.4865 251.193 86.598 251.462 86.7967 251.661L89.7186 254.583C89.8269 254.691 89.9554 254.777 90.0968 254.836C90.2382 254.894 90.3898 254.925 90.5429 254.925C90.696 254.925 90.8476 254.894 90.989 254.836C91.1304 254.777 91.2589 254.691 91.3672 254.583L97.2853 248.665Z" fill="white"/>
</g>
<g opacity="0.5">
<path fill-rule="evenodd" clip-rule="evenodd" d="M84.6248 277.465C84.0628 277.465 83.5238 277.688 83.1265 278.086C82.7291 278.483 82.5059 279.022 82.5059 279.584V294.416C82.5059 294.978 82.7291 295.517 83.1265 295.915C83.5238 296.312 84.0628 296.535 84.6248 296.535H99.4572C100.019 296.535 100.558 296.312 100.955 295.915C101.353 295.517 101.576 294.978 101.576 294.416V279.584C101.576 279.022 101.353 278.483 100.955 278.086C100.558 277.688 100.019 277.465 99.4572 277.465H84.6248ZM97.2853 284.665C97.4841 284.466 97.5958 284.197 97.5959 283.916C97.596 283.635 97.4845 283.365 97.2858 283.166C97.0872 282.968 96.8177 282.856 96.5366 282.856C96.2556 282.856 95.986 282.967 95.7872 283.166L90.5429 288.41L88.2958 286.163C88.1974 286.065 88.0806 285.987 87.9521 285.933C87.8235 285.88 87.6858 285.852 87.5466 285.852C87.2656 285.852 86.996 285.964 86.7972 286.163C86.5984 286.361 86.4867 286.631 86.4866 286.912C86.4865 287.193 86.598 287.462 86.7967 287.661L89.7186 290.583C89.8269 290.691 89.9554 290.777 90.0968 290.836C90.2382 290.894 90.3898 290.925 90.5429 290.925C90.696 290.925 90.8476 290.894 90.989 290.836C91.1304 290.777 91.2589 290.691 91.3672 290.583L97.2853 284.665Z" fill="white"/>
</g>
<path d="M125.954 97.2883L127.486 114.598L134.694 116.712L141.946 114.599L143.435 97.2883H125.954ZM139.598 103.162H131.853L132.021 105.12H139.496L138.888 111.496L134.764 112.837L130.606 111.424L130.327 108.576H132.292L132.448 109.947L134.779 110.738L137.057 109.997L137.345 107.079H130.242L129.696 101.203H139.808L139.598 103.162Z" fill="white"/>
</svg>
