<?xml version="1.0" encoding="UTF-8"?>
<svg id="Layer_1" data-name="Layer 1" xmlns="http://www.w3.org/2000/svg" viewBox="0 0 601.04 500">
  <defs>
    <style>
      .cls-1 {
        fill: #4297d2;
      }
    </style>
  </defs>
  <path class="cls-1" d="M431.15,6.39c-65.11,0-117.89,52.78-117.89,117.89V397.57c0,3.18-.85,5.39-2.76,7.17-.66,.62-2.41,2.23-6.22,1.2-1.31-.36-5.68-1.9-7.14-6.8L201.52,77.72c-9.7-32.59-35.17-57.41-68.14-66.39-31.85-8.69-65.14-.6-89.01,21.61C24.58,51.38,13.67,76.72,13.67,104.3V449.44c0,24.21,19.63,43.84,43.84,43.84h0c24.21,0,43.84-19.63,43.84-43.84V104.3c0-3.18,.85-5.39,2.76-7.17,.66-.61,2.41-2.23,6.22-1.2,1.31,.36,5.68,1.9,7.14,6.8l95.63,321.42c9.7,32.59,35.17,57.41,68.14,66.39,8.43,2.29,16.95,3.42,25.37,3.42,23.43,0,46.08-8.69,63.63-25.04,19.8-18.43,30.7-43.77,30.7-71.35V124.28c0-16.68,13.53-30.21,30.21-30.21h114.1c24.21,0,43.84-19.63,43.84-43.84h0c0-24.21-19.63-43.84-43.84-43.84h-114.1Z"/>
  <path class="cls-1" d="M528.88,257.9c0,24.48-19.85,44.33-44.33,44.33s-44.33-19.85-44.33-44.33,19.85-44.33,44.33-44.33,44.33,19.85,44.33,44.33Z"/>
</svg>